if (_typeface_js && _typeface_js.loadFace) _typeface_js.loadFace({"glyphs":{"0":{"ha":662,"x_min":46,"x_max":625,"o":"m 410 789 q 271 654 336 789 q 189 342 205 519 q 195 136 172 216 q 267 56 218 56 q 404 197 342 56 q 484 510 467 338 q 480 713 500 637 q 410 789 460 789 m 420 848 q 584 743 525 848 q 625 484 643 639 q 494 146 608 296 q 254 -4 381 -4 q 89 101 149 -4 q 46 361 28 206 q 178 699 64 551 q 420 848 293 848 z "},"1":{"ha":388,"x_min":-8,"x_max":382,"o":"m 370 864 q 382 838 382 864 q 345 711 361 796 l 241 176 q 231 81 231 114 q 254 47 231 58 q 294 37 278 37 q 296 30 296 37 q 289 -4 296 9 q 243 -1 271 -3 q 190 3 214 1 q 144 4 165 4 q 97 3 122 4 q 42 -1 72 1 q -5 -4 12 -3 q -8 5 -8 -1 q 3 37 -8 37 q 45 47 16 37 q 80 69 75 58 q 109 168 91 87 l 195 606 q 203 669 203 647 q 190 692 203 692 q 92 651 171 692 q 79 678 79 656 q 84 692 79 686 q 370 864 365 864 z "},"2":{"ha":602,"x_min":-8,"x_max":583,"o":"m 408 732 q 395 748 408 732 q 336 764 382 764 q 251 739 290 764 q 189 689 212 713 q 163 665 165 665 q 146 690 146 665 q 152 713 146 708 q 276 817 197 768 q 423 865 355 865 q 541 820 499 865 q 583 700 583 774 q 549 554 583 628 q 444 402 514 480 q 311 267 373 324 q 152 129 250 210 q 149 119 149 126 q 155 114 149 114 l 388 114 q 421 119 406 114 q 446 127 437 123 q 464 144 454 132 q 477 160 473 156 q 488 181 480 164 q 498 199 496 198 q 532 212 505 212 q 549 202 545 212 q 511 111 541 182 q 468 0 481 41 l 285 1 q 1 0 11 0 q -8 28 -8 14 q -5 45 -8 31 q 431 629 412 450 q 433 643 431 644 q 434 625 434 635 q 434 651 434 628 q 408 732 434 701 z "},"3":{"ha":578,"x_min":-4,"x_max":537,"o":"m 425 865 q 509 829 472 865 q 537 726 545 792 q 532 690 536 707 q 522 657 529 673 q 509 630 514 642 q 491 604 503 618 q 473 581 479 589 q 452 559 468 574 q 432 541 437 545 q 410 523 427 537 q 391 507 393 509 q 488 452 435 507 q 530 309 540 396 q 399 86 517 178 q 136 -5 281 -5 q 46 8 81 -5 q -1 41 11 22 q -4 69 -4 47 q 14 117 -4 98 q 57 136 33 136 q 119 96 83 136 q 189 57 156 57 q 325 119 271 57 q 387 271 378 180 q 362 385 395 340 q 275 429 330 429 q 183 419 241 429 q 179 448 176 431 q 187 473 179 461 q 342 553 282 494 q 410 686 401 612 q 391 751 415 726 q 335 776 368 776 q 262 758 300 776 q 199 723 224 741 q 170 705 175 705 q 159 727 159 705 q 164 751 159 746 q 425 865 266 865 z "},"4":{"ha":602,"x_min":7,"x_max":583,"o":"m 568 873 q 580 867 575 873 q 583 854 585 861 l 481 339 q 491 328 479 328 l 547 328 q 557 309 557 328 q 541 241 557 274 l 471 241 q 463 233 464 241 l 418 3 q 345 -5 382 -5 q 292 8 288 -5 l 335 235 q 327 241 335 241 l 18 241 q 7 273 7 252 q 9 301 7 288 l 530 850 q 568 873 553 873 m 411 629 q 408 640 414 640 l 406 637 l 129 345 q 126 338 126 342 q 132 328 126 328 l 343 328 q 357 339 354 332 l 411 629 z "},"5":{"ha":591,"x_min":-3,"x_max":576,"o":"m 545 741 q 463 741 514 741 q 300 739 336 741 q 262 727 264 736 l 199 544 q 311 553 266 553 q 472 481 404 553 q 530 315 540 408 q 407 90 515 184 q 137 -5 298 -5 q 47 8 83 -5 q 0 41 12 22 q -3 69 -3 47 q 16 117 -3 98 q 58 136 35 136 q 120 96 84 136 q 189 57 156 57 q 327 113 278 57 q 382 250 376 170 q 354 387 392 332 q 254 441 316 441 q 168 434 214 441 l 121 427 q 104 446 113 427 q 149 579 110 460 q 214 778 187 699 q 245 857 241 857 q 574 865 538 857 q 576 833 581 853 q 545 741 571 780 z "},"6":{"ha":601,"x_min":27,"x_max":597,"o":"m 263 429 q 255 450 255 433 q 291 483 255 468 q 355 498 327 498 q 481 441 431 498 q 532 302 532 385 q 437 89 532 186 q 231 -8 342 -8 q 83 56 140 -8 q 27 218 27 121 q 43 331 27 270 q 99 467 58 392 q 200 611 140 541 q 358 749 260 681 q 578 867 456 818 q 597 830 597 861 q 217 464 323 713 q 160 184 160 330 q 182 90 160 126 q 248 54 203 54 q 351 126 305 54 q 396 298 396 198 q 317 422 396 414 q 263 429 279 430 z "},"7":{"ha":636,"x_min":8,"x_max":643,"o":"m 45 -15 q 18 -5 28 -15 q 8 20 8 5 q 14 38 8 30 l 506 716 q 339 715 477 716 q 178 715 201 715 q 157 711 167 715 q 138 700 146 708 q 122 686 129 692 q 109 667 115 680 q 98 650 102 655 q 89 632 95 644 q 83 618 83 620 l 69 618 q 45 627 52 618 q 81 728 56 661 q 114 818 107 795 q 141 834 118 834 l 552 834 q 602 836 571 834 q 635 838 633 838 q 643 831 643 838 q 589 735 643 811 l 54 -14 q 45 -15 50 -15 z "},"8":{"ha":594,"x_min":16,"x_max":582,"o":"m 233 50 q 304 71 274 50 q 349 121 335 91 q 368 178 362 152 q 374 222 374 203 q 371 254 374 239 q 360 283 368 269 q 347 307 353 297 q 328 330 342 317 q 309 349 315 343 q 288 368 304 354 q 269 384 271 381 q 256 392 260 392 q 248 388 252 392 q 178 296 205 365 q 151 164 151 227 q 172 81 151 113 q 233 50 194 50 m 382 798 q 292 740 326 798 q 259 632 259 682 q 339 506 259 568 q 353 499 349 499 q 362 505 357 499 q 435 602 416 556 q 453 705 453 648 q 435 772 453 747 q 382 798 416 798 m 387 859 q 528 817 475 859 q 582 703 582 776 q 403 458 582 557 q 400 456 400 458 q 401 453 400 454 q 420 436 403 452 q 450 405 437 420 q 481 366 464 389 q 507 315 498 343 q 517 259 517 288 q 426 77 517 161 q 217 -8 335 -8 q 73 39 130 -8 q 16 171 16 87 q 52 298 16 240 q 126 383 88 355 q 208 431 164 411 q 209 439 214 434 q 189 460 206 442 q 161 493 172 477 q 138 540 149 509 q 126 605 126 571 q 208 786 126 713 q 387 859 289 859 z "},"9":{"ha":590,"x_min":7,"x_max":576,"o":"m 350 407 q 313 376 350 391 q 248 361 277 361 q 121 417 171 361 q 72 556 72 473 q 167 770 72 673 q 373 868 262 868 q 519 803 463 868 q 576 640 576 738 q 561 528 576 589 q 505 392 545 467 q 404 248 464 317 q 245 109 343 178 q 26 -8 148 41 q 7 30 7 -3 q 387 395 281 146 q 444 674 444 529 q 357 806 444 806 q 254 733 300 806 q 208 560 208 661 q 288 437 208 445 q 340 430 326 429 q 350 407 350 426 z "}," ":{"ha":212,"x_min":0,"x_max":0,"o":""},"!":{"ha":298,"x_min":3,"x_max":294,"o":"m 3 69 q 36 137 7 110 q 102 164 65 164 q 153 140 134 164 q 168 83 172 115 q 136 13 164 42 q 69 -16 107 -16 q 18 8 38 -16 q 3 69 -1 33 m 243 863 q 283 842 269 863 q 294 788 298 821 q 269 687 293 772 q 205 465 245 602 q 148 266 165 327 q 130 239 144 250 q 104 229 115 229 q 96 256 96 229 q 119 499 99 307 q 153 781 138 692 q 186 838 160 812 q 243 863 212 863 z "},"\"":{"ha":241,"x_min":81,"x_max":218,"o":"m 179 947 q 117 916 146 947 q 84 863 88 886 q 87 801 84 845 q 90 709 90 757 q 84 606 90 661 q 90 593 83 598 q 106 589 98 589 q 133 609 127 589 q 176 732 144 648 q 217 859 209 817 q 218 932 225 918 q 179 947 210 947 m 176 947 q 215 932 208 947 q 214 859 222 918 q 174 732 206 817 q 130 609 141 648 q 103 589 125 589 q 87 593 95 589 q 81 606 80 598 q 87 709 87 661 q 84 801 87 757 q 81 863 81 845 q 115 916 85 886 q 176 947 144 947 z "},"#":{"ha":601,"x_min":11,"x_max":589,"o":"m 479 510 q 579 510 479 510 q 589 502 589 510 q 577 455 589 484 q 555 426 566 426 l 454 426 l 414 317 l 514 317 q 524 309 524 317 q 512 262 524 292 q 490 233 500 233 l 389 233 l 319 33 q 271 22 315 22 q 237 28 237 22 q 240 33 240 31 l 311 233 l 199 233 l 129 33 q 81 22 125 22 q 47 28 47 22 q 50 33 50 31 l 121 233 l 20 233 q 11 241 11 233 q 22 288 11 259 q 45 317 34 317 l 145 317 l 186 426 l 85 426 q 76 434 76 426 q 87 481 76 452 q 110 510 99 510 l 210 510 l 281 711 q 332 722 285 722 q 362 713 362 722 q 359 711 359 712 l 289 510 l 400 510 l 471 711 q 522 722 475 722 q 552 713 552 722 q 549 711 549 712 l 479 510 m 376 426 l 264 426 l 224 317 l 335 317 l 376 426 z "},"$":{"ha":595,"x_min":11,"x_max":579,"o":"m 316 332 l 216 53 q 232 53 216 53 q 341 102 294 53 q 388 218 388 152 q 339 312 388 269 q 328 322 338 313 q 316 332 317 331 m 193 -11 l 165 -84 q 149 -90 164 -90 q 107 -69 123 -90 l 130 -3 q 12 22 80 5 q 11 68 11 39 q 19 231 11 133 q 47 241 20 241 q 75 235 66 241 q 94 139 75 186 q 156 69 113 92 l 264 372 q 231 399 259 377 q 198 425 203 420 q 104 587 104 502 q 197 784 104 705 q 403 863 290 863 q 441 861 429 863 l 465 929 q 480 936 467 936 q 525 913 507 936 l 502 849 q 579 831 551 836 q 571 757 575 798 q 565 696 567 716 q 561 655 563 675 q 557 627 559 635 q 552 618 555 618 q 518 625 529 618 q 511 640 511 628 q 471 760 511 711 l 373 487 q 415 456 381 481 q 454 426 449 430 q 533 275 533 365 q 446 80 533 170 q 346 14 406 39 q 225 -11 286 -11 l 193 -11 m 321 528 l 416 795 q 384 799 400 799 q 279 753 316 799 q 243 655 243 708 q 285 563 243 602 q 295 551 288 559 q 311 536 302 544 q 321 528 320 529 z "},"%":{"ha":873,"x_min":-5,"x_max":863,"o":"m 642 388 q 563 334 594 388 q 522 209 532 281 q 520 134 518 171 q 541 70 522 98 q 593 42 560 42 q 668 96 639 42 q 708 222 697 149 q 710 296 711 259 q 692 360 709 332 q 642 388 674 388 m 661 431 q 781 375 739 431 q 815 239 823 319 q 736 71 807 145 q 575 -3 665 -3 q 452 54 496 -3 q 416 190 408 110 q 496 358 425 285 q 661 431 568 431 m 863 868 q 73 5 81 14 q 28 -11 57 -11 q -5 5 -3 -11 l 785 871 q 812 887 802 887 q 863 868 850 887 m 313 849 q 235 795 266 849 q 194 670 205 742 q 193 595 191 632 q 213 531 194 559 q 264 503 232 503 q 340 557 311 503 q 378 684 369 612 q 382 757 382 720 q 363 821 381 793 q 313 849 346 849 m 331 892 q 452 836 410 892 q 487 699 495 779 q 407 532 479 605 q 245 458 335 458 q 123 514 167 458 q 88 650 80 570 q 168 819 96 745 q 331 892 240 892 z "},"&":{"ha":880,"x_min":24,"x_max":873,"o":"m 396 861 q 505 827 458 861 q 551 736 551 793 q 522 661 551 697 q 469 625 492 625 q 454 636 454 625 q 460 656 454 637 q 467 697 467 674 q 437 768 467 741 q 366 796 408 796 q 263 749 304 796 q 222 637 222 703 q 263 540 222 575 q 317 548 292 548 q 385 532 354 548 q 415 488 415 515 q 389 448 415 463 q 328 434 362 434 q 244 463 277 434 q 164 277 164 395 q 224 113 164 180 q 382 46 283 46 q 570 127 491 46 q 650 321 650 209 q 625 412 650 373 q 555 450 600 450 q 493 431 519 450 q 467 380 467 412 q 506 345 467 354 q 562 294 562 331 q 510 222 562 236 q 441 260 479 222 q 404 349 404 297 q 463 473 404 423 q 600 524 521 524 q 651 522 620 524 q 703 521 682 521 q 784 542 749 521 q 819 602 819 563 q 806 634 819 621 q 774 647 792 647 q 740 633 760 647 q 705 620 720 620 q 671 636 685 620 q 656 674 656 652 q 689 735 656 709 q 825 701 777 735 q 873 602 873 666 q 833 505 873 543 q 724 467 792 467 q 689 469 716 467 q 765 304 765 401 q 643 75 765 170 q 366 -19 521 -19 q 127 61 229 -19 q 24 266 24 141 q 80 420 24 349 q 201 517 136 492 q 141 650 141 583 q 222 803 141 745 q 396 861 302 861 z "},"'":{"ha":239,"x_min":81,"x_max":216,"o":"m 176 947 q 215 932 208 947 q 214 859 222 918 q 174 732 206 817 q 130 609 141 648 q 100 589 125 589 q 86 593 92 589 q 81 606 80 598 q 87 709 87 661 q 84 801 87 757 q 81 863 81 845 q 115 916 85 886 q 176 947 144 947 z "},"(":{"ha":449,"x_min":42,"x_max":460,"o":"m 457 977 q 367 881 418 955 q 269 705 316 807 q 189 469 221 604 q 156 208 156 334 q 184 -20 156 77 q 241 -136 213 -118 l 241 -144 q 233 -163 240 -152 q 220 -175 227 -175 q 170 -143 199 -175 q 112 -57 141 -111 q 62 82 83 -3 q 42 258 42 167 q 94 546 42 400 q 214 791 145 692 q 350 952 283 890 q 450 1015 416 1015 q 460 987 460 1015 l 460 979 q 457 977 460 977 z "},")":{"ha":437,"x_min":-15,"x_max":403,"o":"m 403 581 q 368 336 403 457 q 280 125 332 214 q 170 -33 228 37 q 64 -139 111 -103 q -5 -175 18 -175 q -15 -151 -15 -175 l -15 -144 q -11 -136 -15 -138 q 62 -60 15 -123 q 161 102 110 4 q 251 347 213 201 q 289 643 289 494 q 264 859 289 768 q 205 977 240 951 q 203 979 203 977 q 212 1001 205 987 q 227 1015 220 1015 q 299 961 259 1015 q 371 804 339 907 q 403 581 403 700 z "},"*":{"ha":511,"x_min":34,"x_max":496,"o":"m 297 699 q 327 724 308 699 q 365 779 346 749 q 411 835 384 810 q 463 860 438 860 q 496 821 496 860 q 452 756 496 785 q 362 706 407 727 q 317 667 317 685 q 343 648 317 655 q 401 635 369 640 q 458 613 433 629 q 484 571 484 597 q 466 534 484 551 q 427 517 448 517 q 377 545 403 517 q 330 601 351 572 q 296 629 309 629 q 278 606 282 629 q 270 536 274 582 q 256 461 266 491 q 199 407 240 407 q 173 418 184 407 q 161 448 161 430 q 207 546 161 477 q 252 629 252 614 q 240 642 252 642 q 167 612 229 642 q 76 583 104 583 q 46 593 58 583 q 34 620 34 604 q 39 645 34 632 q 64 671 43 658 q 118 684 84 684 q 176 679 140 684 q 224 674 212 674 q 256 692 256 674 q 221 757 256 705 q 186 841 186 808 q 201 884 186 867 q 239 901 217 901 q 264 892 255 901 q 278 864 274 883 q 283 831 282 845 q 283 789 283 817 q 297 699 283 699 z "},"+":{"ha":654,"x_min":11,"x_max":628,"o":"m 326 637 q 362 656 328 650 q 412 662 396 662 q 424 659 420 662 q 426 650 427 655 q 378 389 395 473 q 382 382 376 382 l 623 382 q 628 363 628 382 q 597 296 628 330 l 362 296 q 357 290 357 296 q 309 41 357 290 q 280 24 308 31 q 231 16 252 16 q 214 20 220 16 q 210 28 209 24 l 259 289 q 254 296 259 296 l 16 296 q 11 315 11 296 q 43 382 11 345 q 275 382 43 382 q 281 388 281 382 q 302 508 289 427 q 326 637 316 589 z "},",":{"ha":332,"x_min":7,"x_max":264,"o":"m 7 -187 q 37 -161 7 -184 q 96 -96 66 -137 q 126 -9 126 -56 q 117 40 126 7 q 107 87 107 73 q 142 152 107 126 q 222 178 176 178 q 260 171 250 178 q 264 133 264 146 q 236 11 264 68 q 30 -225 186 -126 q 15 -210 23 -222 q 7 -187 7 -197 z "},"-":{"ha":444,"x_min":42,"x_max":389,"o":"m 73 358 l 380 374 q 389 358 389 374 q 377 313 389 343 q 355 281 365 282 l 49 266 q 42 286 42 266 q 53 328 42 300 q 73 358 64 357 z "},".":{"ha":266,"x_min":28,"x_max":197,"o":"m 197 84 q 163 14 193 45 q 96 -16 133 -16 q 44 8 64 -16 q 28 68 24 33 q 62 136 33 107 q 129 164 92 164 q 181 141 161 164 q 197 84 201 118 z "},"/":{"ha":658,"x_min":-9,"x_max":669,"o":"m 669 1024 l 94 -16 q 66 -35 90 -24 q 14 -46 43 -46 q -9 -38 -1 -46 l 567 1002 q 631 1032 583 1032 q 669 1024 661 1032 z "},":":{"ha":296,"x_min":14,"x_max":266,"o":"m 94 477 q 127 553 94 519 q 199 586 160 586 q 248 566 229 586 q 266 514 266 545 q 234 437 266 472 q 164 401 202 401 q 113 423 133 401 q 94 477 94 445 m 14 58 q 46 134 14 100 q 118 168 79 168 q 166 147 148 168 q 184 95 184 126 q 153 18 184 53 q 83 -16 121 -16 q 33 5 53 -16 q 14 58 14 27 z "},";":{"ha":236,"x_min":30,"x_max":187,"o":"m 146 251 q 156 274 148 256 q 170 306 164 292 q 178 336 175 320 q 171 354 180 351 q 132 356 152 363 q 99 328 111 349 q 71 277 76 307 q 84 233 65 247 q 146 251 111 225 m 60 231 q 70 290 62 270 q 98 334 77 309 q 111 340 99 334 q 127 350 122 347 q 144 355 133 353 q 165 357 155 358 q 187 350 176 355 q 184 315 191 331 q 165 296 178 300 q 170 273 159 292 q 165 245 180 254 q 157 218 155 239 q 146 197 159 197 q 120 161 132 182 q 94 125 109 140 q 46 96 79 111 l 45 96 q 40 106 34 96 q 35 119 46 115 q 30 126 30 121 q 33 141 30 132 q 41 162 37 151 q 52 193 46 174 q 60 231 57 212 z "},"<":{"ha":587,"x_min":14,"x_max":576,"o":"m 121 283 l 487 62 q 490 54 490 60 q 475 12 490 43 q 454 -19 460 -19 q 449 -18 452 -19 l 26 240 q 14 285 8 251 q 43 327 16 313 l 563 581 l 568 583 q 576 529 576 583 q 570 500 576 505 q 121 283 570 500 z "},"=":{"ha":707,"x_min":35,"x_max":661,"o":"m 68 241 l 614 241 q 624 224 624 241 q 612 182 624 206 q 591 155 601 159 l 45 155 q 35 172 35 155 q 47 214 35 190 q 68 241 58 237 m 104 433 l 651 433 q 661 415 661 433 q 649 374 661 397 q 628 346 637 350 l 81 346 q 72 363 72 346 q 83 405 72 381 q 104 433 95 429 z "},">":{"ha":594,"x_min":0,"x_max":570,"o":"m 460 283 l 95 500 q 94 510 95 500 q 113 558 100 533 q 129 583 125 583 l 134 581 l 553 327 q 570 297 572 317 q 536 240 562 254 l 15 -18 q 7 -20 9 -20 q 0 53 0 -20 q 1 58 0 56 q 5 62 3 61 l 7 62 l 460 283 z "},"?":{"ha":444,"x_min":15,"x_max":441,"o":"m 15 56 q 45 132 15 99 q 114 164 76 164 q 164 144 144 164 q 184 92 184 123 q 152 17 184 50 q 81 -16 119 -16 q 34 4 53 -16 q 15 56 15 24 m 222 278 q 208 255 222 264 q 119 299 175 255 q 62 393 62 343 q 137 519 62 475 l 286 608 q 357 699 357 646 q 338 754 357 732 q 282 776 319 776 q 231 745 258 776 q 184 713 203 713 q 136 741 152 713 q 127 804 121 769 q 233 865 160 865 q 379 810 317 865 q 441 680 441 755 q 361 518 441 568 q 212 429 305 480 q 163 361 163 401 q 193 309 163 336 q 222 278 222 282 z "},"@":{"ha":1015,"x_min":33,"x_max":963,"o":"m 425 -231 q 234 -189 319 -232 q 101 -77 149 -146 q 35 79 53 -8 q 33 251 16 165 q 254 640 80 495 q 647 784 429 784 q 848 711 766 784 q 958 532 930 637 q 963 316 985 426 q 844 60 928 138 q 669 -18 760 -18 q 572 23 606 -18 q 547 109 537 64 q 544 109 547 110 q 540 106 541 107 q 453 31 515 71 q 339 -9 391 -9 q 247 52 273 -9 q 236 191 221 114 q 382 446 264 336 q 659 556 499 556 l 776 544 q 753 472 761 502 l 669 182 q 693 42 628 42 q 774 69 738 42 q 833 140 811 96 q 868 220 856 183 q 887 290 880 256 q 849 589 921 467 q 620 711 777 711 q 304 595 446 711 q 127 302 161 479 q 170 -41 87 88 q 477 -171 252 -171 q 568 -153 521 -171 l 568 -165 q 526 -208 564 -189 q 425 -231 488 -227 m 571 239 l 629 437 q 628 479 639 471 q 613 483 623 481 q 461 421 540 500 q 354 194 382 342 q 391 72 330 72 q 499 139 435 72 q 571 239 563 206 z "},"A":{"ha":879,"x_min":-16,"x_max":840,"o":"m 438 313 q 311 309 388 313 q 302 304 305 309 q 265 243 296 292 q 225 178 235 194 q 183 81 183 107 q 216 48 183 60 q 264 37 248 37 q 267 30 267 37 q 259 -4 267 12 q 205 1 244 -3 q 134 4 167 4 q 52 1 100 4 q -14 -4 4 -3 q -16 5 -16 1 q -8 37 -16 37 q 43 50 7 37 q 90 79 79 64 q 157 184 109 102 l 533 827 q 604 901 575 901 q 617 895 612 901 l 745 184 q 764 85 749 163 q 795 51 768 65 q 837 37 823 37 q 840 28 840 37 q 834 -4 840 7 q 680 4 684 4 q 510 -4 665 4 q 509 4 509 -3 q 517 37 509 37 q 557 47 530 37 q 591 68 585 57 q 600 109 600 84 q 572 302 600 121 q 566 309 572 309 q 438 313 541 313 m 454 387 q 552 391 494 387 q 557 396 557 391 q 534 536 553 423 q 513 667 515 648 l 357 393 l 357 391 q 454 387 397 387 z "},"B":{"ha":760,"x_min":-11,"x_max":746,"o":"m 552 294 q 395 438 552 438 q 304 418 308 438 l 248 130 q 244 95 244 110 q 262 71 244 76 q 334 65 281 65 q 431 80 400 65 q 515 157 479 102 q 552 294 552 213 m 708 300 q 604 88 708 176 q 336 0 500 0 l 241 0 q 146 1 148 1 q -8 -4 117 1 q -11 8 -11 -1 q -3 37 -11 37 q 44 47 12 37 q 83 71 76 58 q 118 193 102 107 l 217 703 q 231 818 231 776 q 216 833 231 825 q 180 848 201 841 q 157 857 160 856 q 155 865 155 859 q 165 898 155 887 q 326 891 241 891 q 446 892 399 891 q 513 894 494 894 q 674 848 602 894 q 746 709 746 803 q 741 660 746 684 q 726 616 735 636 q 704 579 716 597 q 678 548 692 562 q 651 524 665 534 q 626 505 637 513 q 605 491 614 496 q 590 483 595 486 l 585 480 q 665 423 623 473 q 708 300 708 373 m 593 709 q 473 829 593 829 q 382 808 388 829 l 326 524 q 396 505 321 505 q 593 709 593 505 z "},"C":{"ha":827,"x_min":34,"x_max":833,"o":"m 548 905 q 833 854 663 905 q 823 764 833 846 q 811 670 814 681 q 777 650 807 650 q 760 654 765 650 q 751 703 758 678 q 724 762 745 728 q 656 817 704 796 q 540 838 609 838 q 299 690 404 838 q 194 343 194 543 q 254 137 194 217 q 430 57 315 57 q 614 103 543 57 q 666 151 643 122 q 700 198 689 179 q 712 217 711 217 q 730 209 718 217 q 745 193 743 201 q 730 155 743 190 q 705 92 718 121 q 685 54 693 62 q 575 9 655 26 q 406 -8 495 -8 q 135 98 236 -8 q 34 357 34 205 q 106 618 34 491 q 299 825 179 746 q 548 905 419 905 z "},"D":{"ha":930,"x_min":-11,"x_max":906,"o":"m 547 892 q 815 795 724 892 q 906 548 906 697 q 870 360 906 456 q 769 182 834 264 q 600 48 704 100 q 370 -4 495 -4 q 274 -1 346 -4 q 156 3 202 3 l -8 -4 q -11 8 -11 -1 q -1 37 -11 37 q 45 48 12 37 q 84 71 79 60 q 117 187 103 111 l 217 703 q 231 818 233 785 q 200 843 229 829 q 157 857 171 857 q 156 863 156 857 q 164 898 156 890 q 326 892 241 892 l 547 892 m 541 825 q 395 803 412 825 q 361 708 372 777 l 260 187 q 255 87 243 99 q 404 65 273 65 q 632 189 541 65 q 743 511 723 313 q 708 736 758 647 q 541 825 658 825 z "},"E":{"ha":738,"x_min":-11,"x_max":730,"o":"m 326 892 q 528 896 388 891 q 730 901 669 901 q 727 812 727 871 q 728 760 727 795 q 728 708 728 726 q 701 701 722 701 q 685 711 685 701 q 543 831 669 831 l 481 831 q 388 814 393 831 q 361 716 366 753 l 320 492 q 323 488 320 490 q 335 485 327 486 q 352 484 343 484 q 372 483 361 483 l 456 483 q 532 495 517 483 q 576 572 548 507 q 597 583 581 583 q 620 575 614 583 l 571 317 q 547 312 566 312 q 529 323 530 312 q 510 403 526 387 q 393 415 496 415 q 301 404 304 415 l 262 198 q 250 100 250 140 q 261 72 250 77 q 331 66 273 66 l 378 66 q 534 95 477 66 q 589 142 556 106 q 646 225 621 178 q 665 233 650 233 q 697 225 692 233 q 585 -4 597 31 q 361 -1 513 -4 q 156 3 209 3 l -8 -4 q -11 8 -11 -1 q -1 37 -11 37 q 45 48 12 37 q 84 71 79 60 q 117 187 103 111 l 217 703 q 231 818 233 785 q 200 843 229 829 q 157 857 171 857 q 156 863 156 857 q 164 898 156 890 q 326 892 241 892 z "},"F":{"ha":722,"x_min":-11,"x_max":727,"o":"m 156 4 q -8 -4 156 4 q -11 8 -11 -1 q -1 37 -11 37 q 45 48 12 37 q 84 71 79 60 q 117 187 103 111 l 217 703 q 231 818 233 785 q 200 843 229 829 q 157 857 171 857 q 156 863 156 857 q 164 898 156 890 q 326 892 241 892 q 526 896 385 891 q 727 901 666 901 q 724 812 724 871 q 726 760 724 795 q 727 708 727 726 q 700 701 720 701 q 684 711 684 701 q 540 831 667 831 l 480 831 q 385 814 391 831 q 359 716 366 760 l 317 492 q 321 488 317 490 q 332 485 324 486 q 349 484 340 484 q 369 483 358 483 l 453 483 q 530 495 514 483 q 575 572 547 507 q 594 583 579 583 q 618 575 613 583 l 568 317 q 545 312 563 312 q 526 323 528 312 q 509 403 524 388 q 392 415 495 415 q 298 404 301 415 l 256 182 q 245 83 245 122 q 271 52 245 64 q 315 39 297 41 q 345 37 334 37 q 347 20 347 37 q 339 -5 347 3 q 156 4 163 4 z "},"G":{"ha":875,"x_min":35,"x_max":859,"o":"m 551 905 q 836 854 666 905 q 827 777 831 825 q 819 695 822 728 q 814 655 815 662 q 787 643 811 643 q 760 651 768 643 q 756 689 760 670 q 739 737 753 708 q 704 787 726 766 q 640 823 682 807 q 543 838 598 838 q 412 800 472 838 q 313 705 351 762 q 246 580 274 648 q 206 453 218 511 q 194 353 194 395 q 254 143 194 229 q 427 57 315 57 q 562 88 519 57 q 575 114 572 96 q 605 275 597 225 q 610 331 610 308 q 572 357 610 347 q 517 368 534 368 q 514 376 514 368 q 524 408 514 399 q 703 401 680 401 q 859 408 730 401 q 849 368 859 368 q 773 345 812 368 q 750 312 754 332 q 731 198 742 266 q 724 138 724 155 l 724 102 q 686 60 724 76 q 606 26 632 35 q 511 3 581 16 q 359 -11 441 -11 q 126 98 217 -11 q 35 361 35 208 q 106 621 35 495 q 298 826 178 747 q 551 905 419 905 z "},"H":{"ha":962,"x_min":-11,"x_max":971,"o":"m 499 499 q 665 507 663 499 l 703 705 q 716 819 716 776 q 690 848 716 838 q 646 857 665 857 q 643 864 643 857 q 654 898 643 887 q 817 891 796 891 q 971 898 842 891 l 971 891 q 963 857 971 857 q 919 846 952 857 q 880 825 886 834 q 846 704 863 785 l 746 189 q 730 73 730 111 q 759 47 730 58 q 800 37 788 37 q 803 30 803 37 q 793 -4 803 12 q 637 4 643 4 q 547 0 604 4 q 477 -4 490 -4 q 475 5 475 -1 q 483 37 475 37 q 529 46 498 37 q 567 68 560 56 q 602 187 589 111 l 646 415 l 647 416 q 479 426 647 426 q 337 424 370 426 q 302 412 304 422 l 259 189 q 244 73 244 106 q 273 47 244 58 q 315 37 302 37 q 317 30 317 37 q 308 -4 317 12 q 152 4 157 4 q 61 0 118 4 q -8 -4 4 -4 q -11 5 -11 -1 q -3 37 -11 37 q 44 45 14 37 q 81 66 75 54 q 117 187 103 109 l 217 705 q 231 817 231 776 q 203 846 231 834 q 160 857 176 857 q 157 863 157 857 q 167 898 157 888 q 323 891 309 891 q 484 898 355 891 l 484 892 q 475 857 484 857 q 431 846 464 857 q 392 825 397 834 q 358 704 370 777 l 321 510 l 321 509 q 499 499 321 499 z "},"I":{"ha":475,"x_min":-11,"x_max":484,"o":"m 358 704 l 259 189 q 244 73 244 106 q 273 47 244 58 q 315 37 302 37 q 317 30 317 37 q 308 -4 317 12 q 152 4 157 4 q 61 0 118 4 q -8 -4 4 -4 q -11 5 -11 -1 q -3 37 -11 37 q 44 45 14 37 q 81 66 75 54 q 117 187 103 109 l 217 705 q 231 817 231 776 q 203 846 231 834 q 160 857 176 857 q 157 863 157 857 q 167 898 157 888 q 323 891 309 891 q 484 898 355 891 l 484 892 q 475 857 484 857 q 431 846 464 857 q 392 825 397 834 q 358 704 378 795 z "},"J":{"ha":585,"x_min":-16,"x_max":594,"o":"m 214 127 l 326 705 q 339 817 339 776 q 312 846 339 834 q 269 857 285 857 q 266 863 266 857 q 277 898 266 887 q 431 891 419 891 q 594 898 465 891 l 594 892 q 591 870 594 883 q 583 857 587 857 q 540 846 572 857 q 502 825 507 834 q 467 704 486 788 l 361 152 q 307 -12 345 64 q 231 -134 270 -87 q 142 -221 191 -182 q 62 -277 94 -260 q 1 -307 30 -294 q -16 -279 -16 -300 q -14 -258 -16 -263 q 214 127 167 -119 z "},"K":{"ha":937,"x_min":-11,"x_max":947,"o":"m 358 704 l 259 189 q 244 73 244 106 q 273 47 244 58 q 315 37 302 37 q 317 30 317 37 q 308 -4 317 12 q 153 4 157 4 q 62 0 119 4 q -8 -4 4 -4 q -11 5 -11 -1 q -3 37 -11 37 q 44 45 14 37 q 81 66 75 54 q 117 187 103 109 l 217 705 q 231 817 231 776 q 203 846 231 834 q 160 857 176 857 q 157 863 157 857 q 167 898 157 888 q 323 891 309 891 q 484 898 355 891 l 484 892 q 475 857 484 857 q 431 846 464 857 q 392 825 397 834 q 358 704 378 795 m 309 448 q 681 792 418 517 q 709 836 709 821 q 643 857 709 857 q 636 872 636 857 q 643 898 636 887 q 796 892 735 892 q 947 898 844 892 q 936 857 947 857 q 789 800 834 846 l 477 481 q 468 460 468 472 q 475 442 468 453 l 718 125 q 793 60 750 80 q 868 39 837 39 q 871 30 871 39 q 863 0 871 16 q 772 -4 838 -4 q 570 81 627 -4 l 309 448 z "},"L":{"ha":716,"x_min":-11,"x_max":697,"o":"m 326 892 q 486 898 382 892 q 486 892 486 898 q 482 870 486 883 q 475 857 479 857 q 431 846 464 857 q 393 825 399 834 q 358 704 369 772 l 259 189 q 248 100 248 138 q 260 72 248 77 q 331 66 273 66 l 378 66 q 534 95 477 66 q 589 142 556 106 q 646 225 621 178 q 665 233 650 233 q 697 225 692 233 q 585 -4 597 31 q 361 -1 513 -4 q 156 3 209 3 l -8 -4 q -11 8 -11 -1 q -1 37 -11 37 q 45 48 12 37 q 84 71 79 60 q 117 187 103 111 l 217 703 q 231 818 233 785 q 200 843 229 829 q 157 857 171 857 q 156 863 156 857 q 164 898 156 890 q 326 892 263 892 z "},"M":{"ha":1161,"x_min":-12,"x_max":1169,"o":"m 845 727 q 921 897 845 727 q 1015 892 954 892 q 1169 898 1066 892 q 1158 857 1169 857 q 1093 827 1115 857 q 1062 708 1074 803 q 1005 170 1010 236 q 1000 84 1000 118 q 1072 37 1000 42 q 1074 24 1074 37 q 1065 -4 1074 9 q 911 4 914 4 q 819 0 878 4 q 749 -4 760 -4 q 746 5 746 0 q 754 37 746 37 q 803 46 769 37 q 844 68 837 56 q 871 187 860 95 l 917 629 q 920 689 920 656 q 914 700 920 700 q 907 693 911 700 l 572 42 q 547 14 566 30 q 513 -3 529 -3 q 502 0 507 -3 l 382 712 q 380 718 381 718 q 376 712 378 718 q 225 155 233 198 q 209 84 209 87 q 253 51 209 65 q 312 37 297 37 q 315 30 315 37 q 307 -4 315 12 q 151 3 182 3 q -9 -4 136 3 q -12 8 -12 1 q -3 37 -12 37 q 62 52 16 37 q 119 87 107 66 q 146 161 130 103 l 304 745 q 317 821 317 799 q 282 847 317 837 q 227 857 247 857 q 225 865 225 857 q 235 898 225 890 q 376 892 349 892 q 502 898 399 892 q 605 266 507 845 l 606 266 q 610 269 610 266 q 845 727 815 666 z "},"N":{"ha":1035,"x_min":-9,"x_max":1044,"o":"m 330 892 q 456 898 401 892 q 468 858 460 880 q 489 805 476 836 q 513 748 502 774 q 545 680 525 722 q 578 612 566 639 q 616 535 591 585 q 654 461 642 486 q 694 382 666 437 q 731 308 722 328 q 745 363 738 326 l 810 703 q 823 803 823 781 q 782 841 823 825 q 720 857 741 857 q 718 865 718 857 q 727 898 718 891 q 886 892 841 892 q 1044 898 941 892 q 1035 857 1044 857 q 979 844 1020 857 q 921 814 937 831 q 886 703 901 783 l 784 187 q 764 72 774 142 q 753 -3 754 1 q 728 -8 747 -8 q 694 22 713 -8 q 340 749 406 600 l 229 191 q 216 94 216 123 q 256 52 216 66 q 316 37 297 37 q 319 30 319 37 q 311 -4 319 12 q 153 3 184 3 q -7 -4 138 3 q -9 7 -9 1 q -7 20 -9 14 q -3 32 -5 27 q 0 37 -1 37 q 63 49 20 37 q 119 81 106 61 q 153 195 134 107 l 256 713 q 267 815 267 768 q 230 846 267 834 q 172 857 193 857 q 168 865 168 857 q 178 898 168 891 q 330 892 286 892 z "},"O":{"ha":890,"x_min":35,"x_max":865,"o":"m 507 838 q 288 690 380 838 q 195 342 195 541 q 245 136 195 217 q 393 54 296 54 q 561 141 487 54 q 670 342 635 228 q 705 563 705 456 q 656 761 705 684 q 507 838 606 838 m 540 905 q 773 802 681 905 q 865 548 865 700 q 793 274 865 404 q 604 65 722 144 q 358 -14 487 -14 q 125 90 214 -14 q 35 350 35 193 q 109 621 35 491 q 300 827 183 750 q 540 905 416 905 z "},"P":{"ha":728,"x_min":-16,"x_max":738,"o":"m 500 898 q 604 879 552 898 q 696 810 655 860 q 738 688 738 760 q 647 481 738 571 q 429 391 556 391 q 338 411 365 391 q 335 423 335 416 q 346 448 335 442 q 384 445 373 445 q 526 516 468 445 q 585 703 585 587 q 553 800 585 764 q 468 836 522 836 q 374 806 378 836 l 252 182 q 240 84 240 117 q 266 54 240 65 q 311 39 292 42 q 340 37 331 37 q 343 20 343 37 q 335 -4 343 4 q 165 4 184 4 q 109 3 138 4 q 44 -1 80 1 q -14 -4 8 -3 q -16 11 -16 1 q -13 27 -16 18 q -7 37 -9 37 q 41 44 12 37 q 77 68 71 52 q 110 187 90 92 l 217 730 q 227 814 227 777 q 199 844 227 831 q 157 857 171 857 q 155 865 155 857 q 165 898 155 890 q 321 891 308 891 q 411 895 358 891 q 500 898 464 898 z "},"Q":{"ha":846,"x_min":47,"x_max":1034,"o":"m 521 838 q 364 770 437 838 q 250 587 292 701 q 209 342 209 473 q 258 136 209 217 q 407 54 308 54 q 538 104 477 54 q 637 233 600 155 q 696 397 675 311 q 718 563 718 484 q 669 761 718 684 q 521 838 620 838 m 552 905 q 785 802 693 905 q 878 548 878 700 q 805 275 878 406 q 618 66 732 145 q 500 3 572 35 q 365 -42 429 -30 q 490 -81 408 -49 q 657 -140 571 -113 q 814 -168 743 -168 q 918 -142 864 -168 q 1001 -92 972 -117 q 1034 -122 1034 -103 q 920 -210 1006 -157 q 746 -262 833 -262 q 600 -242 675 -262 q 460 -196 524 -222 q 298 -134 397 -170 q 106 -73 198 -98 q 115 -54 106 -68 q 133 -37 125 -39 q 313 -8 288 -12 q 121 111 193 12 q 49 350 49 210 q 93 558 49 456 q 207 736 137 661 q 369 859 277 812 q 552 905 461 905 z "},"R":{"ha":842,"x_min":-16,"x_max":834,"o":"m 321 891 q 410 895 359 891 q 498 898 461 898 q 603 881 551 898 q 698 817 655 864 q 741 704 741 770 q 679 539 741 614 q 547 438 617 464 q 541 420 536 434 q 707 111 598 243 q 770 59 734 79 q 834 38 806 39 q 822 -3 834 19 q 794 -4 817 -3 q 761 -5 772 -5 q 606 42 662 -5 q 491 203 551 90 l 403 388 q 338 410 391 410 q 313 409 319 410 q 300 404 307 408 q 292 388 294 399 l 254 189 q 240 73 240 114 q 269 47 240 58 q 309 37 297 37 q 312 30 312 37 q 302 -4 312 12 q 247 0 293 -4 q 165 4 201 4 q 109 3 138 4 q 44 -1 80 1 q -14 -4 8 -3 q -16 11 -16 1 q -13 27 -16 18 q -7 37 -9 37 q 41 44 12 37 q 77 68 71 52 q 110 187 90 92 l 217 730 q 227 814 227 777 q 199 844 227 831 q 157 857 171 857 q 155 865 155 857 q 165 898 155 890 q 321 891 308 891 m 468 831 q 393 825 411 831 q 372 798 376 818 l 317 513 q 317 510 317 511 q 316 507 316 509 q 416 475 316 475 q 534 543 481 475 q 586 708 586 612 q 555 800 586 769 q 468 831 524 831 z "},"S":{"ha":617,"x_min":19,"x_max":616,"o":"m 426 906 q 529 890 467 906 q 616 871 591 875 q 608 809 613 846 q 600 747 604 772 q 593 698 597 723 q 587 661 590 673 q 582 648 585 648 q 557 652 570 648 q 540 673 540 655 q 503 785 540 731 q 407 838 465 838 q 297 790 336 838 q 258 688 258 742 q 363 534 258 617 q 430 486 377 524 q 502 430 483 448 q 543 373 521 412 q 564 289 564 334 q 467 79 564 168 q 239 -11 369 -11 q 19 23 160 -11 q 26 138 26 132 q 25 201 26 161 q 24 243 24 241 q 53 254 24 254 q 81 241 69 254 q 121 115 81 175 q 241 56 160 56 q 365 113 317 56 q 412 231 412 170 q 405 268 412 250 q 389 299 397 286 q 359 330 380 312 q 330 357 339 349 q 294 385 320 365 q 260 408 267 404 q 205 453 224 437 q 161 497 186 469 q 125 553 136 525 q 114 616 114 582 q 211 823 114 741 q 426 906 308 906 z "},"T":{"ha":781,"x_min":-3,"x_max":788,"o":"m 210 187 l 305 674 q 323 793 323 760 q 317 814 323 807 q 286 825 312 821 q 205 829 259 829 q 108 803 142 829 q 41 703 73 777 q 28 694 37 694 q -3 705 4 694 l 61 911 q 145 898 109 898 q 283 893 199 898 q 419 888 368 888 q 557 893 471 888 q 699 898 644 898 q 788 911 734 898 l 772 704 q 736 694 760 694 q 726 701 726 694 q 696 802 724 774 q 612 829 669 829 q 484 806 495 829 q 449 678 468 770 l 354 189 q 340 73 340 114 q 368 47 340 58 q 408 37 396 37 q 411 30 411 37 q 403 -4 411 9 q 245 4 252 4 q 155 0 212 4 q 85 -4 98 -4 q 84 5 84 -3 q 94 37 84 37 q 139 45 109 37 q 176 66 170 54 q 210 187 195 104 z "},"U":{"ha":905,"x_min":49,"x_max":916,"o":"m 122 705 q 136 817 136 776 q 109 846 136 834 q 66 857 81 857 q 65 863 65 857 q 73 898 65 890 q 231 891 216 891 q 391 898 262 891 l 391 892 q 381 857 391 857 q 337 846 370 857 q 298 825 304 834 q 266 704 290 806 l 206 403 q 193 274 193 332 q 358 84 193 84 q 530 145 461 84 q 629 369 598 206 l 692 697 q 709 822 711 793 q 669 848 708 838 q 608 857 629 857 q 606 865 606 857 q 616 898 606 888 q 761 892 730 892 q 916 898 812 892 q 906 857 916 857 q 848 848 892 857 q 799 830 804 838 q 765 697 788 807 l 703 374 q 566 79 662 161 q 312 -3 471 -3 q 119 67 190 -3 q 49 275 49 137 q 65 412 49 327 l 122 705 z "},"V":{"ha":812,"x_min":87,"x_max":966,"o":"m 258 888 q 429 895 307 888 q 430 890 430 892 q 427 865 430 879 q 419 852 423 852 q 360 840 385 852 q 332 803 335 827 q 340 735 331 788 l 434 228 l 730 730 q 760 808 755 774 q 738 840 761 827 q 682 852 715 852 q 680 860 680 852 q 689 895 680 884 q 823 890 800 890 q 966 895 841 890 q 966 882 967 888 q 956 852 962 852 q 895 836 930 852 q 836 779 859 819 l 393 31 q 336 -16 365 -16 q 317 -3 323 -16 l 187 719 q 167 812 184 734 q 134 842 161 831 q 91 852 107 852 q 87 861 87 852 q 98 895 87 884 q 258 888 231 888 z "},"W":{"ha":1348,"x_min":84,"x_max":1435,"o":"m 248 887 q 408 895 254 887 q 408 890 408 894 q 406 865 408 879 q 399 852 403 852 q 353 840 374 852 q 330 803 332 827 q 338 757 330 792 q 494 206 494 206 q 560 297 500 212 q 637 411 620 382 l 547 738 q 517 818 529 800 q 487 842 507 831 q 450 852 467 852 q 449 868 448 852 q 458 895 450 890 q 525 891 468 895 q 617 887 582 887 q 667 888 642 887 q 722 892 692 890 q 769 895 751 894 q 769 890 769 894 q 766 865 769 879 q 758 852 762 852 q 713 839 732 852 q 690 806 693 826 q 699 760 689 791 l 750 571 l 850 730 q 887 806 884 785 q 871 835 888 823 q 838 849 853 846 q 814 852 822 852 q 811 863 811 852 q 821 895 811 887 q 959 887 939 887 q 1012 888 987 887 q 1063 892 1036 890 q 1107 895 1089 894 q 1105 867 1108 883 q 1097 852 1101 852 q 1044 838 1077 852 q 998 810 1010 823 q 903 684 963 774 l 773 486 q 854 206 848 218 q 930 329 856 206 q 1086 583 1005 452 q 1179 731 1168 715 q 1213 806 1211 785 q 1197 834 1214 822 q 1165 849 1180 846 q 1141 852 1150 852 q 1138 865 1138 852 q 1149 895 1138 887 q 1287 887 1267 887 q 1340 888 1316 887 q 1390 892 1364 890 q 1435 895 1416 894 q 1426 852 1435 852 q 1372 838 1404 852 q 1328 811 1340 825 q 1232 684 1284 769 l 821 26 q 791 -7 807 4 q 766 -18 776 -18 q 754 -11 757 -18 l 661 324 l 458 26 q 404 -18 429 -18 q 393 -11 397 -18 l 197 703 q 155 821 175 780 q 123 843 146 834 q 87 852 100 852 q 85 868 83 852 q 94 895 87 890 q 160 891 106 895 q 248 887 214 887 z "},"X":{"ha":962,"x_min":-3,"x_max":1042,"o":"m 389 887 q 564 895 410 887 q 564 891 564 895 q 564 887 564 888 q 561 864 564 876 q 553 852 557 852 q 505 842 533 852 q 475 811 476 831 q 480 779 473 795 q 579 551 578 551 q 603 577 581 553 q 641 616 625 601 q 682 661 656 632 q 726 709 708 689 q 763 751 745 730 q 791 788 781 773 q 802 810 802 803 q 777 840 803 827 q 720 852 750 852 q 718 863 718 852 q 728 895 718 887 q 880 887 867 887 q 937 888 910 887 q 994 892 963 890 q 1040 895 1024 894 q 1040 888 1040 894 q 1037 865 1040 878 q 1031 852 1034 852 q 969 840 1013 852 q 903 804 925 827 q 608 483 608 483 q 774 98 758 125 q 829 53 792 68 q 883 38 865 38 q 883 20 884 38 q 878 -5 882 5 q 711 3 739 3 q 649 1 680 3 q 582 -2 618 0 q 519 -5 545 -4 q 518 7 518 -3 q 522 27 518 16 q 529 38 525 38 q 574 50 545 38 q 605 79 604 62 q 604 99 608 90 q 486 380 486 380 q 337 212 437 327 q 236 81 237 96 q 260 48 233 58 q 316 38 286 38 q 319 19 320 38 q 312 -5 317 3 q 160 0 236 0 q 0 -5 90 0 q -1 8 -3 3 q 7 38 0 38 q 67 50 26 38 q 127 81 109 61 q 454 453 454 452 l 345 716 q 311 789 323 766 q 282 827 298 812 q 248 844 271 837 q 213 852 225 852 q 210 863 210 852 q 221 895 210 887 q 294 891 235 895 q 389 887 353 887 z "},"Y":{"ha":803,"x_min":88,"x_max":884,"o":"m 267 887 q 442 895 288 887 q 442 886 442 894 q 439 863 442 875 q 431 852 435 852 q 383 841 412 852 q 353 808 354 830 q 357 779 351 796 l 448 514 q 495 576 456 525 q 555 655 534 628 q 606 722 576 682 q 650 785 636 762 q 665 817 665 808 q 642 842 666 831 q 586 852 618 852 q 583 863 583 852 q 593 895 583 887 q 731 887 719 887 q 884 895 751 887 q 884 879 886 888 q 875 852 883 852 q 821 840 857 852 q 765 807 785 827 q 601 596 738 777 q 461 399 464 415 l 420 193 q 407 73 407 121 q 439 49 408 60 q 479 38 469 38 q 480 23 483 38 q 473 -5 479 5 q 410 0 471 -4 q 316 4 349 4 q 222 0 282 4 q 148 -5 161 -4 q 146 11 145 -1 q 156 38 149 38 q 205 49 171 38 q 244 71 239 60 q 277 187 262 103 l 317 399 q 292 489 319 406 q 239 654 266 572 l 212 734 q 160 827 189 806 q 125 844 148 836 q 91 852 103 852 q 88 861 88 852 q 99 895 88 887 q 172 891 113 895 q 267 887 231 887 z "},"Z":{"ha":788,"x_min":16,"x_max":849,"o":"m 426 890 q 567 890 456 890 q 844 903 656 890 q 849 884 848 902 q 849 859 850 865 q 694 665 846 853 q 389 293 541 477 l 236 107 q 225 85 225 94 q 239 73 224 73 l 481 73 q 700 221 628 73 q 727 231 704 231 q 757 222 750 231 q 726 157 746 199 q 699 96 707 115 q 680 50 690 77 q 661 0 669 23 l 22 0 q 16 30 15 12 q 27 58 18 49 l 648 819 l 513 819 q 378 795 435 818 q 301 741 320 773 q 250 727 270 739 q 219 701 229 715 q 190 652 209 686 q 174 651 183 651 q 163 652 165 651 q 172 711 164 666 q 187 781 180 755 q 199 804 197 795 q 208 840 202 812 q 225 901 214 867 q 319 893 237 897 q 426 890 400 890 z "},"[":{"ha":476,"x_min":-5,"x_max":494,"o":"m 239 1024 q 488 1046 353 1024 q 494 1036 494 1046 q 486 1009 494 1024 q 468 989 479 994 q 406 970 450 979 q 327 960 362 960 q 315 948 315 960 l 118 -68 q 125 -79 118 -79 q 254 -113 186 -79 q 262 -131 262 -117 q 258 -157 263 -145 q 250 -168 254 -168 q 12 -144 107 -144 q -5 -121 -5 -144 l -5 -113 l 209 993 q 211 1002 209 996 q 220 1016 213 1008 q 239 1024 228 1024 z "},"\\":{"ha":307,"x_min":20,"x_max":282,"o":"m 47 1032 q 110 1002 104 1032 l 281 18 q 281 14 281 16 q 282 8 282 11 q 268 -35 282 -19 q 237 -53 254 -52 l 206 -50 l 20 1024 q 47 1032 37 1032 z "},"]":{"ha":476,"x_min":-18,"x_max":479,"o":"m 461 1024 q 479 1001 479 1024 q 479 993 479 1001 l 264 -113 q 262 -121 264 -115 q 253 -136 260 -127 q 235 -144 245 -144 q -12 -168 138 -144 q -18 -152 -18 -168 q 4 -113 -18 -121 q 146 -79 84 -79 q 157 -68 157 -79 l 355 948 q 347 960 355 960 q 272 970 312 960 q 218 989 232 979 q 208 1007 210 993 q 210 1034 206 1021 q 220 1046 214 1046 q 461 1024 350 1024 z "},"^":{"ha":463,"x_min":47,"x_max":431,"o":"m 47 677 q 85 711 50 681 q 173 796 121 741 q 267 918 225 852 q 271 925 269 921 q 273 930 273 929 q 275 933 274 932 q 279 935 277 935 q 283 936 281 936 q 301 927 297 936 q 317 880 305 918 q 351 798 330 841 q 380 751 361 780 q 416 702 400 723 q 431 678 431 681 q 408 640 419 640 q 340 696 391 640 q 262 800 289 753 q 144 694 216 747 q 57 640 72 640 q 47 677 47 640 z "},"_":{"ha":720,"x_min":46,"x_max":648,"o":"m 46 -49 q 58 -11 46 -42 q 79 20 69 20 l 643 20 q 648 12 648 20 q 627 -52 648 -4 q 623 -58 625 -56 q 618 -60 620 -60 l 616 -60 l 54 -60 l 46 -49 z "},"`":{"ha":271,"x_min":52,"x_max":235,"o":"m 52 890 q 66 917 52 903 q 113 930 81 930 q 153 920 145 930 q 189 848 170 894 q 222 770 209 803 q 235 734 235 736 q 227 719 235 727 q 213 711 220 711 q 125 782 198 711 q 52 890 52 853 z "},"a":{"ha":610,"x_min":49,"x_max":616,"o":"m 457 600 q 570 575 524 600 l 490 159 q 486 126 486 146 q 499 92 486 92 q 536 111 513 92 q 573 144 559 129 q 594 165 587 159 q 606 153 597 165 q 616 134 616 140 q 531 46 601 102 q 412 -9 461 -9 q 370 10 387 -9 q 353 62 353 30 q 358 107 353 77 q 363 136 362 129 q 336 93 351 114 q 298 47 320 72 q 248 7 275 22 q 193 -8 220 -8 q 87 46 126 -8 q 49 183 49 100 q 105 374 49 278 q 258 535 161 471 q 457 600 354 600 m 389 525 q 248 408 312 525 q 183 187 183 290 q 239 81 183 81 q 337 179 285 81 q 410 381 389 277 l 435 511 q 389 525 423 525 z "},"b":{"ha":544,"x_min":58,"x_max":555,"o":"m 426 600 q 522 550 488 600 q 555 412 555 500 q 440 113 555 237 q 203 -11 326 -11 q 102 31 145 -11 q 58 144 58 73 q 65 203 58 170 l 171 749 q 184 825 184 808 q 109 852 184 852 q 106 861 106 852 q 117 890 106 879 q 220 908 159 892 q 315 936 282 924 q 324 909 324 930 q 304 798 324 892 l 233 439 q 330 556 278 513 q 426 600 382 600 m 372 505 q 269 408 328 505 q 193 220 210 312 q 191 105 178 155 q 244 56 203 56 q 368 168 313 56 q 422 391 422 279 q 372 505 422 505 z "},"c":{"ha":472,"x_min":42,"x_max":500,"o":"m 358 600 q 494 545 438 600 q 499 510 499 524 q 484 460 499 480 q 445 439 469 439 q 412 454 426 439 q 393 487 399 469 q 374 519 387 505 q 342 534 361 534 q 269 490 307 534 q 205 373 231 446 q 179 225 179 300 q 266 84 179 84 q 328 103 296 84 q 375 136 361 122 q 399 160 389 151 q 411 147 401 160 q 420 129 420 134 q 338 43 403 94 q 214 -8 274 -8 q 86 49 129 -8 q 43 205 43 106 q 89 389 43 297 q 208 541 134 481 q 358 600 282 600 z "},"d":{"ha":629,"x_min":53,"x_max":640,"o":"m 444 598 q 454 598 454 598 q 456 600 454 598 l 488 762 q 496 825 496 808 q 422 852 496 852 q 418 861 418 852 q 429 890 418 879 q 534 908 471 892 q 628 936 597 924 q 639 909 639 930 q 635 882 639 902 q 625 835 631 861 q 617 798 618 808 l 494 159 q 490 126 490 146 q 503 92 490 92 q 540 111 517 92 q 577 144 563 129 q 598 165 591 159 q 610 153 601 165 q 620 134 620 140 q 534 46 604 102 q 416 -9 465 -9 q 374 10 391 -9 q 357 62 357 30 q 362 109 357 79 q 368 137 363 117 q 341 96 355 117 q 304 50 327 76 q 253 7 281 23 q 198 -8 225 -8 q 91 46 129 -8 q 53 183 53 100 q 106 372 53 277 q 252 531 160 467 q 444 598 345 595 m 431 475 q 425 511 435 496 q 395 525 414 525 q 291 466 340 525 q 214 329 241 407 q 187 186 187 251 q 243 81 187 81 q 340 178 289 81 q 414 382 392 274 l 431 475 z "},"e":{"ha":483,"x_min":47,"x_max":509,"o":"m 363 600 q 469 566 429 600 q 509 486 509 533 q 444 363 509 422 q 307 275 380 305 q 190 245 233 245 q 184 214 184 245 q 271 84 184 84 q 334 103 301 84 q 380 136 366 122 q 404 160 395 151 q 416 147 407 160 q 426 129 426 134 q 344 43 408 94 q 220 -8 279 -8 q 92 48 136 -8 q 49 206 49 104 q 94 389 49 297 q 214 540 140 480 q 363 600 288 600 m 350 534 q 249 452 301 534 q 197 309 197 370 q 202 304 197 304 q 320 366 258 304 q 382 488 382 427 q 374 522 382 509 q 350 534 366 534 z "},"f":{"ha":642,"x_min":-92,"x_max":772,"o":"m 652 945 q 772 901 739 945 q 707 788 772 788 q 675 803 689 788 q 654 836 662 818 q 631 867 646 853 q 601 882 617 882 q 513 799 557 882 q 442 575 468 716 l 442 572 q 446 567 442 567 l 602 567 q 613 548 613 567 q 595 496 613 524 l 435 496 q 426 486 427 496 l 349 77 q 293 -100 330 -23 q 210 -220 256 -178 q 117 -283 164 -263 q 24 -304 71 -304 q -54 -287 -23 -304 q -91 -250 -85 -270 q -75 -180 -92 -208 q -26 -152 -58 -152 q 1 -165 -11 -152 q 21 -196 14 -179 q 43 -227 28 -213 q 76 -241 57 -241 q 125 -216 102 -241 q 165 -148 148 -190 q 193 -67 182 -106 q 210 11 203 -28 l 300 486 l 300 488 q 296 496 300 496 l 212 496 q 206 505 206 496 q 230 543 206 518 q 278 567 254 567 l 309 567 q 319 585 316 567 q 441 846 347 746 q 652 945 534 945 z "},"g":{"ha":609,"x_min":-8,"x_max":642,"o":"m 418 -146 q 227 -35 418 -80 q 189 -52 203 -45 q 153 -71 174 -58 q 122 -102 133 -84 q 111 -141 111 -121 q 266 -244 111 -244 q 378 -216 338 -244 q 418 -146 418 -187 m 358 533 q 294 497 321 533 q 254 412 267 461 q 241 315 241 363 q 259 245 241 271 q 309 218 277 218 q 373 254 346 218 q 412 336 400 290 q 425 423 425 381 q 407 501 425 469 q 358 533 389 533 m 384 600 q 469 582 420 600 q 566 564 518 564 l 631 564 q 640 549 640 564 q 627 502 642 521 l 555 502 q 547 494 547 502 q 548 481 547 492 q 551 455 549 471 q 553 423 553 439 q 540 336 553 376 q 505 268 526 296 q 465 224 483 240 q 427 195 446 209 q 360 163 406 183 q 286 128 315 144 q 258 98 258 113 q 286 79 258 88 q 356 58 315 69 q 438 31 397 47 q 507 -15 479 15 q 536 -85 536 -45 q 452 -240 536 -174 q 212 -307 368 -307 q 55 -268 117 -307 q -7 -170 -7 -229 q 170 -14 -7 -77 q 136 4 156 -11 q 102 58 102 28 q 149 113 102 81 q 248 161 197 144 q 153 217 193 171 q 114 324 114 263 q 195 517 114 435 q 384 600 277 600 z "},"h":{"ha":631,"x_min":42,"x_max":636,"o":"m 473 600 q 566 480 566 600 q 545 334 566 431 l 510 159 q 506 126 506 146 q 519 92 506 92 q 556 111 533 92 q 593 144 579 129 q 613 165 608 159 q 626 153 617 165 q 635 134 635 140 q 551 46 620 102 q 431 -9 481 -9 q 390 10 407 -9 q 373 65 373 30 q 385 151 373 92 l 423 343 q 435 419 435 406 q 403 476 435 476 q 334 421 378 476 q 248 282 290 366 q 193 125 206 198 l 165 0 q 107 -7 144 -7 q 43 0 71 -7 q 194 788 194 783 q 167 838 198 822 q 163 845 167 842 q 154 850 160 848 q 143 853 148 852 q 132 856 138 854 q 123 857 126 857 q 127 876 122 867 q 187 895 146 882 q 245 917 228 909 q 283 919 260 917 q 315 922 307 921 q 338 921 324 922 q 338 902 339 916 q 333 869 336 888 q 330 848 330 850 q 319 789 330 845 q 297 674 308 734 q 285 608 286 614 q 283 578 294 627 q 259 471 278 548 q 250 430 251 434 q 248 404 263 458 q 237 368 237 366 q 345 514 267 429 q 473 600 422 600 z "},"i":{"ha":380,"x_min":64,"x_max":380,"o":"m 260 600 q 302 580 285 600 q 319 526 319 560 q 308 439 319 492 l 252 159 q 250 126 250 146 q 263 92 250 92 q 300 111 277 92 q 337 144 323 129 q 358 165 351 159 q 370 153 361 165 q 380 134 380 140 q 294 46 363 102 q 176 -9 225 -9 q 134 10 151 -9 q 117 65 117 30 q 127 151 117 95 l 180 420 q 186 464 186 449 q 172 496 186 496 q 127 471 156 496 q 85 429 99 445 q 73 442 83 429 q 64 461 64 456 q 146 546 79 492 q 260 600 213 600 m 301 903 q 347 884 328 903 q 365 836 365 864 q 338 766 365 796 q 275 736 312 736 q 231 758 248 736 q 213 808 213 779 q 239 875 213 846 q 301 903 264 903 z "},"j":{"ha":430,"x_min":-14,"x_max":439,"o":"m 326 600 q 368 580 351 600 q 384 526 384 560 q 373 439 384 494 l 309 111 q 206 -153 277 -58 q 105 -249 168 -205 q 1 -307 42 -293 q -8 -291 -3 -305 q -14 -269 -14 -277 q 110 -130 66 -209 q 179 83 153 -50 l 247 420 q 251 464 251 450 q 237 496 251 496 q 193 471 221 496 q 151 429 164 445 q 138 442 148 429 q 129 461 129 456 q 212 546 144 492 q 326 600 279 600 m 374 906 q 421 885 403 906 q 439 836 439 864 q 412 767 439 796 q 350 738 385 738 q 304 758 321 738 q 288 808 288 779 q 313 877 288 848 q 374 906 339 906 z "},"k":{"ha":644,"x_min":56,"x_max":642,"o":"m 477 600 q 569 569 529 600 q 609 491 609 538 q 532 347 609 406 q 358 274 456 288 q 455 130 415 178 q 522 83 495 83 q 574 106 547 83 q 613 148 602 130 q 629 136 617 148 q 642 119 642 123 q 579 41 631 88 q 475 -5 528 -5 q 440 0 457 -5 q 406 18 423 5 q 375 44 389 31 q 345 79 361 57 q 317 115 328 100 q 292 155 307 129 q 269 193 277 180 q 248 231 262 205 q 231 263 233 256 l 179 0 q 119 -8 156 -8 q 57 0 92 -8 l 201 749 q 214 825 214 808 q 138 852 214 852 q 136 861 136 852 q 146 890 136 879 q 250 908 189 892 q 345 936 312 924 q 354 909 354 930 q 334 798 354 905 l 269 453 q 291 486 277 467 q 332 533 305 505 q 398 581 359 562 q 477 600 437 600 m 423 518 q 348 477 391 518 q 277 391 305 437 q 250 328 250 346 q 274 320 250 320 q 302 323 281 320 q 356 335 323 327 q 416 363 389 343 q 450 412 444 384 q 456 476 465 434 q 423 518 448 518 z "},"l":{"ha":323,"x_min":61,"x_max":343,"o":"m 73 151 l 193 765 q 201 825 201 807 q 126 852 201 852 q 122 861 122 852 q 133 890 122 879 q 237 908 175 892 q 332 936 300 924 q 343 909 343 930 q 323 798 343 898 l 198 159 q 195 126 195 144 q 209 92 195 92 q 244 111 221 92 q 281 144 267 129 q 302 165 296 159 q 315 153 305 165 q 324 134 324 140 q 239 46 309 102 q 121 -9 170 -9 q 79 10 95 -9 q 62 65 62 30 q 73 151 62 95 z "},"m":{"ha":983,"x_min":60,"x_max":994,"o":"m 513 600 q 613 461 613 600 q 601 378 613 446 q 711 526 642 452 q 827 600 781 600 q 925 480 925 600 q 903 334 925 431 l 868 159 q 865 126 865 146 q 879 92 865 92 q 914 111 891 92 q 951 144 937 129 q 972 165 966 159 q 985 153 975 165 q 994 134 994 140 q 909 46 979 102 q 791 -9 840 -9 q 749 10 765 -9 q 732 65 732 30 q 743 151 732 92 l 783 343 q 795 419 795 399 q 788 462 795 448 q 762 476 781 476 q 649 358 722 476 q 556 136 576 240 l 529 0 q 467 -5 494 -5 q 404 0 433 -5 l 475 357 q 484 422 484 403 q 450 476 484 476 q 380 418 425 476 q 298 277 336 359 q 247 130 259 195 l 220 0 q 159 -7 189 -7 q 96 0 130 -7 l 178 420 q 183 464 183 450 q 170 496 183 496 q 124 471 153 496 q 83 429 95 445 q 70 442 79 429 q 61 461 61 456 q 143 546 76 492 q 256 600 210 600 q 299 580 282 600 q 316 526 316 560 q 307 446 316 500 l 290 366 q 399 522 332 444 q 513 600 467 600 z "},"n":{"ha":681,"x_min":58,"x_max":688,"o":"m 255 600 q 298 580 281 600 q 315 526 315 560 q 305 446 315 500 q 302 433 304 441 q 298 407 301 425 q 292 378 294 389 q 290 366 290 366 q 397 513 320 427 q 525 600 473 600 q 617 480 617 600 q 597 334 617 431 l 562 159 q 557 126 557 146 q 571 92 557 92 q 608 111 585 92 q 645 144 631 129 q 665 165 659 159 q 677 153 669 165 q 686 134 686 140 q 602 46 671 102 q 483 -9 533 -9 q 441 10 458 -9 q 425 65 425 30 q 437 151 425 92 l 476 343 q 487 419 487 399 q 454 476 487 476 q 386 421 430 476 q 300 282 342 366 q 244 125 258 198 l 217 0 q 159 -7 195 -7 q 95 0 122 -7 l 176 420 q 182 464 182 450 q 168 496 182 496 q 123 471 152 496 q 81 429 94 445 q 68 442 77 429 q 60 461 60 456 q 142 546 75 492 q 255 600 209 600 z "},"o":{"ha":545,"x_min":57,"x_max":555,"o":"m 355 536 q 275 478 313 536 q 214 339 236 420 q 193 182 193 258 q 212 90 194 123 q 260 57 229 57 q 342 117 304 57 q 399 258 380 178 q 418 410 419 339 q 401 503 418 469 q 355 536 385 536 m 370 600 q 508 542 463 600 q 553 385 553 484 q 509 197 553 289 q 391 49 464 106 q 241 -8 319 -8 q 102 49 148 -8 q 57 203 57 106 q 102 388 57 296 q 220 540 146 480 q 370 600 293 600 z "},"p":{"ha":635,"x_min":-11,"x_max":635,"o":"m 435 507 q 372 483 404 507 q 316 423 339 458 l 262 138 q 307 65 247 65 q 396 115 350 65 q 472 245 442 165 q 502 404 502 326 q 486 478 502 449 q 435 507 469 507 m 494 600 q 598 542 562 600 q 635 407 635 484 q 516 125 635 256 q 288 -7 397 -7 q 235 7 255 -7 l 199 -176 q 195 -210 195 -195 q 220 -250 195 -244 q 277 -255 240 -255 q 282 -267 282 -255 q 277 -297 282 -288 l 176 -297 q -5 -309 92 -298 q -11 -298 -11 -307 q -4 -266 -11 -273 q 57 -244 38 -266 q 76 -182 66 -231 l 172 315 l 114 262 q 103 296 103 277 q 110 311 103 304 q 186 388 172 376 l 227 594 q 288 601 256 601 q 350 591 321 601 q 332 511 334 515 q 348 526 335 513 q 368 547 361 540 q 391 565 376 553 q 420 583 407 576 q 454 594 434 589 q 494 600 473 600 z "},"q":{"ha":563,"x_min":57,"x_max":583,"o":"m 396 525 q 296 470 345 525 q 220 338 248 415 q 193 195 193 262 q 247 83 193 83 q 346 174 292 83 q 418 353 400 266 l 449 510 q 396 525 439 525 m 464 600 q 583 575 534 600 l 472 -3 q 455 -99 471 -11 q 439 -190 439 -187 q 446 -221 439 -212 q 473 -233 452 -231 q 499 -264 480 -259 q 509 -266 503 -266 q 507 -282 510 -274 q 471 -297 486 -294 q 312 -304 396 -297 q 210 -300 222 -300 q 213 -278 210 -279 q 214 -277 213 -278 q 266 -217 255 -260 q 285 -185 269 -217 q 319 -113 301 -153 q 339 -54 336 -73 q 335 -47 336 -61 q 331 -18 334 -41 q 305 79 321 79 q 235 57 263 64 q 175 56 208 50 q 123 87 142 61 q 106 119 115 109 q 92 132 98 130 q 80 134 85 134 q 71 132 75 133 q 64 133 66 130 q 60 146 61 136 q 58 179 58 157 q 116 376 58 278 q 269 536 174 473 q 464 600 363 600 z "},"r":{"ha":549,"x_min":64,"x_max":593,"o":"m 260 600 q 302 580 286 600 q 319 526 319 560 q 312 453 319 491 q 294 366 296 369 q 393 526 332 453 q 510 600 454 600 q 593 551 559 600 q 526 438 593 438 q 490 462 510 438 q 450 486 469 486 q 385 430 427 486 q 304 290 343 374 q 250 132 264 205 l 225 0 q 164 -5 195 -5 q 100 0 132 -5 l 182 420 q 186 464 186 450 q 172 496 186 496 q 127 471 156 496 q 85 429 99 445 q 73 442 83 429 q 64 461 64 456 q 146 546 79 492 q 260 600 214 600 z "},"s":{"ha":437,"x_min":46,"x_max":461,"o":"m 323 602 q 450 556 404 602 q 461 517 461 540 q 447 466 461 486 q 410 446 433 446 q 351 492 382 446 q 282 538 320 538 q 241 522 255 538 q 228 477 228 506 q 254 406 228 448 q 311 329 279 365 q 370 246 343 293 q 396 160 396 199 q 335 38 396 85 q 184 -9 274 -9 q 56 38 103 -9 q 46 73 46 52 q 60 125 46 104 q 96 146 75 146 q 131 132 115 146 q 156 100 146 117 q 184 68 165 83 q 225 54 202 54 q 267 71 252 54 q 282 114 282 87 q 240 207 282 152 q 156 322 198 262 q 114 433 114 382 q 175 550 114 498 q 323 602 236 602 z "},"t":{"ha":376,"x_min":73,"x_max":433,"o":"m 209 724 q 301 741 212 741 q 335 738 321 741 l 301 575 q 423 575 301 575 q 433 556 433 575 q 418 507 433 530 l 289 507 l 221 159 q 217 126 217 146 q 231 92 217 92 q 267 111 244 92 q 304 144 290 129 q 326 165 319 159 q 338 153 328 165 q 347 134 347 140 q 262 46 332 102 q 144 -9 193 -9 q 101 10 118 -9 q 84 65 84 30 q 96 151 84 95 l 165 507 l 79 507 q 75 524 75 507 q 81 553 75 537 q 92 575 87 570 l 179 575 l 209 724 z "},"u":{"ha":667,"x_min":52,"x_max":674,"o":"m 248 600 q 290 580 274 600 q 307 526 307 560 q 296 439 307 487 l 256 247 q 245 171 245 189 q 278 114 245 114 q 345 169 301 114 q 428 308 388 224 q 483 467 468 392 l 509 590 q 568 597 532 597 q 631 590 604 597 l 548 159 q 545 126 545 144 q 559 92 545 92 q 594 111 571 92 q 631 144 617 129 q 652 165 646 159 q 665 153 655 165 q 674 134 674 140 q 589 46 659 102 q 471 -9 519 -9 q 429 10 445 -9 q 412 65 412 30 q 422 144 412 87 q 425 157 423 149 q 429 183 426 165 q 435 212 433 201 q 437 224 437 224 q 382 137 419 189 q 294 38 345 85 q 208 -9 243 -9 q 115 109 115 -9 q 136 255 115 159 l 168 420 q 174 464 174 445 q 160 496 174 496 q 115 471 144 496 q 73 429 87 445 q 61 442 71 429 q 52 461 52 456 q 134 546 66 492 q 248 600 202 600 z "},"v":{"ha":582,"x_min":54,"x_max":604,"o":"m 250 600 q 292 580 275 600 q 309 526 309 560 q 300 446 309 492 l 258 232 q 250 164 250 191 q 296 102 250 102 q 385 153 335 102 q 471 277 435 205 q 507 404 507 350 q 486 471 507 437 q 464 529 464 505 q 486 580 464 560 q 540 600 509 600 q 587 586 570 600 q 604 507 604 559 q 564 326 604 420 q 467 160 524 231 q 347 43 410 90 q 236 -3 283 -3 q 152 31 184 -3 q 119 119 119 64 q 125 184 119 156 l 171 420 q 176 464 176 442 q 163 496 176 496 q 118 471 146 496 q 76 429 90 445 q 64 442 73 429 q 54 461 54 456 q 136 546 69 492 q 250 600 203 600 z "},"w":{"ha":894,"x_min":54,"x_max":903,"o":"m 250 600 q 292 580 275 600 q 309 526 309 560 q 300 446 309 492 l 258 232 q 250 164 250 191 q 296 102 250 102 q 366 132 328 102 q 437 217 404 163 q 483 515 461 431 q 553 600 505 600 q 617 521 617 600 q 564 266 617 435 q 557 201 557 222 q 567 122 557 142 q 605 102 576 102 q 692 153 643 102 q 774 277 741 205 q 808 404 808 349 q 785 471 808 435 q 762 532 762 507 q 785 581 762 563 q 838 600 808 600 q 887 586 871 600 q 903 507 903 559 q 840 270 903 392 q 692 73 776 148 q 545 -3 608 -3 q 460 29 492 -3 q 426 118 427 61 q 236 -3 319 -3 q 152 31 184 -3 q 119 119 119 64 q 125 184 119 156 l 171 420 q 176 464 176 442 q 163 496 176 496 q 118 471 146 496 q 76 429 90 445 q 64 442 73 429 q 54 461 54 456 q 136 546 69 492 q 250 600 203 600 z "},"x":{"ha":663,"x_min":26,"x_max":688,"o":"m 292 600 q 376 488 343 600 l 400 404 l 469 518 q 590 600 518 600 q 678 574 640 600 q 688 537 688 555 q 671 492 688 511 q 629 473 655 473 q 587 490 609 473 q 549 507 566 507 q 510 477 526 507 l 423 327 l 479 136 q 494 107 484 119 q 513 95 503 95 q 562 119 533 95 q 601 160 591 144 q 614 148 605 160 q 624 130 624 136 q 551 47 614 100 q 437 -7 487 -7 q 353 106 385 -7 l 324 205 l 245 73 q 125 -8 195 -8 q 37 18 73 -8 q 27 54 27 35 q 43 99 27 80 q 84 118 58 118 q 127 101 104 118 q 165 84 149 84 q 203 114 187 84 l 302 281 l 250 456 q 216 499 237 499 q 166 474 195 499 q 127 433 137 449 q 114 445 123 433 q 104 463 104 457 q 178 546 114 492 q 292 600 243 600 z "},"y":{"ha":656,"x_min":-35,"x_max":666,"o":"m 289 600 q 338 564 316 600 q 375 471 361 529 q 399 353 389 414 q 414 225 408 292 q 421 123 419 159 q 423 64 423 87 q 511 208 461 110 q 562 378 562 307 q 519 529 562 458 q 546 579 524 559 q 597 600 568 600 q 648 570 631 600 q 665 509 665 541 q 621 286 665 406 q 505 65 576 167 q 352 -122 434 -37 q 188 -257 270 -208 q 46 -307 106 -307 q -12 -290 11 -307 q -35 -241 -35 -273 q -8 -182 -35 -203 q 90 -198 37 -198 q 266 -103 197 -198 q 296 47 296 -62 q 276 293 296 164 q 218 477 256 422 q 165 465 205 487 q 149 463 159 465 q 131 456 140 460 q 115 448 122 452 q 106 445 107 445 q 138 488 109 452 q 214 562 168 525 q 289 600 259 600 z "},"z":{"ha":568,"x_min":24,"x_max":595,"o":"m 255 600 q 359 583 286 600 q 477 567 431 567 q 526 583 498 567 q 574 600 555 600 q 594 559 594 600 q 492 447 594 555 q 288 233 391 339 q 186 127 186 127 q 211 137 190 127 q 245 146 232 146 q 334 127 281 146 q 415 107 388 107 q 452 125 433 107 q 487 165 472 144 q 505 187 502 186 q 519 179 513 190 q 529 155 526 168 q 509 115 521 137 q 476 64 496 92 q 429 16 456 35 q 374 -3 401 -3 q 271 14 345 -3 q 152 31 198 31 q 97 14 130 31 q 49 -3 64 -3 q 32 9 38 -3 q 24 33 26 22 q 127 147 24 38 q 332 363 229 256 q 434 471 434 471 q 422 465 433 471 q 401 456 412 460 q 382 452 391 452 q 300 471 349 452 q 224 491 251 491 q 185 473 205 491 q 151 433 165 454 q 133 410 137 412 q 117 418 125 407 q 106 441 110 429 q 168 543 123 487 q 255 600 213 600 z "},"{":{"ha":423,"x_min":15,"x_max":441,"o":"m 20 30 q 65 186 20 91 q 110 317 110 282 q 105 340 110 330 q 96 357 100 351 q 78 370 91 363 q 60 380 65 377 q 37 389 54 382 q 15 396 19 395 q 16 418 14 401 q 26 445 19 435 q 130 494 99 464 q 160 594 160 524 q 156 656 160 614 q 152 722 152 699 q 243 935 152 853 q 437 1017 334 1017 q 441 1010 441 1017 q 435 989 441 1002 q 423 975 430 977 q 391 965 412 974 q 342 936 370 956 q 294 872 313 916 q 274 772 274 829 q 277 714 274 751 q 281 655 281 677 q 230 482 281 547 q 138 418 179 418 q 192 383 168 418 q 216 298 216 349 q 168 139 216 235 q 121 -5 121 43 q 150 -90 121 -56 q 209 -127 179 -125 q 216 -150 217 -130 q 206 -170 214 -170 q 77 -113 133 -170 q 20 30 20 -56 z "},"|":{"ha":311,"x_min":-9,"x_max":316,"o":"m 221 1027 q 292 1051 247 1051 q 316 1039 317 1051 l 88 -144 q 54 -160 79 -152 q 8 -168 28 -168 q -5 -165 1 -168 q -9 -156 -11 -161 q 221 1027 174 796 z "},"}":{"ha":430,"x_min":-18,"x_max":410,"o":"m -14 -170 q -18 -163 -18 -170 q -12 -142 -18 -156 q 0 -127 -7 -129 q 26 -121 9 -127 q 64 -98 42 -114 q 106 -59 87 -81 q 138 0 125 -37 q 151 80 151 37 q 146 134 151 99 q 142 191 142 170 q 191 355 142 293 q 283 418 240 418 q 231 454 254 418 q 208 541 208 490 q 256 708 208 604 q 305 860 305 812 q 275 941 305 909 q 216 975 245 972 q 209 997 208 977 q 217 1017 210 1017 q 352 967 294 1017 q 410 829 410 917 q 361 665 410 765 q 313 529 313 566 q 337 475 313 492 q 406 445 361 457 q 407 435 407 442 q 397 396 407 407 q 374 389 392 395 q 350 382 355 384 q 330 374 345 380 q 311 363 316 368 q 295 351 305 359 q 281 334 285 343 q 273 313 278 326 q 265 284 267 300 q 263 250 263 269 q 267 191 263 231 q 270 132 270 152 q 220 -28 270 43 q 107 -135 171 -100 q -14 -170 43 -170 z "},"~":{"ha":724,"x_min":65,"x_max":669,"o":"m 252 483 q 393 448 312 483 q 534 412 475 412 q 582 422 557 412 q 620 441 606 433 q 662 472 633 450 q 669 454 669 465 q 610 376 669 415 q 486 336 551 336 q 342 372 426 336 q 198 407 258 407 q 182 406 190 407 q 167 403 175 406 q 153 399 159 400 q 139 392 148 397 q 127 385 130 387 q 113 376 123 384 q 101 368 103 369 q 87 357 99 366 q 73 347 75 349 q 65 365 65 355 q 132 445 65 407 q 252 483 198 483 z "},"":{"ha":198,"x_min":0,"x_max":0,"o":""},"":{"ha":304,"x_min":-8,"x_max":283,"o":"m 283 513 q 250 445 279 472 q 184 418 221 418 q 133 442 152 418 q 118 499 114 467 q 151 569 122 540 q 217 598 179 598 q 268 574 248 598 q 283 513 288 549 m 43 -282 q 3 -260 18 -282 q -8 -206 -12 -239 q 18 -104 -7 -190 q 82 118 42 -18 q 140 317 122 254 q 158 343 144 334 q 183 353 172 353 q 191 326 191 353 q 169 83 189 275 q 134 -199 149 -110 q 102 -257 127 -232 q 43 -282 76 -282 z "},"":{"ha":563,"x_min":19,"x_max":556,"o":"m 19 224 q 127 488 19 372 q 366 605 235 605 l 384 605 q 407 673 403 659 q 457 681 423 681 q 472 676 467 681 q 475 666 477 671 l 449 597 q 520 567 486 589 q 556 518 555 545 q 551 492 556 509 q 527 455 547 475 q 477 435 507 435 q 454 444 464 435 q 431 472 444 453 q 414 496 418 491 l 262 72 q 311 65 281 65 q 385 84 349 65 q 439 122 422 103 l 457 140 q 469 130 469 140 q 465 98 469 107 q 382 31 449 71 q 244 -9 315 -9 l 233 -9 q 210 -79 214 -64 q 157 -85 197 -85 q 147 -81 153 -85 q 142 -73 141 -77 l 170 0 q 59 81 99 20 q 19 224 19 141 m 165 235 q 206 110 165 151 l 359 537 q 335 540 346 540 q 243 484 283 540 q 184 359 202 427 q 165 235 165 290 z "},"":{"ha":620,"x_min":-11,"x_max":621,"o":"m 492 863 q 574 850 537 863 q 621 814 612 837 q 549 718 604 718 q 496 756 522 718 q 446 795 471 795 q 334 728 374 795 q 286 574 294 662 q 285 491 282 538 q 289 487 285 487 l 494 487 q 503 468 503 487 q 480 412 503 435 l 292 412 q 285 408 285 412 q 278 347 285 378 q 159 121 255 233 q 264 144 201 144 q 351 121 301 144 q 419 99 400 99 q 448 103 434 99 q 470 111 461 107 q 493 127 479 115 q 511 144 507 140 q 532 165 515 148 q 552 187 549 183 q 563 180 556 187 q 570 167 570 174 q 568 160 570 161 q 534 99 555 132 q 469 30 513 66 q 381 -7 426 -7 q 264 14 338 -7 q 163 35 191 35 q 117 30 140 35 q 82 19 94 24 q 51 3 71 14 q 28 -9 31 -8 q 0 5 11 -5 q -11 23 -11 15 l -4 30 q 96 150 50 72 q 156 323 142 228 q 164 407 164 382 q 159 412 164 412 l 61 412 q 57 434 57 420 q 66 469 57 450 q 84 487 75 487 l 161 487 q 165 492 165 487 q 171 559 165 524 q 271 782 183 701 q 492 863 359 863 z "},"":{"ha":644,"x_min":15,"x_max":629,"o":"m 349 621 q 242 532 283 621 q 201 353 201 442 q 225 253 201 292 q 294 214 250 214 q 401 302 359 214 q 444 480 444 391 q 418 581 444 541 q 349 621 393 621 m 373 674 q 505 621 452 674 l 587 692 q 593 693 589 693 q 616 671 604 693 q 629 629 628 650 l 547 560 q 564 469 564 515 q 483 263 564 354 l 532 193 q 533 189 533 191 q 509 159 533 178 q 463 134 484 140 l 415 206 q 273 163 346 163 q 137 214 191 163 l 58 148 q 53 146 57 146 q 29 168 42 146 q 15 210 16 190 l 95 277 q 79 365 79 315 q 164 575 79 480 l 115 648 q 114 651 114 650 q 138 681 114 662 q 183 705 161 700 l 232 632 q 373 674 300 674 z "},"":{"ha":804,"x_min":15,"x_max":815,"o":"m 58 146 q 52 160 52 146 q 59 191 52 172 q 75 214 66 209 l 210 214 l 222 279 l 81 279 q 75 293 75 279 q 82 323 75 305 q 98 347 90 342 l 235 347 q 237 359 235 349 q 240 377 240 370 q 237 392 240 381 l 140 716 q 85 806 121 780 q 19 827 56 827 q 15 838 15 827 q 26 868 15 860 q 191 861 175 861 q 376 868 250 861 l 376 863 q 372 840 376 853 q 365 827 369 827 q 319 817 346 827 q 292 781 292 806 q 298 751 292 772 l 374 510 q 378 506 377 506 q 388 513 385 506 q 594 792 594 760 q 566 818 594 808 q 509 827 538 827 q 506 836 506 827 q 515 868 506 861 q 661 861 631 861 q 815 868 689 861 q 807 829 815 829 q 753 815 795 829 q 696 785 712 802 q 527 581 667 757 q 381 374 387 406 l 376 347 l 524 347 q 529 334 529 347 q 522 303 529 321 q 506 279 514 285 l 363 279 l 351 214 l 500 214 q 506 201 506 214 q 498 170 506 189 q 483 146 491 152 l 338 146 q 330 72 330 103 q 358 46 330 57 q 397 35 387 35 q 400 30 400 35 q 392 -5 400 11 q 348 -2 376 -4 q 296 1 320 0 q 248 3 273 3 q 195 1 222 3 q 133 -2 167 0 q 80 -5 99 -4 q 77 4 77 -3 q 81 24 77 14 q 88 35 85 35 q 132 46 102 35 q 170 68 163 57 q 197 146 187 99 l 58 146 z "},"":{"ha":311,"x_min":-9,"x_max":316,"o":"m 220 1021 q 290 1044 244 1044 q 316 1034 317 1044 l 221 541 q 186 524 212 533 q 141 515 161 515 q 129 519 134 515 q 125 529 123 524 q 220 1021 172 791 m 87 336 q 157 361 113 361 q 183 349 184 361 l 88 -144 q 54 -160 79 -152 q 8 -168 28 -168 q -5 -165 1 -168 q -9 -156 -11 -161 l 87 336 z "},"":{"ha":524,"x_min":33,"x_max":496,"o":"m 392 884 q 462 868 435 884 q 496 833 488 852 q 438 745 487 745 q 415 756 426 745 q 397 782 404 768 q 374 808 389 796 q 340 819 359 819 q 271 792 300 819 q 241 719 241 765 q 266 653 241 682 q 326 602 290 624 q 396 557 361 581 q 456 496 431 533 q 480 412 480 460 q 441 275 480 336 q 362 184 403 214 q 365 160 365 171 q 302 -4 365 62 q 138 -71 239 -71 q 66 -56 94 -71 q 33 -22 39 -41 q 50 39 35 9 q 91 68 65 68 q 136 31 111 68 q 191 -7 160 -7 q 258 21 228 -7 q 288 94 288 49 q 263 161 288 130 q 203 214 239 191 q 134 260 168 236 q 75 322 99 285 q 50 407 50 359 q 80 528 50 468 q 167 629 110 589 q 165 651 165 636 q 229 818 165 751 q 392 884 293 884 m 137 484 q 165 410 137 442 q 228 359 193 377 q 300 307 263 340 q 351 233 336 274 q 393 326 393 266 q 366 399 393 366 q 303 453 338 433 q 231 506 269 473 q 180 578 194 538 q 137 484 137 543 z "},"":{"ha":498,"x_min":56,"x_max":463,"o":"m 400 804 q 445 782 427 804 q 463 731 463 760 q 435 663 463 692 q 370 635 408 635 q 329 656 345 635 q 313 707 313 678 q 338 775 313 746 q 400 804 362 804 m 142 804 q 187 782 170 804 q 205 731 205 760 q 178 663 205 692 q 113 635 151 635 q 71 656 87 635 q 56 707 56 678 q 80 775 56 746 q 142 804 104 804 z "},"":{"ha":769,"x_min":35,"x_max":739,"o":"m 425 652 q 543 636 484 652 q 544 627 544 636 q 537 544 544 564 q 526 538 536 538 q 510 541 518 538 q 488 589 509 566 q 419 612 468 612 q 332 548 366 612 q 297 414 297 484 q 317 339 297 368 q 377 311 336 311 q 449 331 425 311 q 460 340 454 335 q 469 351 465 346 q 477 359 473 355 q 483 366 480 363 l 484 369 q 487 370 486 369 q 490 370 488 370 q 506 363 502 370 q 492 328 505 354 q 469 297 479 302 q 345 270 419 270 q 247 313 285 270 q 209 419 209 355 q 273 578 209 505 q 425 652 336 652 m 446 772 q 201 659 311 772 q 92 400 92 545 q 157 223 92 293 q 326 153 222 153 q 570 267 461 153 q 680 526 680 381 q 614 703 680 633 q 446 772 549 772 m 458 834 q 661 751 582 834 q 739 540 739 667 q 608 229 739 365 q 313 94 476 94 q 113 177 190 94 q 35 388 35 260 q 165 699 35 563 q 458 834 296 834 z "},"":{"ha":472,"x_min":37,"x_max":445,"o":"m 315 753 q 372 747 342 753 q 408 736 401 742 l 357 464 q 353 434 353 444 q 373 406 353 406 q 404 435 384 406 l 426 465 q 437 458 430 465 q 445 442 444 450 q 399 375 433 412 q 327 338 366 338 q 269 397 277 338 q 269 414 269 407 q 269 429 269 420 q 270 439 270 438 l 270 442 l 267 439 q 203 371 244 406 q 126 336 163 336 q 37 434 37 336 q 132 643 37 533 q 315 753 228 753 m 294 707 q 192 616 248 707 q 136 458 136 526 q 168 399 136 399 q 239 461 198 399 q 292 590 279 524 l 307 677 q 309 693 309 688 q 294 707 309 707 z "},"":{"ha":637,"x_min":27,"x_max":623,"o":"m 591 574 q 611 564 600 572 q 623 547 623 556 q 619 536 623 541 q 593 510 616 532 q 518 445 570 488 l 395 336 l 473 227 q 496 197 483 214 q 516 171 510 179 q 529 153 522 163 q 538 138 536 144 q 541 129 541 133 q 498 99 541 110 q 467 134 491 109 q 389 210 444 159 q 273 308 334 260 q 266 321 266 311 q 283 363 266 346 q 591 574 477 475 m 354 574 q 374 562 365 571 q 384 547 384 553 q 380 536 384 541 q 354 510 377 532 q 279 445 331 488 l 156 336 l 235 227 q 258 197 245 213 q 278 172 271 180 q 291 154 285 163 q 300 140 297 145 q 302 130 302 134 q 259 99 302 114 q 229 134 252 109 q 150 210 205 159 q 34 308 95 260 q 27 321 27 312 q 45 363 27 346 q 200 460 123 408 q 312 540 277 513 q 354 574 347 567 z "},"":{"ha":692,"x_min":39,"x_max":647,"o":"m 71 575 q 635 575 71 575 q 647 559 650 575 l 583 225 q 519 212 562 212 q 505 215 511 212 q 499 224 498 218 l 548 475 l 549 476 q 537 488 549 488 l 43 488 q 39 507 43 488 q 51 547 39 518 q 71 575 62 575 z "},"":{"ha":768,"x_min":43,"x_max":747,"o":"m 454 863 q 210 749 319 863 q 100 491 100 636 q 165 314 100 384 q 334 244 231 244 q 578 358 469 244 q 688 617 688 472 q 623 793 688 724 q 454 863 557 863 m 467 925 q 669 842 590 925 q 747 631 747 758 q 616 320 747 456 q 321 184 484 184 q 121 268 198 184 q 43 479 43 351 q 174 789 43 654 q 467 925 304 925 m 411 719 q 387 716 393 719 q 377 704 380 715 l 357 600 q 355 591 355 597 q 391 579 355 579 q 438 607 420 579 q 456 669 456 635 q 411 719 456 719 m 427 751 q 500 732 468 751 q 532 671 532 712 q 509 604 532 635 q 450 556 486 572 q 448 552 448 553 l 448 549 q 487 457 458 509 q 556 389 522 389 q 552 372 556 380 q 532 369 548 369 q 453 390 477 369 q 407 457 429 411 q 388 503 397 477 q 374 537 378 529 q 357 547 372 547 q 345 537 346 547 l 323 426 q 321 410 321 422 q 326 399 321 401 q 350 388 338 388 q 351 385 351 388 q 347 369 351 377 q 316 372 340 369 q 277 374 292 374 q 235 372 262 374 q 198 369 208 369 l 198 380 q 201 388 198 385 q 237 404 229 393 q 251 449 245 419 l 293 675 q 300 716 300 705 q 289 728 300 723 q 270 732 278 732 q 269 738 269 732 q 271 751 269 746 q 342 749 317 749 q 384 750 358 749 q 427 751 410 751 z "},"":{"ha":435,"x_min":65,"x_max":393,"o":"m 92 810 l 385 810 q 393 789 393 810 q 385 755 393 780 q 365 724 376 731 l 75 724 q 65 750 65 724 q 74 782 65 762 q 92 810 83 802 z "},"":{"ha":338,"x_min":54,"x_max":308,"o":"m 197 806 q 134 777 160 806 q 109 711 109 747 q 124 666 109 684 q 167 648 140 648 q 228 677 202 648 q 254 743 254 707 q 239 788 254 770 q 197 806 224 806 m 208 860 q 280 829 252 860 q 308 753 308 799 q 260 642 308 690 q 156 593 213 593 q 83 624 111 593 q 54 701 54 655 q 103 812 54 765 q 208 860 152 860 z "},"":{"ha":689,"x_min":-7,"x_max":690,"o":"m 26 138 q 605 138 26 138 q 610 119 610 138 q 579 52 610 85 l -1 52 q -7 69 -7 52 q 26 138 -7 100 m 104 548 q 338 548 104 548 q 343 553 343 548 q 365 673 351 593 q 388 803 378 754 q 425 821 391 815 q 475 827 458 827 q 486 824 483 827 q 488 817 490 821 q 441 556 457 640 q 445 548 438 548 l 685 548 q 690 530 690 548 q 658 461 690 496 l 425 461 q 419 456 419 461 l 372 206 q 342 189 370 197 q 293 182 315 182 q 277 186 282 182 q 273 195 271 191 l 321 456 q 316 461 321 461 l 79 461 q 72 480 72 461 q 104 548 72 510 m 26 138 q -7 69 -7 100 q -1 52 -7 52 l 579 52 q 610 119 610 85 q 605 138 610 138 q 26 138 605 138 m 104 548 q 72 480 72 510 q 79 461 72 461 q 316 461 79 461 q 321 456 321 461 q 273 195 321 456 q 277 186 271 191 q 293 182 282 182 q 342 189 315 182 q 372 206 370 197 q 419 456 401 358 q 425 461 419 461 l 658 461 q 690 530 690 496 q 685 548 690 548 l 445 548 q 441 556 438 548 q 488 817 441 556 q 486 824 490 821 q 475 827 483 827 q 425 821 458 827 q 388 803 391 815 q 365 673 378 754 q 343 553 351 593 q 338 548 343 548 l 104 548 z "},"":{"ha":429,"x_min":18,"x_max":400,"o":"m 289 876 q 370 844 340 876 q 400 762 400 812 q 361 648 400 708 q 279 550 321 587 q 184 473 237 513 q 129 431 132 434 q 127 427 127 430 q 129 426 127 426 l 286 426 q 327 441 311 426 q 352 471 343 456 q 366 486 361 486 q 388 479 381 486 q 330 345 365 438 l 190 345 l 26 345 q 18 372 18 353 q 23 391 18 377 q 293 735 293 640 q 279 781 293 762 q 237 800 266 800 q 192 785 218 800 q 146 755 165 770 q 125 741 127 741 q 117 751 122 741 q 111 769 111 762 q 115 785 111 779 q 183 843 130 810 q 289 876 236 876 z "},"":{"ha":399,"x_min":15,"x_max":377,"o":"m 144 382 q 232 430 198 382 q 266 530 266 477 q 191 600 266 600 q 144 595 174 600 q 138 616 138 606 q 149 636 138 631 q 217 662 189 644 q 257 701 245 680 q 273 736 269 722 q 278 764 278 751 q 264 796 278 784 q 233 808 251 808 q 172 783 205 808 q 136 758 138 758 q 123 774 129 758 q 122 795 118 791 q 197 852 151 829 q 290 876 244 876 q 349 855 321 876 q 377 795 377 834 q 342 710 377 749 q 263 648 307 671 q 331 621 294 648 q 368 544 368 593 q 292 399 368 465 q 109 334 217 334 q 47 345 79 334 q 15 370 16 355 q 31 410 15 391 q 68 429 47 429 q 103 406 84 429 q 144 382 122 382 z "},"":{"ha":324,"x_min":56,"x_max":302,"o":"m 255 930 q 302 901 302 930 q 195 790 302 869 q 71 711 87 711 q 60 720 65 711 q 56 734 56 728 q 115 816 56 742 q 199 914 174 890 q 255 930 217 930 z "},"":{"ha":606,"x_min":11,"x_max":625,"o":"m 229 600 q 269 580 241 600 q 293 548 296 560 q 227 347 281 486 l 212 302 q 201 163 194 222 q 239 104 208 104 q 415 289 334 104 q 433 365 415 292 q 467 510 450 438 q 483 582 483 582 q 525 600 502 600 q 574 579 551 597 q 594 548 598 562 q 522 334 586 496 l 510 302 q 492 159 488 220 q 534 98 495 98 q 579 112 555 98 q 616 140 604 126 q 625 125 618 140 q 624 103 628 114 q 564 26 604 58 q 488 -5 525 -5 q 435 47 449 -4 q 426 174 420 99 q 325 39 376 90 q 217 -12 274 -12 q 201 -10 208 -12 q 189 -3 194 -8 q 180 7 183 3 q 173 21 176 12 q 168 35 170 30 q 163 53 165 41 q 161 70 161 65 q 159 87 160 75 q 157 103 157 100 q 146 46 157 99 q 125 -57 134 -7 q 119 -168 117 -107 q 141 -260 121 -229 q 114 -288 137 -273 q 75 -304 91 -304 q 28 -267 46 -304 q 11 -176 11 -231 q 123 277 11 -90 q 136 346 127 296 q 144 404 144 396 q 178 572 153 441 q 201 590 184 581 q 229 600 218 600 z "},"":{"ha":528,"x_min":20,"x_max":536,"o":"m 237 372 l 180 72 q 183 64 179 68 q 191 61 187 61 q 216 64 201 52 q 259 217 237 103 q 292 385 270 254 q 273 385 289 388 q 253 380 267 385 q 237 372 239 376 m 248 884 q 317 882 285 884 q 387 879 350 879 q 462 881 425 879 q 518 884 499 883 l 536 887 q 535 873 537 884 q 530 860 533 863 q 518 853 528 859 q 500 842 509 848 q 488 833 492 837 q 458 802 477 826 q 433 749 439 777 q 419 686 429 731 q 401 597 410 640 q 386 513 393 553 q 378 472 378 473 q 381 467 378 467 l 411 473 q 425 470 411 472 q 438 467 438 468 q 423 441 438 452 q 389 414 415 422 q 378 411 388 414 q 369 407 369 408 q 351 321 363 388 q 338 241 338 254 q 334 144 335 213 q 339 52 334 76 q 359 37 340 45 q 378 27 378 28 q 374 9 378 18 q 324 4 355 8 q 270 -1 293 0 q 91 -1 179 0 q 55 9 77 0 q 20 16 33 18 q 40 22 26 16 q 56 33 54 27 q 62 57 58 39 q 73 99 66 75 q 83 140 79 123 q 109 168 87 140 q 133 203 130 197 q 151 296 141 222 q 156 372 160 369 q 77 412 103 373 q 56 510 52 452 q 59 648 34 557 q 139 811 84 738 q 248 884 194 884 m 324 808 l 317 777 q 302 702 311 746 q 283 610 293 658 q 265 518 274 562 q 252 453 256 475 q 262 448 252 448 q 301 454 290 448 q 311 464 309 457 q 374 811 370 772 q 368 820 374 815 q 353 825 361 825 q 324 808 327 825 z "},"":{"ha":267,"x_min":42,"x_max":212,"o":"m 42 340 q 74 415 42 382 q 145 448 106 448 q 193 427 174 448 q 212 377 212 407 q 180 300 212 335 q 110 266 148 266 q 61 288 80 266 q 42 340 42 309 z "},"":{"ha":332,"x_min":47,"x_max":263,"o":"m 170 -4 l 206 -4 l 178 -41 q 208 -39 202 -39 q 248 -56 232 -39 q 263 -99 263 -73 q 222 -184 263 -141 q 106 -228 182 -228 q 50 -216 68 -228 q 47 -193 47 -208 q 56 -171 47 -179 q 72 -163 64 -163 q 98 -174 81 -163 q 129 -186 115 -186 q 178 -169 159 -186 q 197 -129 197 -152 q 188 -104 197 -114 q 165 -95 179 -95 q 125 -104 151 -95 q 117 -96 122 -104 q 113 -84 111 -88 q 138 -47 117 -76 q 170 -4 159 -19 z "},"":{"ha":342,"x_min":19,"x_max":316,"o":"m 76 777 q 304 882 302 882 q 312 869 308 882 q 316 852 316 857 q 281 741 283 754 l 227 456 q 221 422 221 429 q 228 399 221 408 q 255 386 233 392 q 286 380 277 380 q 289 372 289 380 q 281 342 289 350 q 223 345 267 342 q 156 347 179 347 q 82 345 133 347 q 20 342 31 342 q 19 349 19 343 q 22 368 19 357 q 28 378 26 378 q 67 385 41 378 q 99 399 94 392 q 121 454 114 419 l 170 707 q 175 749 175 745 q 161 765 175 765 q 83 739 153 765 q 75 748 79 741 q 71 762 71 755 q 76 777 71 774 z "},"":{"ha":426,"x_min":39,"x_max":406,"o":"m 252 705 q 177 640 216 705 q 138 498 138 574 q 193 384 138 384 q 267 452 228 384 q 305 593 305 519 q 252 705 305 705 m 271 753 q 366 707 327 753 q 406 601 406 661 q 338 416 406 496 q 174 336 271 336 q 78 383 117 336 q 39 491 39 430 q 112 672 39 591 q 271 753 184 753 z "},"":{"ha":637,"x_min":11,"x_max":604,"o":"m 133 574 q 216 486 149 552 q 359 363 283 420 q 365 345 365 353 q 349 309 365 316 q 183 204 259 256 q 75 126 107 152 q 42 99 42 100 q 22 109 34 100 q 11 125 11 117 q 26 147 11 133 q 115 227 41 161 l 237 336 l 156 446 q 91 541 91 530 q 133 574 91 557 m 372 574 q 408 533 380 563 q 491 453 437 503 q 598 363 545 403 q 604 346 604 357 q 586 309 604 316 q 425 205 500 258 q 315 127 349 153 q 281 99 281 100 q 261 109 273 100 q 250 125 250 117 q 264 147 250 133 q 354 227 279 161 l 476 336 l 396 446 q 330 541 330 530 q 372 574 330 563 z "},"":{"ha":818,"x_min":8,"x_max":787,"o":"m 65 777 q 293 882 292 882 q 301 869 297 882 q 305 852 305 857 q 300 838 305 850 q 290 812 296 826 q 279 779 285 799 q 269 741 273 758 l 214 456 q 210 422 210 435 q 216 399 210 406 q 243 386 221 392 q 274 380 264 380 q 278 372 278 380 q 270 342 278 350 q 212 345 258 342 q 144 347 167 347 q 69 345 119 347 q 8 342 19 342 l 8 349 q 16 378 8 378 q 55 385 28 378 q 87 399 81 392 q 109 454 102 419 l 157 707 q 163 749 163 745 q 151 765 163 765 q 72 739 142 765 q 63 749 68 741 q 58 762 58 757 q 65 777 58 773 m 774 837 l 171 -19 q 143 -11 163 -19 q 123 7 123 -3 q 126 15 123 12 l 730 872 q 755 864 735 873 q 776 845 776 854 q 774 837 776 838 m 736 528 q 760 538 747 538 q 787 529 788 538 l 724 218 l 724 217 q 730 214 724 214 l 760 214 q 769 197 769 214 q 754 146 769 159 l 716 146 q 711 138 713 146 l 682 1 q 635 -5 669 -5 q 616 -5 625 -5 q 602 -3 608 -4 q 591 0 595 -1 q 585 3 587 1 q 583 5 583 4 l 609 141 l 610 142 q 605 146 610 146 l 412 146 q 404 179 403 156 l 736 528 m 505 214 l 616 214 q 624 220 623 214 l 656 374 q 654 382 656 382 l 651 381 l 502 224 q 500 220 500 222 q 505 214 500 214 z "},"":{"ha":898,"x_min":8,"x_max":867,"o":"m 650 500 q 676 517 650 500 q 754 533 703 533 q 836 501 806 533 q 867 419 867 469 q 827 304 867 365 q 746 207 788 244 q 651 130 704 170 q 595 88 598 91 q 593 83 593 85 q 595 80 593 80 l 753 80 q 793 96 777 80 q 818 126 810 111 q 831 141 826 141 q 854 136 850 141 q 796 0 833 98 l 655 1 q 492 0 495 0 q 483 28 483 9 q 488 46 483 33 q 760 391 760 297 q 745 437 760 418 q 703 457 731 457 q 658 441 684 457 q 613 411 632 426 q 591 396 594 396 q 583 408 589 396 q 578 426 578 419 q 582 442 578 437 q 650 500 597 468 m 65 777 q 293 882 292 882 q 301 869 297 882 q 305 852 305 857 q 300 838 305 850 q 290 812 296 826 q 279 779 285 799 q 269 741 273 758 l 214 456 q 210 422 210 435 q 216 399 210 406 q 243 386 221 392 q 274 380 264 380 q 278 372 278 380 q 270 342 278 350 q 212 345 258 342 q 144 347 167 347 q 69 345 119 347 q 8 342 19 342 l 8 349 q 16 378 8 378 q 55 385 28 378 q 87 399 81 392 q 109 454 102 419 l 157 707 q 163 749 163 745 q 151 765 163 765 q 72 739 142 765 q 63 749 68 741 q 58 762 58 757 q 65 777 58 773 m 774 837 l 171 -19 q 143 -11 163 -19 q 123 7 123 -3 q 126 15 123 12 l 730 872 q 755 864 735 873 q 776 845 776 854 q 774 837 776 838 z "},"":{"ha":838,"x_min":7,"x_max":807,"o":"m 136 382 q 224 430 190 382 q 258 530 258 477 q 183 600 258 600 q 136 595 165 600 q 130 616 130 606 q 141 636 130 631 q 209 662 180 644 q 249 701 237 680 q 265 736 260 722 q 270 764 270 751 q 256 796 270 784 q 225 808 243 808 q 163 783 197 808 q 127 758 130 758 q 116 774 121 758 q 114 795 111 791 q 189 852 142 829 q 282 876 236 876 q 341 855 313 876 q 369 795 369 834 q 334 710 369 749 q 255 648 298 671 q 323 621 286 648 q 359 544 359 593 q 284 399 359 465 q 100 334 209 334 q 39 345 71 334 q 7 370 8 355 q 22 410 7 391 q 58 429 38 429 q 95 406 76 429 q 136 382 114 382 m 795 837 l 191 -19 q 163 -11 183 -19 q 144 7 144 -3 q 146 15 144 12 l 750 872 q 776 864 755 873 q 796 845 796 854 q 795 837 796 838 m 757 528 q 780 538 768 538 q 807 529 808 538 l 745 218 l 745 217 q 750 214 745 214 l 780 214 q 789 197 789 214 q 774 146 789 159 l 736 146 q 731 138 734 146 l 703 1 q 655 -5 689 -5 q 637 -5 646 -5 q 622 -3 628 -4 q 612 0 616 -1 q 606 3 608 1 q 604 5 604 4 l 629 141 l 631 142 q 625 146 631 146 l 433 146 q 425 179 423 156 l 757 528 m 525 214 l 636 214 q 644 220 643 214 l 677 374 q 674 382 677 382 l 671 381 l 522 224 q 521 220 521 222 q 525 214 521 214 z "},"":{"ha":453,"x_min":3,"x_max":430,"o":"m 430 526 q 399 451 430 483 q 330 419 368 419 q 280 439 300 419 q 260 490 260 458 q 292 566 260 532 q 362 600 324 600 q 410 578 391 600 q 430 526 430 557 m 221 304 q 237 328 221 319 q 326 284 270 328 q 382 190 382 240 q 308 62 382 104 l 159 -24 q 88 -117 88 -62 q 107 -172 88 -151 q 163 -194 126 -194 q 214 -162 187 -194 q 260 -130 241 -130 q 308 -159 293 -130 q 316 -222 323 -187 q 210 -283 283 -283 q 64 -229 126 -283 q 3 -98 3 -174 q 83 65 3 15 q 232 153 127 95 q 281 222 281 180 q 266 258 281 240 q 236 287 251 275 q 221 304 221 298 z "},"":{"ha":879,"x_min":-16,"x_max":840,"o":"m 644 970 q 509 1010 617 970 q 400 1074 400 1050 q 426 1105 400 1095 q 487 1116 452 1116 q 521 1109 507 1116 q 609 1042 556 1088 q 662 989 662 997 q 656 976 662 982 q 644 970 650 970 m 438 313 q 311 309 388 313 q 302 304 305 309 q 265 243 296 292 q 225 178 235 194 q 183 81 183 107 q 216 48 183 60 q 264 37 248 37 q 267 30 267 37 q 259 -4 267 12 q 205 1 244 -3 q 134 4 167 4 q 52 1 100 4 q -14 -4 4 -3 q -16 5 -16 1 q -8 37 -16 37 q 43 50 7 37 q 90 79 79 64 q 157 184 109 102 l 533 827 q 604 901 575 901 q 617 895 612 901 l 745 184 q 764 85 749 163 q 795 51 768 65 q 837 37 823 37 q 840 28 840 37 q 834 -4 840 7 q 680 4 684 4 q 510 -4 665 4 q 509 4 509 -3 q 517 37 509 37 q 557 47 530 37 q 591 68 585 57 q 600 109 600 84 q 572 302 600 121 q 566 309 572 309 q 438 313 541 313 m 454 387 q 552 391 494 387 q 557 396 557 391 q 534 536 553 423 q 513 667 515 648 l 357 393 l 357 391 q 454 387 397 387 z "},"":{"ha":879,"x_min":-16,"x_max":840,"o":"m 562 970 q 550 977 556 970 q 544 990 544 983 q 597 1043 544 998 q 686 1109 650 1088 q 719 1116 700 1116 q 781 1105 754 1116 q 807 1074 807 1095 q 698 1010 807 1050 q 562 970 589 970 m 438 313 q 311 309 388 313 q 302 304 305 309 q 265 243 296 292 q 225 178 235 194 q 183 81 183 107 q 216 48 183 60 q 264 37 248 37 q 267 30 267 37 q 259 -4 267 12 q 205 1 244 -3 q 134 4 167 4 q 52 1 100 4 q -14 -4 4 -3 q -16 5 -16 1 q -8 37 -16 37 q 43 50 7 37 q 90 79 79 64 q 157 184 109 102 l 533 827 q 604 901 575 901 q 617 895 612 901 l 745 184 q 764 85 749 163 q 795 51 768 65 q 837 37 823 37 q 840 28 840 37 q 834 -4 840 7 q 680 4 684 4 q 510 -4 665 4 q 509 4 509 -3 q 517 37 509 37 q 557 47 530 37 q 591 68 585 57 q 600 109 600 84 q 572 302 600 121 q 566 309 572 309 q 438 313 541 313 m 454 387 q 552 391 494 387 q 557 396 557 391 q 534 536 553 423 q 513 667 515 648 l 357 393 l 357 391 q 454 387 397 387 z "},"":{"ha":879,"x_min":-16,"x_max":840,"o":"m 728 987 q 585 1069 703 987 q 481 1016 544 1044 q 407 987 419 987 q 399 1013 391 987 q 438 1041 400 1015 q 513 1096 476 1067 q 587 1160 557 1130 q 606 1172 602 1172 q 624 1160 617 1172 q 642 1133 627 1154 q 667 1097 656 1111 q 706 1055 686 1074 q 736 1025 726 1035 q 749 1013 747 1015 q 728 987 742 987 m 438 313 q 311 309 388 313 q 302 304 305 309 q 265 243 296 292 q 225 178 235 194 q 183 81 183 107 q 216 48 183 60 q 264 37 248 37 q 267 30 267 37 q 259 -4 267 12 q 205 1 244 -3 q 134 4 167 4 q 52 1 100 4 q -14 -4 4 -3 q -16 5 -16 1 q -8 37 -16 37 q 43 50 7 37 q 90 79 79 64 q 157 184 109 102 l 533 827 q 604 901 575 901 q 617 895 612 901 l 745 184 q 764 85 749 163 q 795 51 768 65 q 837 37 823 37 q 840 28 840 37 q 834 -4 840 7 q 680 4 684 4 q 510 -4 665 4 q 509 4 509 -3 q 517 37 509 37 q 557 47 530 37 q 591 68 585 57 q 600 109 600 84 q 572 302 600 121 q 566 309 572 309 q 438 313 541 313 m 454 387 q 552 391 494 387 q 557 396 557 391 q 534 536 553 423 q 513 667 515 648 l 357 393 l 357 391 q 454 387 397 387 z "},"":{"ha":879,"x_min":-16,"x_max":840,"o":"m 374 1001 q 370 1027 363 1001 q 403 1086 377 1055 q 519 1149 461 1149 q 627 1107 564 1149 q 734 1066 689 1066 q 794 1101 757 1066 q 834 1135 831 1135 q 838 1108 844 1135 q 804 1048 836 1085 q 690 987 751 987 q 583 1029 644 987 q 476 1070 522 1070 q 416 1036 454 1070 q 374 1001 378 1001 m 438 313 q 311 309 388 313 q 302 304 305 309 q 265 243 296 292 q 225 178 235 194 q 183 81 183 107 q 216 48 183 60 q 264 37 248 37 q 267 30 267 37 q 259 -4 267 12 q 205 1 244 -3 q 134 4 167 4 q 52 1 100 4 q -14 -4 4 -3 q -16 5 -16 1 q -8 37 -16 37 q 43 50 7 37 q 90 79 79 64 q 157 184 109 102 l 533 827 q 604 901 575 901 q 617 895 612 901 l 745 184 q 764 85 749 163 q 795 51 768 65 q 837 37 823 37 q 840 28 840 37 q 834 -4 840 7 q 680 4 684 4 q 510 -4 665 4 q 509 4 509 -3 q 517 37 509 37 q 557 47 530 37 q 591 68 585 57 q 600 109 600 84 q 572 302 600 121 q 566 309 572 309 q 438 313 541 313 m 454 387 q 552 391 494 387 q 557 396 557 391 q 534 536 553 423 q 513 667 515 648 l 357 393 l 357 391 q 454 387 397 387 z "},"":{"ha":879,"x_min":-16,"x_max":840,"o":"m 678 1072 q 712 1131 684 1105 q 773 1156 741 1156 q 824 1131 806 1156 q 836 1072 842 1107 q 802 1013 830 1038 q 741 987 773 987 q 690 1012 708 987 q 678 1072 671 1036 m 431 1012 q 422 1024 431 1012 q 420 1072 414 1036 q 454 1131 427 1107 q 514 1156 481 1156 q 566 1131 547 1156 q 578 1072 585 1107 q 543 1013 572 1038 q 481 987 514 987 q 431 1012 449 987 m 438 313 q 311 309 388 313 q 302 304 305 309 q 265 243 296 292 q 225 178 235 194 q 183 81 183 107 q 216 48 183 60 q 264 37 248 37 q 267 30 267 37 q 259 -4 267 12 q 205 1 244 -3 q 134 4 167 4 q 52 1 100 4 q -14 -4 4 -3 q -16 5 -16 1 q -8 37 -16 37 q 43 50 7 37 q 90 79 79 64 q 157 184 109 102 l 533 827 q 604 901 575 901 q 617 895 612 901 l 745 184 q 764 85 749 163 q 795 51 768 65 q 837 37 823 37 q 840 28 840 37 q 834 -4 840 7 q 680 4 684 4 q 510 -4 665 4 q 509 4 509 -3 q 517 37 509 37 q 557 47 530 37 q 591 68 585 57 q 600 109 600 84 q 572 302 600 121 q 566 309 572 309 q 438 313 541 313 m 454 387 q 552 391 494 387 q 557 396 557 391 q 534 536 553 423 q 513 667 515 648 l 357 393 l 357 391 q 454 387 397 387 z "},"":{"ha":879,"x_min":-16,"x_max":840,"o":"m 629 1108 q 567 1079 593 1108 q 541 1013 541 1050 q 557 968 541 986 q 600 951 572 951 q 661 980 635 951 q 686 1046 686 1009 q 671 1090 686 1073 q 629 1108 656 1108 m 640 1162 q 713 1132 685 1162 q 741 1055 741 1101 q 693 944 741 993 q 589 895 646 895 q 515 926 544 895 q 487 1004 487 958 q 536 1115 487 1067 q 640 1162 585 1162 m 438 313 q 311 309 388 313 q 302 304 305 309 q 265 243 296 292 q 225 178 235 194 q 183 81 183 107 q 216 48 183 60 q 264 37 248 37 q 267 30 267 37 q 259 -4 267 12 q 205 1 244 -3 q 134 4 167 4 q 52 1 100 4 q -14 -4 4 -3 q -16 5 -16 1 q -8 37 -16 37 q 43 50 7 37 q 90 79 79 64 q 157 184 109 102 l 533 827 q 604 901 575 901 q 617 895 612 901 l 745 184 q 764 85 749 163 q 795 51 768 65 q 837 37 823 37 q 840 28 840 37 q 834 -4 840 7 q 680 4 684 4 q 510 -4 665 4 q 509 4 509 -3 q 517 37 509 37 q 557 47 530 37 q 591 68 585 57 q 600 109 600 84 q 572 302 600 121 q 566 309 572 309 q 438 313 541 313 m 454 387 q 552 391 494 387 q 557 396 557 391 q 534 536 553 423 q 513 667 515 648 l 357 393 l 357 391 q 454 387 397 387 z "},"":{"ha":1184,"x_min":-18,"x_max":1173,"o":"m 750 891 q 954 896 806 891 q 1173 901 1103 901 q 1170 840 1172 879 q 1166 768 1168 800 q 1165 709 1165 736 q 1138 703 1158 703 q 1122 712 1122 703 q 1078 804 1116 776 q 990 831 1039 831 l 916 831 q 818 814 823 831 q 799 694 807 779 l 777 486 l 777 484 q 826 475 777 475 l 882 475 q 971 486 955 475 q 1013 564 987 496 q 1035 574 1017 574 q 1058 567 1054 574 q 1041 446 1051 538 q 1028 309 1031 354 q 1004 304 1023 304 q 986 313 987 304 q 983 339 985 328 q 981 357 982 350 q 977 371 979 365 q 975 380 975 377 q 971 387 974 384 q 968 390 968 389 q 963 393 967 391 l 960 396 q 844 407 945 407 q 769 393 770 407 l 750 201 q 745 90 742 113 q 829 66 747 66 l 856 66 q 1009 98 947 66 q 1105 225 1057 122 q 1126 233 1109 233 q 1158 225 1153 233 q 1058 -4 1082 66 q 850 -1 987 -4 q 658 3 713 3 l 484 -5 q 481 11 481 0 q 486 32 481 20 q 492 43 490 43 q 539 52 507 43 q 576 71 571 61 q 600 182 591 100 q 613 334 600 186 q 605 342 616 342 q 500 345 564 345 q 392 342 473 345 q 381 336 387 342 q 262 178 298 221 q 247 157 256 170 q 232 138 237 145 q 220 122 227 132 q 210 106 214 113 q 203 94 206 100 q 198 83 199 88 q 197 75 197 79 q 210 54 197 62 q 275 37 243 37 q 277 33 277 37 q 266 -5 277 12 q 210 -1 254 -4 q 134 3 167 3 q 52 -1 100 3 q -15 -5 3 -4 q -18 8 -18 0 q -14 25 -18 15 q -7 35 -9 35 q 41 47 8 35 q 91 76 73 58 q 183 184 127 113 l 609 732 q 663 814 661 789 q 654 839 665 831 q 625 846 643 846 q 618 857 618 846 q 629 892 618 886 l 651 892 q 702 892 673 892 q 750 891 731 891 m 655 689 q 449 423 484 473 l 449 418 q 532 415 473 415 q 618 418 585 415 q 623 420 620 418 q 625 425 625 423 l 655 689 z "},"":{"ha":827,"x_min":34,"x_max":833,"o":"m 372 -41 q 404 -41 372 -41 q 451 -64 434 -41 q 461 -119 468 -87 q 405 -209 450 -175 q 296 -243 359 -243 q 239 -222 259 -243 q 241 -198 239 -214 q 260 -176 247 -176 q 285 -187 266 -176 q 320 -198 304 -198 q 368 -184 350 -198 q 391 -149 387 -170 q 386 -113 395 -127 q 361 -99 377 -99 q 316 -109 339 -99 q 307 -100 313 -109 q 304 -87 301 -91 q 338 -38 315 -72 q 363 -1 362 -4 l 403 -1 l 372 -41 m 548 905 q 833 854 663 905 q 823 764 833 846 q 811 670 814 681 q 777 650 807 650 q 760 654 765 650 q 751 703 758 678 q 724 762 745 728 q 656 817 704 796 q 540 838 609 838 q 299 690 404 838 q 194 343 194 543 q 254 137 194 217 q 430 57 315 57 q 614 103 543 57 q 666 151 643 122 q 700 198 689 179 q 712 217 711 217 q 730 209 718 217 q 745 193 743 201 q 730 155 743 190 q 705 92 718 121 q 685 54 693 62 q 575 9 655 26 q 406 -8 495 -8 q 135 98 236 -8 q 34 357 34 205 q 106 618 34 491 q 299 825 179 746 q 548 905 419 905 z "},"":{"ha":738,"x_min":-11,"x_max":730,"o":"m 555 970 q 419 1010 528 970 q 311 1074 311 1050 q 336 1105 311 1095 q 397 1116 362 1116 q 431 1109 418 1116 q 519 1042 467 1088 q 572 989 572 997 q 566 976 572 982 q 555 970 560 970 m 326 892 q 528 896 388 891 q 730 901 669 901 q 727 812 727 871 q 728 760 727 795 q 728 708 728 726 q 701 701 722 701 q 685 711 685 701 q 543 831 669 831 l 481 831 q 388 814 393 831 q 361 716 366 753 l 320 492 q 323 488 320 490 q 335 485 327 486 q 352 484 343 484 q 372 483 361 483 l 456 483 q 532 495 517 483 q 576 572 548 507 q 597 583 581 583 q 620 575 614 583 l 571 317 q 547 312 566 312 q 529 323 530 312 q 510 403 526 387 q 393 415 496 415 q 301 404 304 415 l 262 198 q 250 100 250 140 q 261 72 250 77 q 331 66 273 66 l 378 66 q 534 95 477 66 q 589 142 556 106 q 646 225 621 178 q 665 233 650 233 q 697 225 692 233 q 585 -4 597 31 q 361 -1 513 -4 q 156 3 209 3 l -8 -4 q -11 8 -11 -1 q -1 37 -11 37 q 45 48 12 37 q 84 71 79 60 q 117 187 103 111 l 217 703 q 231 818 233 785 q 200 843 229 829 q 157 857 171 857 q 156 863 156 857 q 164 898 156 890 q 326 892 241 892 z "},"":{"ha":738,"x_min":-11,"x_max":730,"o":"m 419 970 q 408 977 414 970 q 401 990 401 983 q 454 1043 401 998 q 544 1109 507 1088 q 576 1116 557 1116 q 638 1105 612 1116 q 665 1074 665 1095 q 555 1010 665 1050 q 419 970 446 970 m 326 892 q 528 896 388 891 q 730 901 669 901 q 727 812 727 871 q 728 760 727 795 q 728 708 728 726 q 701 701 722 701 q 685 711 685 701 q 543 831 669 831 l 481 831 q 388 814 393 831 q 361 716 366 753 l 320 492 q 323 488 320 490 q 335 485 327 486 q 352 484 343 484 q 372 483 361 483 l 456 483 q 532 495 517 483 q 576 572 548 507 q 597 583 581 583 q 620 575 614 583 l 571 317 q 547 312 566 312 q 529 323 530 312 q 510 403 526 387 q 393 415 496 415 q 301 404 304 415 l 262 198 q 250 100 250 140 q 261 72 250 77 q 331 66 273 66 l 378 66 q 534 95 477 66 q 589 142 556 106 q 646 225 621 178 q 665 233 650 233 q 697 225 692 233 q 585 -4 597 31 q 361 -1 513 -4 q 156 3 209 3 l -8 -4 q -11 8 -11 -1 q -1 37 -11 37 q 45 48 12 37 q 84 71 79 60 q 117 187 103 111 l 217 703 q 231 818 233 785 q 200 843 229 829 q 157 857 171 857 q 156 863 156 857 q 164 898 156 890 q 326 892 241 892 z "},"":{"ha":738,"x_min":-11,"x_max":730,"o":"m 637 987 q 494 1069 612 987 q 391 1016 453 1044 q 316 987 328 987 q 308 1013 300 987 q 347 1041 309 1015 q 422 1096 385 1067 q 496 1160 467 1130 q 515 1172 511 1172 q 533 1160 526 1172 q 551 1133 536 1154 q 576 1097 566 1111 q 615 1055 595 1074 q 646 1025 635 1035 q 658 1013 656 1015 q 637 987 651 987 m 326 892 q 528 896 388 891 q 730 901 669 901 q 727 812 727 871 q 728 760 727 795 q 728 708 728 726 q 701 701 722 701 q 685 711 685 701 q 543 831 669 831 l 481 831 q 388 814 393 831 q 361 716 366 753 l 320 492 q 323 488 320 490 q 335 485 327 486 q 352 484 343 484 q 372 483 361 483 l 456 483 q 532 495 517 483 q 576 572 548 507 q 597 583 581 583 q 620 575 614 583 l 571 317 q 547 312 566 312 q 529 323 530 312 q 510 403 526 387 q 393 415 496 415 q 301 404 304 415 l 262 198 q 250 100 250 140 q 261 72 250 77 q 331 66 273 66 l 378 66 q 534 95 477 66 q 589 142 556 106 q 646 225 621 178 q 665 233 650 233 q 697 225 692 233 q 585 -4 597 31 q 361 -1 513 -4 q 156 3 209 3 l -8 -4 q -11 8 -11 -1 q -1 37 -11 37 q 45 48 12 37 q 84 71 79 60 q 117 187 103 111 l 217 703 q 231 818 233 785 q 200 843 229 829 q 157 857 171 857 q 156 863 156 857 q 164 898 156 890 q 326 892 241 892 z "},"":{"ha":738,"x_min":-11,"x_max":730,"o":"m 544 1072 q 578 1131 549 1105 q 639 1156 606 1156 q 690 1131 671 1156 q 701 1072 708 1107 q 667 1013 696 1038 q 606 987 639 987 q 555 1012 574 987 q 544 1072 537 1036 m 297 1012 q 288 1024 297 1012 q 286 1072 279 1036 q 320 1131 293 1107 q 380 1156 347 1156 q 431 1131 412 1156 q 444 1072 450 1107 q 409 1013 438 1038 q 347 987 380 987 q 297 1012 315 987 m 326 892 q 528 896 388 891 q 730 901 669 901 q 727 812 727 871 q 728 760 727 795 q 728 708 728 726 q 701 701 722 701 q 685 711 685 701 q 543 831 669 831 l 481 831 q 388 814 393 831 q 361 716 366 753 l 320 492 q 323 488 320 490 q 335 485 327 486 q 352 484 343 484 q 372 483 361 483 l 456 483 q 532 495 517 483 q 576 572 548 507 q 597 583 581 583 q 620 575 614 583 l 571 317 q 547 312 566 312 q 529 323 530 312 q 510 403 526 387 q 393 415 496 415 q 301 404 304 415 l 262 198 q 250 100 250 140 q 261 72 250 77 q 331 66 273 66 l 378 66 q 534 95 477 66 q 589 142 556 106 q 646 225 621 178 q 665 233 650 233 q 697 225 692 233 q 585 -4 597 31 q 361 -1 513 -4 q 156 3 209 3 l -8 -4 q -11 8 -11 -1 q -1 37 -11 37 q 45 48 12 37 q 84 71 79 60 q 117 187 103 111 l 217 703 q 231 818 233 785 q 200 843 229 829 q 157 857 171 857 q 156 863 156 857 q 164 898 156 890 q 326 892 241 892 z "},"":{"ha":475,"x_min":-11,"x_max":484,"o":"m 431 970 q 296 1010 404 970 q 187 1074 187 1050 q 213 1105 187 1095 q 274 1116 239 1116 q 308 1109 294 1116 q 396 1042 343 1088 q 449 989 449 997 q 443 976 449 982 q 431 970 437 970 m 358 704 l 259 189 q 244 73 244 106 q 273 47 244 58 q 315 37 302 37 q 317 30 317 37 q 308 -4 317 12 q 152 4 157 4 q 61 0 118 4 q -8 -4 4 -4 q -11 5 -11 -1 q -3 37 -11 37 q 44 45 14 37 q 81 66 75 54 q 117 187 103 109 l 217 705 q 231 817 231 776 q 203 846 231 834 q 160 857 176 857 q 157 863 157 857 q 167 898 157 888 q 323 891 309 891 q 484 898 355 891 l 484 892 q 475 857 484 857 q 431 846 464 857 q 392 825 397 834 q 358 704 378 795 z "},"":{"ha":475,"x_min":-11,"x_max":498,"o":"m 252 970 q 241 977 247 970 q 235 990 235 983 q 288 1043 235 998 q 377 1109 340 1088 q 410 1116 391 1116 q 471 1105 445 1116 q 498 1074 498 1095 q 389 1010 498 1050 q 252 970 279 970 m 358 704 l 259 189 q 244 73 244 106 q 273 47 244 58 q 315 37 302 37 q 317 30 317 37 q 308 -4 317 12 q 152 4 157 4 q 61 0 118 4 q -8 -4 4 -4 q -11 5 -11 -1 q -3 37 -11 37 q 44 45 14 37 q 81 66 75 54 q 117 187 103 109 l 217 705 q 231 817 231 776 q 203 846 231 834 q 160 857 176 857 q 157 863 157 857 q 167 898 157 888 q 323 891 309 891 q 484 898 355 891 l 484 892 q 475 857 484 857 q 431 846 464 857 q 392 825 397 834 q 358 704 378 795 z "},"":{"ha":475,"x_min":-11,"x_max":518,"o":"m 498 987 q 354 1069 472 987 q 251 1016 313 1044 q 176 987 189 987 q 168 1013 160 987 q 208 1041 170 1015 q 282 1096 245 1067 q 357 1160 327 1130 q 376 1172 372 1172 q 393 1160 387 1172 q 411 1133 396 1154 q 437 1097 426 1111 q 475 1055 456 1074 q 506 1025 495 1035 q 518 1013 517 1015 q 498 987 511 987 m 358 704 l 259 189 q 244 73 244 106 q 273 47 244 58 q 315 37 302 37 q 317 30 317 37 q 308 -4 317 12 q 152 4 157 4 q 61 0 118 4 q -8 -4 4 -4 q -11 5 -11 -1 q -3 37 -11 37 q 44 45 14 37 q 81 66 75 54 q 117 187 103 109 l 217 705 q 231 817 231 776 q 203 846 231 834 q 160 857 176 857 q 157 863 157 857 q 167 898 157 888 q 323 891 309 891 q 484 898 355 891 l 484 892 q 475 857 484 857 q 431 846 464 857 q 392 825 397 834 q 358 704 378 795 z "},"":{"ha":475,"x_min":-11,"x_max":557,"o":"m 400 1072 q 434 1131 406 1105 q 495 1156 463 1156 q 546 1131 528 1156 q 557 1072 564 1107 q 524 1013 552 1038 q 463 987 495 987 q 412 1012 430 987 q 400 1072 393 1036 m 153 1012 q 144 1024 153 1012 q 142 1072 136 1036 q 176 1131 149 1107 q 236 1156 203 1156 q 288 1131 269 1156 q 300 1072 307 1107 q 265 1013 294 1038 q 203 987 236 987 q 153 1012 171 987 m 358 704 l 259 189 q 244 73 244 106 q 273 47 244 58 q 315 37 302 37 q 317 30 317 37 q 308 -4 317 12 q 152 4 157 4 q 61 0 118 4 q -8 -4 4 -4 q -11 5 -11 -1 q -3 37 -11 37 q 44 45 14 37 q 81 66 75 54 q 117 187 103 109 l 217 705 q 231 817 231 776 q 203 846 231 834 q 160 857 176 857 q 157 863 157 857 q 167 898 157 888 q 323 891 309 891 q 484 898 355 891 l 484 892 q 475 857 484 857 q 431 846 464 857 q 392 825 397 834 q 358 704 378 795 z "},"":{"ha":936,"x_min":-5,"x_max":911,"o":"m 547 825 q 400 803 419 825 q 366 708 376 773 l 324 496 l 480 496 q 488 476 488 496 q 477 435 488 458 q 458 404 467 411 l 307 404 l 266 187 q 260 87 248 99 q 410 65 278 65 q 637 189 547 65 q 749 511 728 313 q 712 736 762 647 q 547 825 662 825 m 552 892 q 821 795 730 892 q 911 548 911 697 q 876 360 911 456 q 774 182 840 264 q 605 48 709 100 q 376 -4 500 -4 q 279 -1 351 -4 q 161 3 208 3 l -3 -5 q -5 8 -5 -3 q -1 31 -5 18 q 5 43 3 43 q 53 52 22 43 q 90 71 84 60 q 122 187 109 111 l 164 404 l 72 404 q 64 423 64 404 q 75 465 64 441 q 94 496 85 490 l 182 496 l 222 703 q 236 818 239 785 q 205 840 235 829 q 163 852 176 852 q 161 857 161 852 q 174 898 161 886 q 331 892 247 892 l 552 892 z "},"":{"ha":1035,"x_min":-9,"x_max":1044,"o":"m 358 1001 q 354 1027 347 1001 q 387 1086 361 1055 q 503 1149 445 1149 q 610 1107 548 1149 q 718 1066 673 1066 q 778 1101 741 1066 q 818 1135 815 1135 q 822 1108 827 1135 q 788 1048 819 1085 q 674 987 735 987 q 567 1029 628 987 q 460 1070 506 1070 q 400 1036 438 1070 q 358 1001 362 1001 m 330 892 q 456 898 401 892 q 468 858 460 880 q 489 805 476 836 q 513 748 502 774 q 545 680 525 722 q 578 612 566 639 q 616 535 591 585 q 654 461 642 486 q 694 382 666 437 q 731 308 722 328 q 745 363 738 326 l 810 703 q 823 803 823 781 q 782 841 823 825 q 720 857 741 857 q 718 865 718 857 q 727 898 718 891 q 886 892 841 892 q 1044 898 941 892 q 1035 857 1044 857 q 979 844 1020 857 q 921 814 937 831 q 886 703 901 783 l 784 187 q 764 72 774 142 q 753 -3 754 1 q 728 -8 747 -8 q 694 22 713 -8 q 340 749 406 600 l 229 191 q 216 94 216 123 q 256 52 216 66 q 316 37 297 37 q 319 30 319 37 q 311 -4 319 12 q 153 3 184 3 q -7 -4 138 3 q -9 7 -9 1 q -7 20 -9 14 q -3 32 -5 27 q 0 37 -1 37 q 63 49 20 37 q 119 81 106 61 q 153 195 134 107 l 256 713 q 267 815 267 768 q 230 846 267 834 q 172 857 193 857 q 168 865 168 857 q 178 898 168 891 q 330 892 286 892 z "},"":{"ha":890,"x_min":35,"x_max":865,"o":"m 583 970 q 448 1010 556 970 q 339 1074 339 1050 q 365 1105 339 1095 q 426 1116 391 1116 q 460 1109 446 1116 q 548 1042 495 1088 q 601 989 601 997 q 595 976 601 982 q 583 970 589 970 m 507 838 q 288 690 380 838 q 195 342 195 541 q 245 136 195 217 q 393 54 296 54 q 561 141 487 54 q 670 342 635 228 q 705 563 705 456 q 656 761 705 684 q 507 838 606 838 m 540 905 q 773 802 681 905 q 865 548 865 700 q 793 274 865 404 q 604 65 722 144 q 358 -14 487 -14 q 125 90 214 -14 q 35 350 35 193 q 109 621 35 491 q 300 827 183 750 q 540 905 416 905 z "},"":{"ha":890,"x_min":35,"x_max":865,"o":"m 441 970 q 429 977 435 970 q 423 990 423 983 q 476 1043 423 998 q 566 1109 529 1088 q 598 1116 579 1116 q 660 1105 633 1116 q 686 1074 686 1095 q 577 1010 686 1050 q 441 970 468 970 m 507 838 q 288 690 380 838 q 195 342 195 541 q 245 136 195 217 q 393 54 296 54 q 561 141 487 54 q 670 342 635 228 q 705 563 705 456 q 656 761 705 684 q 507 838 606 838 m 540 905 q 773 802 681 905 q 865 548 865 700 q 793 274 865 404 q 604 65 722 144 q 358 -14 487 -14 q 125 90 214 -14 q 35 350 35 193 q 109 621 35 491 q 300 827 183 750 q 540 905 416 905 z "},"":{"ha":890,"x_min":35,"x_max":865,"o":"m 699 987 q 555 1069 673 987 q 452 1016 514 1044 q 377 987 389 987 q 369 1013 361 987 q 408 1041 370 1015 q 483 1096 446 1067 q 557 1160 528 1130 q 576 1172 572 1172 q 594 1160 587 1172 q 612 1133 597 1154 q 637 1097 627 1111 q 676 1055 656 1074 q 707 1025 696 1035 q 719 1013 718 1015 q 699 987 712 987 m 507 838 q 288 690 380 838 q 195 342 195 541 q 245 136 195 217 q 393 54 296 54 q 561 141 487 54 q 670 342 635 228 q 705 563 705 456 q 656 761 705 684 q 507 838 606 838 m 540 905 q 773 802 681 905 q 865 548 865 700 q 793 274 865 404 q 604 65 722 144 q 358 -14 487 -14 q 125 90 214 -14 q 35 350 35 193 q 109 621 35 491 q 300 827 183 750 q 540 905 416 905 z "},"":{"ha":890,"x_min":35,"x_max":865,"o":"m 330 1001 q 326 1027 319 1001 q 358 1086 332 1055 q 475 1149 416 1149 q 582 1107 519 1149 q 689 1066 644 1066 q 749 1101 712 1066 q 789 1135 787 1135 q 793 1108 799 1135 q 760 1048 791 1085 q 646 987 707 987 q 538 1029 600 987 q 431 1070 477 1070 q 372 1036 410 1070 q 330 1001 334 1001 m 507 838 q 288 690 380 838 q 195 342 195 541 q 245 136 195 217 q 393 54 296 54 q 561 141 487 54 q 670 342 635 228 q 705 563 705 456 q 656 761 705 684 q 507 838 606 838 m 540 905 q 773 802 681 905 q 865 548 865 700 q 793 274 865 404 q 604 65 722 144 q 358 -14 487 -14 q 125 90 214 -14 q 35 350 35 193 q 109 621 35 491 q 300 827 183 750 q 540 905 416 905 z "},"":{"ha":890,"x_min":35,"x_max":865,"o":"m 617 1072 q 651 1131 623 1105 q 712 1156 680 1156 q 763 1131 745 1156 q 774 1072 781 1107 q 741 1013 769 1038 q 680 987 712 987 q 629 1012 647 987 q 617 1072 610 1036 m 370 1012 q 361 1024 370 1012 q 359 1072 353 1036 q 393 1131 366 1107 q 453 1156 420 1156 q 505 1131 486 1156 q 517 1072 524 1107 q 482 1013 511 1038 q 420 987 453 987 q 370 1012 388 987 m 507 838 q 288 690 380 838 q 195 342 195 541 q 245 136 195 217 q 393 54 296 54 q 561 141 487 54 q 670 342 635 228 q 705 563 705 456 q 656 761 705 684 q 507 838 606 838 m 540 905 q 773 802 681 905 q 865 548 865 700 q 793 274 865 404 q 604 65 722 144 q 358 -14 487 -14 q 125 90 214 -14 q 35 350 35 193 q 109 621 35 491 q 300 827 183 750 q 540 905 416 905 z "},"":{"ha":556,"x_min":22,"x_max":555,"o":"m 52 77 q 33 104 43 77 q 22 146 22 130 l 229 330 q 232 334 232 332 q 229 340 232 338 l 96 521 q 121 563 96 534 q 153 591 146 591 q 163 586 157 591 l 300 401 q 305 399 302 399 q 308 400 307 399 l 517 586 q 525 591 522 591 q 543 564 532 591 q 555 519 555 537 l 351 338 q 350 334 350 336 q 351 331 350 332 l 483 149 q 459 107 483 136 q 427 79 435 79 q 419 84 422 79 l 283 269 q 278 271 281 271 q 273 269 275 271 l 61 81 q 52 77 57 77 z "},"":{"ha":890,"x_min":35,"x_max":865,"o":"m 507 838 q 288 690 380 838 q 195 342 195 541 q 227 179 195 250 l 644 774 q 507 838 594 838 m 540 905 q 704 860 629 905 l 736 906 q 762 897 742 907 q 783 878 783 887 q 781 869 783 872 l 750 825 q 865 548 865 720 q 793 274 865 404 q 604 65 722 144 q 358 -14 487 -14 q 191 34 267 -14 l 163 -7 q 134 1 153 -7 q 115 18 115 8 q 119 27 115 23 l 146 68 q 35 350 35 171 q 109 621 35 491 q 300 827 183 750 q 540 905 416 905 m 393 54 q 561 141 487 54 q 670 342 635 228 q 705 563 705 456 q 674 719 705 652 l 255 123 q 393 54 305 54 z "},"":{"ha":905,"x_min":49,"x_max":916,"o":"m 552 970 q 416 1010 525 970 q 308 1074 308 1050 q 334 1105 308 1095 q 395 1116 359 1116 q 429 1109 415 1116 q 517 1042 464 1088 q 570 989 570 997 q 564 976 570 982 q 552 970 557 970 m 122 705 q 136 817 136 776 q 109 846 136 834 q 66 857 81 857 q 65 863 65 857 q 73 898 65 890 q 231 891 216 891 q 391 898 262 891 l 391 892 q 381 857 391 857 q 337 846 370 857 q 298 825 304 834 q 266 704 290 806 l 206 403 q 193 274 193 332 q 358 84 193 84 q 530 145 461 84 q 629 369 598 206 l 692 697 q 709 822 711 793 q 669 848 708 838 q 608 857 629 857 q 606 865 606 857 q 616 898 606 888 q 761 892 730 892 q 916 898 812 892 q 906 857 916 857 q 848 848 892 857 q 799 830 804 838 q 765 697 788 807 l 703 374 q 566 79 662 161 q 312 -3 471 -3 q 119 67 190 -3 q 49 275 49 137 q 65 412 49 327 l 122 705 z "},"":{"ha":905,"x_min":49,"x_max":916,"o":"m 363 970 q 352 977 358 970 q 346 990 346 983 q 399 1043 346 998 q 488 1109 452 1088 q 521 1116 502 1116 q 583 1105 556 1116 q 609 1074 609 1095 q 500 1010 609 1050 q 363 970 391 970 m 122 705 q 136 817 136 776 q 109 846 136 834 q 66 857 81 857 q 65 863 65 857 q 73 898 65 890 q 231 891 216 891 q 391 898 262 891 l 391 892 q 381 857 391 857 q 337 846 370 857 q 298 825 304 834 q 266 704 290 806 l 206 403 q 193 274 193 332 q 358 84 193 84 q 530 145 461 84 q 629 369 598 206 l 692 697 q 709 822 711 793 q 669 848 708 838 q 608 857 629 857 q 606 865 606 857 q 616 898 606 888 q 761 892 730 892 q 916 898 812 892 q 906 857 916 857 q 848 848 892 857 q 799 830 804 838 q 765 697 788 807 l 703 374 q 566 79 662 161 q 312 -3 471 -3 q 119 67 190 -3 q 49 275 49 137 q 65 412 49 327 l 122 705 z "},"":{"ha":905,"x_min":49,"x_max":916,"o":"m 655 987 q 511 1069 629 987 q 408 1016 471 1044 q 334 987 346 987 q 326 1013 317 987 q 365 1041 327 1015 q 439 1096 403 1067 q 514 1160 484 1130 q 533 1172 529 1172 q 551 1160 544 1172 q 568 1133 553 1154 q 594 1097 583 1111 q 633 1055 613 1074 q 663 1025 652 1035 q 675 1013 674 1015 q 655 987 669 987 m 122 705 q 136 817 136 776 q 109 846 136 834 q 66 857 81 857 q 65 863 65 857 q 73 898 65 890 q 231 891 216 891 q 391 898 262 891 l 391 892 q 381 857 391 857 q 337 846 370 857 q 298 825 304 834 q 266 704 290 806 l 206 403 q 193 274 193 332 q 358 84 193 84 q 530 145 461 84 q 629 369 598 206 l 692 697 q 709 822 711 793 q 669 848 708 838 q 608 857 629 857 q 606 865 606 857 q 616 898 606 888 q 761 892 730 892 q 916 898 812 892 q 906 857 916 857 q 848 848 892 857 q 799 830 804 838 q 765 697 788 807 l 703 374 q 566 79 662 161 q 312 -3 471 -3 q 119 67 190 -3 q 49 275 49 137 q 65 412 49 327 l 122 705 z "},"":{"ha":905,"x_min":49,"x_max":916,"o":"m 545 1072 q 579 1131 551 1105 q 640 1156 608 1156 q 691 1131 673 1156 q 703 1072 709 1107 q 669 1013 697 1038 q 608 987 640 987 q 557 1012 575 987 q 545 1072 538 1036 m 298 1012 q 290 1024 298 1012 q 288 1072 281 1036 q 321 1131 294 1107 q 381 1156 349 1156 q 433 1131 414 1156 q 445 1072 452 1107 q 410 1013 439 1038 q 349 987 381 987 q 298 1012 316 987 m 122 705 q 136 817 136 776 q 109 846 136 834 q 66 857 81 857 q 65 863 65 857 q 73 898 65 890 q 231 891 216 891 q 391 898 262 891 l 391 892 q 381 857 391 857 q 337 846 370 857 q 298 825 304 834 q 266 704 290 806 l 206 403 q 193 274 193 332 q 358 84 193 84 q 530 145 461 84 q 629 369 598 206 l 692 697 q 709 822 711 793 q 669 848 708 838 q 608 857 629 857 q 606 865 606 857 q 616 898 606 888 q 761 892 730 892 q 916 898 812 892 q 906 857 916 857 q 848 848 892 857 q 799 830 804 838 q 765 697 788 807 l 703 374 q 566 79 662 161 q 312 -3 471 -3 q 119 67 190 -3 q 49 275 49 137 q 65 412 49 327 l 122 705 z "},"":{"ha":803,"x_min":88,"x_max":884,"o":"m 380 970 q 368 977 374 970 q 362 990 362 983 q 415 1043 362 998 q 505 1109 468 1088 q 537 1116 518 1116 q 599 1105 572 1116 q 625 1074 625 1095 q 516 1010 625 1050 q 380 970 407 970 m 267 887 q 442 895 288 887 q 442 886 442 894 q 439 863 442 875 q 431 852 435 852 q 383 841 412 852 q 353 808 354 830 q 357 779 351 796 l 448 514 q 495 576 456 525 q 555 655 534 628 q 606 722 576 682 q 650 785 636 762 q 665 817 665 808 q 642 842 666 831 q 586 852 618 852 q 583 863 583 852 q 593 895 583 887 q 731 887 719 887 q 884 895 751 887 q 884 879 886 888 q 875 852 883 852 q 821 840 857 852 q 765 807 785 827 q 601 596 738 777 q 461 399 464 415 l 420 193 q 407 73 407 121 q 439 49 408 60 q 479 38 469 38 q 480 23 483 38 q 473 -5 479 5 q 410 0 471 -4 q 316 4 349 4 q 222 0 282 4 q 148 -5 161 -4 q 146 11 145 -1 q 156 38 149 38 q 205 49 171 38 q 244 71 239 60 q 277 187 262 103 l 317 399 q 292 489 319 406 q 239 654 266 572 l 212 734 q 160 827 189 806 q 125 844 148 836 q 91 852 103 852 q 88 861 88 852 q 99 895 88 887 q 172 891 113 895 q 267 887 231 887 z "},"":{"ha":705,"x_min":-9,"x_max":682,"o":"m 457 711 q 627 644 562 711 q 682 477 692 576 q 574 279 673 362 q 357 195 476 195 q 299 201 327 195 q 269 206 271 206 q 262 201 264 206 q 259 187 259 193 q 245 71 245 127 q 274 47 245 57 q 313 37 302 37 q 316 23 316 37 q 308 -4 316 12 q 153 4 157 4 q 62 0 119 4 q -8 -4 4 -4 q -9 11 -9 -1 q -1 37 -9 37 q 47 44 18 37 q 83 68 76 52 q 115 187 103 115 l 217 705 q 229 822 232 785 q 201 846 228 834 q 159 857 174 857 q 157 869 157 857 q 167 898 157 888 q 327 891 309 891 q 484 898 355 891 l 484 884 q 475 857 484 857 q 430 846 464 857 q 392 825 396 834 q 361 712 380 798 q 365 705 361 705 q 381 707 368 705 q 416 709 395 708 q 457 711 438 711 m 433 652 q 366 646 384 652 q 342 616 347 640 l 279 296 q 279 290 278 293 q 281 283 281 286 q 382 258 281 258 q 486 317 439 258 q 538 454 533 377 q 522 595 548 537 q 433 652 496 652 z "},"":{"ha":766,"x_min":-125,"x_max":754,"o":"m 557 943 q 701 899 640 943 q 754 777 762 854 q 735 705 750 738 q 693 648 720 673 q 650 612 666 623 q 606 583 635 601 q 589 572 602 581 q 570 562 575 564 q 555 551 566 559 q 540 537 544 543 q 530 523 536 532 q 522 505 524 514 q 519 483 519 495 q 600 374 519 435 q 683 292 654 331 q 712 201 712 254 q 653 59 712 123 q 513 -5 594 -5 q 399 14 449 -5 q 342 53 349 34 q 407 156 351 156 q 441 140 427 156 q 461 106 454 125 q 482 73 468 88 q 518 57 496 57 q 566 81 548 57 q 589 126 585 104 q 593 165 593 148 q 587 198 593 183 q 570 228 582 213 q 549 252 557 243 q 521 277 540 260 q 495 298 502 293 q 479 313 492 300 q 462 329 465 326 q 448 344 458 332 q 433 362 437 355 q 425 380 430 369 q 417 403 419 392 q 415 427 415 414 q 418 456 415 442 q 422 480 420 471 q 433 502 425 490 q 446 520 442 514 q 464 539 449 526 q 483 556 479 552 q 507 576 487 560 q 533 597 528 593 q 628 772 616 663 q 524 880 640 880 q 385 643 431 880 l 270 46 q -8 -307 202 -307 q -87 -289 -56 -307 q -125 -251 -118 -271 q -58 -146 -118 -146 q -31 -161 -42 -146 q -16 -195 -20 -176 q 1 -228 -11 -213 q 33 -243 14 -243 q 136 -5 88 -243 q 138 7 137 3 l 231 486 l 231 488 l 232 491 q 227 496 232 496 l 142 496 q 137 506 137 496 q 161 543 137 518 q 209 567 184 567 l 240 567 q 250 585 245 567 q 361 838 278 734 q 557 943 444 943 z "},"":{"ha":610,"x_min":49,"x_max":616,"o":"m 469 684 q 349 742 448 684 q 250 833 250 800 q 273 867 250 852 q 321 883 297 883 q 345 876 335 883 q 427 786 368 854 q 487 711 487 718 q 481 693 487 703 q 469 684 475 684 m 457 600 q 570 575 524 600 l 490 159 q 486 126 486 146 q 499 92 486 92 q 536 111 513 92 q 573 144 559 129 q 594 165 587 159 q 606 153 597 165 q 616 134 616 140 q 531 46 601 102 q 412 -9 461 -9 q 370 10 387 -9 q 353 62 353 30 q 358 107 353 77 q 363 136 362 129 q 336 93 351 114 q 298 47 320 72 q 248 7 275 22 q 193 -8 220 -8 q 87 46 126 -8 q 49 183 49 100 q 105 374 49 278 q 258 535 161 471 q 457 600 354 600 m 389 525 q 248 408 312 525 q 183 187 183 290 q 239 81 183 81 q 337 179 285 81 q 410 381 389 277 l 435 511 q 389 525 423 525 z "},"":{"ha":610,"x_min":49,"x_max":616,"o":"m 320 684 q 311 692 316 684 q 305 705 305 700 q 363 781 305 713 q 454 876 420 848 q 481 882 465 882 q 525 867 506 882 q 544 836 544 853 q 441 743 544 803 q 320 684 339 684 m 457 600 q 570 575 524 600 l 490 159 q 486 126 486 146 q 499 92 486 92 q 536 111 513 92 q 573 144 559 129 q 594 165 587 159 q 606 153 597 165 q 616 134 616 140 q 531 46 601 102 q 412 -9 461 -9 q 370 10 387 -9 q 353 62 353 30 q 358 107 353 77 q 363 136 362 129 q 336 93 351 114 q 298 47 320 72 q 248 7 275 22 q 193 -8 220 -8 q 87 46 126 -8 q 49 183 49 100 q 105 374 49 278 q 258 535 161 471 q 457 600 354 600 m 389 525 q 248 408 312 525 q 183 187 183 290 q 239 81 183 81 q 337 179 285 81 q 410 381 389 277 l 435 511 q 389 525 423 525 z "},"":{"ha":610,"x_min":49,"x_max":616,"o":"m 514 684 q 464 715 505 684 q 396 773 423 747 q 309 715 362 747 q 245 684 255 684 q 238 694 240 684 q 239 712 236 705 q 254 726 241 715 q 288 756 267 736 q 332 799 309 776 q 400 873 376 842 q 419 887 414 887 q 430 873 423 887 q 465 808 453 829 q 496 761 480 784 q 522 726 513 738 q 532 712 530 715 q 514 684 525 684 m 457 600 q 570 575 524 600 l 490 159 q 486 126 486 146 q 499 92 486 92 q 536 111 513 92 q 573 144 559 129 q 594 165 587 159 q 606 153 597 165 q 616 134 616 140 q 531 46 601 102 q 412 -9 461 -9 q 370 10 387 -9 q 353 62 353 30 q 358 107 353 77 q 363 136 362 129 q 336 93 351 114 q 298 47 320 72 q 248 7 275 22 q 193 -8 220 -8 q 87 46 126 -8 q 49 183 49 100 q 105 374 49 278 q 258 535 161 471 q 457 600 354 600 m 389 525 q 248 408 312 525 q 183 187 183 290 q 239 81 183 81 q 337 179 285 81 q 410 381 389 277 l 435 511 q 389 525 423 525 z "},"":{"ha":610,"x_min":49,"x_max":616,"o":"m 327 814 q 417 775 365 814 q 507 736 469 736 q 559 768 526 736 l 591 799 q 600 783 600 799 q 557 710 600 757 q 471 663 515 663 q 379 701 431 663 q 288 739 327 739 q 237 707 270 739 q 202 674 205 674 q 195 692 195 674 q 239 770 195 726 q 327 814 282 814 m 457 600 q 570 575 524 600 l 490 159 q 486 126 486 146 q 499 92 486 92 q 536 111 513 92 q 573 144 559 129 q 594 165 587 159 q 606 153 597 165 q 616 134 616 140 q 531 46 601 102 q 412 -9 461 -9 q 370 10 387 -9 q 353 62 353 30 q 358 107 353 77 q 363 136 362 129 q 336 93 351 114 q 298 47 320 72 q 248 7 275 22 q 193 -8 220 -8 q 87 46 126 -8 q 49 183 49 100 q 105 374 49 278 q 258 535 161 471 q 457 600 354 600 m 389 525 q 248 408 312 525 q 183 187 183 290 q 239 81 183 81 q 337 179 285 81 q 410 381 389 277 l 435 511 q 389 525 423 525 z "},"":{"ha":610,"x_min":49,"x_max":616,"o":"m 513 852 q 557 829 540 852 q 575 779 575 807 q 548 711 575 739 q 483 682 521 682 q 441 704 457 682 q 426 754 426 726 q 450 823 426 793 q 513 852 475 852 m 255 852 q 300 829 282 852 q 317 779 317 807 q 290 711 317 739 q 225 682 263 682 q 184 704 199 682 q 168 754 168 726 q 193 823 168 793 q 255 852 217 852 m 457 600 q 570 575 524 600 l 490 159 q 486 126 486 146 q 499 92 486 92 q 536 111 513 92 q 573 144 559 129 q 594 165 587 159 q 606 153 597 165 q 616 134 616 140 q 531 46 601 102 q 412 -9 461 -9 q 370 10 387 -9 q 353 62 353 30 q 358 107 353 77 q 363 136 362 129 q 336 93 351 114 q 298 47 320 72 q 248 7 275 22 q 193 -8 220 -8 q 87 46 126 -8 q 49 183 49 100 q 105 374 49 278 q 258 535 161 471 q 457 600 354 600 m 389 525 q 248 408 312 525 q 183 187 183 290 q 239 81 183 81 q 337 179 285 81 q 410 381 389 277 l 435 511 q 389 525 423 525 z "},"":{"ha":610,"x_min":49,"x_max":616,"o":"m 449 895 q 387 866 412 895 q 361 800 361 837 q 376 755 361 773 q 419 738 392 738 q 480 767 454 738 q 506 833 506 796 q 491 878 506 860 q 449 895 476 895 m 460 949 q 532 919 505 949 q 560 842 560 888 q 513 731 560 780 q 408 682 465 682 q 335 713 363 682 q 307 791 307 745 q 355 902 307 854 q 460 949 404 949 m 457 600 q 570 575 524 600 l 490 159 q 486 126 486 146 q 499 92 486 92 q 536 111 513 92 q 573 144 559 129 q 594 165 587 159 q 606 153 597 165 q 616 134 616 140 q 531 46 601 102 q 412 -9 461 -9 q 370 10 387 -9 q 353 62 353 30 q 358 107 353 77 q 363 136 362 129 q 336 93 351 114 q 298 47 320 72 q 248 7 275 22 q 193 -8 220 -8 q 87 46 126 -8 q 49 183 49 100 q 105 374 49 278 q 258 535 161 471 q 457 600 354 600 m 389 525 q 248 408 312 525 q 183 187 183 290 q 239 81 183 81 q 337 179 285 81 q 410 381 389 277 l 435 511 q 389 525 423 525 z "},"":{"ha":783,"x_min":23,"x_max":772,"o":"m 614 534 q 542 501 581 534 q 486 427 503 468 q 467 347 467 382 q 473 342 467 342 q 590 383 533 342 q 647 480 647 425 q 614 534 647 534 m 647 600 q 739 563 707 600 q 772 481 772 526 q 711 372 772 422 q 581 298 650 321 q 468 274 513 274 q 457 254 457 274 q 489 119 457 163 q 563 76 521 76 q 618 100 589 76 q 667 147 647 123 q 688 171 686 171 q 699 155 690 170 q 707 136 707 141 q 635 47 696 103 q 511 -8 575 -8 q 417 20 458 -8 q 354 92 376 49 q 175 -11 297 -11 q 67 23 111 -11 q 23 113 23 57 q 34 173 23 145 q 68 221 45 201 q 111 256 91 241 q 168 284 132 271 q 223 303 205 297 q 280 319 241 309 q 326 330 319 328 q 340 350 338 334 l 357 439 q 361 473 361 453 q 347 517 361 499 q 311 534 332 534 q 248 503 278 534 q 209 422 217 471 q 184 391 205 403 q 137 380 163 380 q 91 415 91 380 q 179 536 91 471 q 355 601 267 601 q 471 533 446 601 q 647 600 552 600 m 308 174 l 323 256 q 157 134 157 222 q 213 80 157 80 q 275 109 248 80 q 308 174 301 138 z "},"":{"ha":472,"x_min":42,"x_max":500,"o":"m 170 -1 l 206 -1 l 178 -38 q 208 -37 202 -37 q 248 -54 232 -37 q 263 -96 263 -71 q 222 -182 263 -138 q 106 -225 182 -225 q 50 -213 68 -225 q 47 -190 47 -205 q 56 -168 47 -176 q 72 -160 64 -160 q 98 -172 81 -160 q 129 -183 115 -183 q 178 -166 159 -183 q 197 -126 197 -149 q 188 -102 197 -111 q 165 -92 179 -92 q 125 -102 151 -92 q 117 -94 122 -102 q 113 -81 111 -85 q 138 -45 117 -73 q 170 -1 159 -16 m 358 600 q 494 545 438 600 q 499 510 499 524 q 484 460 499 480 q 445 439 469 439 q 412 454 426 439 q 393 487 399 469 q 374 519 387 505 q 342 534 361 534 q 269 490 307 534 q 205 373 231 446 q 179 225 179 300 q 266 84 179 84 q 328 103 296 84 q 375 136 361 122 q 399 160 389 151 q 411 147 401 160 q 420 129 420 134 q 338 43 403 94 q 214 -8 274 -8 q 86 49 129 -8 q 43 205 43 106 q 89 389 43 297 q 208 541 134 481 q 358 600 282 600 z "},"":{"ha":483,"x_min":47,"x_max":509,"o":"m 400 684 q 279 742 378 684 q 180 833 180 800 q 204 867 180 852 q 252 883 228 883 q 275 876 266 883 q 358 786 298 854 q 418 711 418 718 q 412 693 418 703 q 400 684 406 684 m 363 600 q 469 566 429 600 q 509 486 509 533 q 444 363 509 422 q 307 275 380 305 q 190 245 233 245 q 184 214 184 245 q 271 84 184 84 q 334 103 301 84 q 380 136 366 122 q 404 160 395 151 q 416 147 407 160 q 426 129 426 134 q 344 43 408 94 q 220 -8 279 -8 q 92 48 136 -8 q 49 206 49 104 q 94 389 49 297 q 214 540 140 480 q 363 600 288 600 m 350 534 q 249 452 301 534 q 197 309 197 370 q 202 304 197 304 q 320 366 258 304 q 382 488 382 427 q 374 522 382 509 q 350 534 366 534 z "},"":{"ha":483,"x_min":47,"x_max":517,"o":"m 293 684 q 283 692 289 684 q 278 705 278 700 q 336 781 278 713 q 427 876 393 848 q 454 882 438 882 q 498 867 479 882 q 517 836 517 853 q 414 743 517 803 q 293 684 312 684 m 363 600 q 469 566 429 600 q 509 486 509 533 q 444 363 509 422 q 307 275 380 305 q 190 245 233 245 q 184 214 184 245 q 271 84 184 84 q 334 103 301 84 q 380 136 366 122 q 404 160 395 151 q 416 147 407 160 q 426 129 426 134 q 344 43 408 94 q 220 -8 279 -8 q 92 48 136 -8 q 49 206 49 104 q 94 389 49 297 q 214 540 140 480 q 363 600 288 600 m 350 534 q 249 452 301 534 q 197 309 197 370 q 202 304 197 304 q 320 366 258 304 q 382 488 382 427 q 374 522 382 509 q 350 534 366 534 z "},"":{"ha":483,"x_min":47,"x_max":509,"o":"m 450 684 q 400 715 441 684 q 332 773 359 747 q 245 715 298 747 q 182 684 191 684 q 174 694 176 684 q 175 712 172 705 q 191 726 178 715 q 224 756 203 736 q 269 799 245 776 q 336 873 312 842 q 355 887 350 887 q 366 873 359 887 q 401 808 389 829 q 433 761 416 784 q 458 726 449 738 q 468 712 467 715 q 450 684 461 684 m 363 600 q 469 566 429 600 q 509 486 509 533 q 444 363 509 422 q 307 275 380 305 q 190 245 233 245 q 184 214 184 245 q 271 84 184 84 q 334 103 301 84 q 380 136 366 122 q 404 160 395 151 q 416 147 407 160 q 426 129 426 134 q 344 43 408 94 q 220 -8 279 -8 q 92 48 136 -8 q 49 206 49 104 q 94 389 49 297 q 214 540 140 480 q 363 600 288 600 m 350 534 q 249 452 301 534 q 197 309 197 370 q 202 304 197 304 q 320 366 258 304 q 382 488 382 427 q 374 522 382 509 q 350 534 366 534 z "},"":{"ha":483,"x_min":47,"x_max":509,"o":"m 439 852 q 484 829 467 852 q 502 779 502 807 q 475 711 502 739 q 410 682 448 682 q 368 704 384 682 q 353 754 353 726 q 377 823 353 793 q 439 852 401 852 m 182 852 q 227 829 209 852 q 244 779 244 807 q 217 711 244 739 q 152 682 190 682 q 111 704 126 682 q 95 754 95 726 q 119 823 95 793 q 182 852 144 852 m 363 600 q 469 566 429 600 q 509 486 509 533 q 444 363 509 422 q 307 275 380 305 q 190 245 233 245 q 184 214 184 245 q 271 84 184 84 q 334 103 301 84 q 380 136 366 122 q 404 160 395 151 q 416 147 407 160 q 426 129 426 134 q 344 43 408 94 q 220 -8 279 -8 q 92 48 136 -8 q 49 206 49 104 q 94 389 49 297 q 214 540 140 480 q 363 600 288 600 m 350 534 q 249 452 301 534 q 197 309 197 370 q 202 304 197 304 q 320 366 258 304 q 382 488 382 427 q 374 522 382 509 q 350 534 366 534 z "},"":{"ha":378,"x_min":22,"x_max":359,"o":"m 260 684 q 140 742 239 684 q 41 833 41 800 q 64 867 41 852 q 113 883 88 883 q 136 876 126 883 q 218 786 159 854 q 278 711 278 718 q 272 693 278 703 q 260 684 266 684 m 195 600 q 260 572 235 600 q 285 486 285 544 q 227 159 285 450 q 225 136 225 153 q 252 90 225 90 q 298 134 267 90 l 331 179 q 346 167 335 179 q 359 144 357 155 q 293 44 342 99 q 186 -11 244 -11 q 121 19 144 -11 q 98 104 98 49 q 104 171 98 137 l 153 420 q 157 450 157 441 q 125 499 157 499 q 80 454 111 499 l 49 410 q 35 422 45 410 q 22 445 24 434 q 88 545 39 490 q 195 600 137 600 z "},"":{"ha":378,"x_min":22,"x_max":368,"o":"m 144 684 q 134 692 140 684 q 129 705 129 700 q 186 781 129 713 q 278 876 244 848 q 305 882 289 882 q 349 867 330 882 q 368 836 368 853 q 265 743 368 803 q 144 684 163 684 m 195 600 q 260 572 235 600 q 285 486 285 544 q 227 159 285 450 q 225 136 225 153 q 252 90 225 90 q 298 134 267 90 l 331 179 q 346 167 335 179 q 359 144 357 155 q 293 44 342 99 q 186 -11 244 -11 q 121 19 144 -11 q 98 104 98 49 q 104 171 98 137 l 153 420 q 157 450 157 441 q 125 499 157 499 q 80 454 111 499 l 49 410 q 35 422 45 410 q 22 445 24 434 q 88 545 39 490 q 195 600 137 600 z "},"":{"ha":378,"x_min":22,"x_max":359,"o":"m 340 684 q 290 715 331 684 q 222 773 250 747 q 135 715 189 747 q 72 684 81 684 q 64 694 66 684 q 65 712 62 705 q 81 726 68 715 q 115 756 94 736 q 159 799 136 776 q 227 873 202 842 q 245 887 240 887 q 256 873 250 887 q 292 808 279 829 q 323 761 307 784 q 348 726 339 738 q 358 712 357 715 q 340 684 351 684 m 195 600 q 260 572 235 600 q 285 486 285 544 q 227 159 285 450 q 225 136 225 153 q 252 90 225 90 q 298 134 267 90 l 331 179 q 346 167 335 179 q 359 144 357 155 q 293 44 342 99 q 186 -11 244 -11 q 121 19 144 -11 q 98 104 98 49 q 104 171 98 137 l 153 420 q 157 450 157 441 q 125 499 157 499 q 80 454 111 499 l 49 410 q 35 422 45 410 q 22 445 24 434 q 88 545 39 490 q 195 600 137 600 z "},"":{"ha":378,"x_min":22,"x_max":415,"o":"m 350 850 q 397 830 378 850 q 415 781 415 810 q 388 711 415 742 q 324 681 361 681 q 279 703 297 681 q 262 754 262 724 q 288 821 262 792 q 350 850 313 850 m 127 852 q 174 831 156 852 q 193 781 193 810 q 165 712 193 742 q 102 682 138 682 q 56 704 73 682 q 38 755 38 726 q 64 823 38 793 q 127 852 91 852 m 195 600 q 260 572 235 600 q 285 486 285 544 q 227 159 285 450 q 225 136 225 153 q 252 90 225 90 q 298 134 267 90 l 331 179 q 346 167 335 179 q 359 144 357 155 q 293 44 342 99 q 186 -11 244 -11 q 121 19 144 -11 q 98 104 98 49 q 104 171 98 137 l 153 420 q 157 450 157 441 q 125 499 157 499 q 80 454 111 499 l 49 410 q 35 422 45 410 q 22 445 24 434 q 88 545 39 490 q 195 600 137 600 z "},"":{"ha":570,"x_min":24,"x_max":551,"o":"m 338 475 q 236 425 279 475 q 174 306 193 374 q 155 167 155 237 q 176 86 155 113 q 229 60 197 60 q 330 119 288 60 q 392 281 372 179 q 407 396 407 361 q 386 452 407 429 q 338 475 365 475 m 316 540 q 408 506 374 540 l 411 505 q 416 528 416 505 q 327 781 416 666 l 186 646 q 161 663 174 650 q 149 686 149 675 q 153 697 149 693 l 286 826 q 194 892 248 863 q 205 921 194 906 q 231 939 216 936 q 336 875 313 892 l 481 1016 q 503 1000 488 1013 q 517 978 517 987 q 513 963 517 968 l 382 836 q 551 449 551 678 q 518 245 551 336 q 435 101 486 155 q 330 20 385 47 q 221 -8 274 -8 q 79 53 134 -8 q 24 208 24 114 q 115 437 24 335 q 316 540 206 540 z "},"":{"ha":681,"x_min":58,"x_max":688,"o":"m 302 814 q 393 775 340 814 q 483 736 445 736 q 534 768 502 736 l 567 799 q 575 783 575 799 q 533 710 575 757 q 446 663 491 663 q 355 701 407 663 q 263 739 302 739 q 213 707 245 739 q 178 674 180 674 q 171 692 171 674 q 214 770 171 726 q 302 814 258 814 m 255 600 q 298 580 281 600 q 315 526 315 560 q 305 446 315 500 q 302 433 304 441 q 298 407 301 425 q 292 378 294 389 q 290 366 290 366 q 397 513 320 427 q 525 600 473 600 q 617 480 617 600 q 597 334 617 431 l 562 159 q 557 126 557 146 q 571 92 557 92 q 608 111 585 92 q 645 144 631 129 q 665 165 659 159 q 677 153 669 165 q 686 134 686 140 q 602 46 671 102 q 483 -9 533 -9 q 441 10 458 -9 q 425 65 425 30 q 437 151 425 92 l 476 343 q 487 419 487 399 q 454 476 487 476 q 386 421 430 476 q 300 282 342 366 q 244 125 258 198 l 217 0 q 159 -7 195 -7 q 95 0 122 -7 l 176 420 q 182 464 182 450 q 168 496 182 496 q 123 471 152 496 q 81 429 94 445 q 68 442 77 429 q 60 461 60 456 q 142 546 75 492 q 255 600 209 600 z "},"":{"ha":545,"x_min":57,"x_max":555,"o":"m 415 684 q 294 742 393 684 q 195 833 195 800 q 219 867 195 852 q 267 883 243 883 q 290 876 281 883 q 373 786 313 854 q 433 711 433 718 q 427 693 433 703 q 415 684 420 684 m 355 536 q 275 478 313 536 q 214 339 236 420 q 193 182 193 258 q 212 90 194 123 q 260 57 229 57 q 342 117 304 57 q 399 258 380 178 q 418 410 419 339 q 401 503 418 469 q 355 536 385 536 m 370 600 q 508 542 463 600 q 553 385 553 484 q 509 197 553 289 q 391 49 464 106 q 241 -8 319 -8 q 102 49 148 -8 q 57 203 57 106 q 102 388 57 296 q 220 540 146 480 q 370 600 293 600 z "},"":{"ha":545,"x_min":57,"x_max":555,"o":"m 279 684 q 270 692 275 684 q 264 705 264 700 q 322 781 264 713 q 414 876 380 848 q 441 882 425 882 q 484 867 465 882 q 503 836 503 853 q 401 743 503 803 q 279 684 298 684 m 355 536 q 275 478 313 536 q 214 339 236 420 q 193 182 193 258 q 212 90 194 123 q 260 57 229 57 q 342 117 304 57 q 399 258 380 178 q 418 410 419 339 q 401 503 418 469 q 355 536 385 536 m 370 600 q 508 542 463 600 q 553 385 553 484 q 509 197 553 289 q 391 49 464 106 q 241 -8 319 -8 q 102 49 148 -8 q 57 203 57 106 q 102 388 57 296 q 220 540 146 480 q 370 600 293 600 z "},"":{"ha":545,"x_min":57,"x_max":555,"o":"m 477 684 q 427 715 468 684 q 359 773 387 747 q 272 715 326 747 q 209 684 218 684 q 201 694 203 684 q 202 712 199 705 q 218 726 205 715 q 252 756 231 736 q 296 799 273 776 q 363 873 339 842 q 382 887 377 887 q 393 873 387 887 q 429 808 416 829 q 460 761 444 784 q 485 726 476 738 q 495 712 494 715 q 477 684 488 684 m 355 536 q 275 478 313 536 q 214 339 236 420 q 193 182 193 258 q 212 90 194 123 q 260 57 229 57 q 342 117 304 57 q 399 258 380 178 q 418 410 419 339 q 401 503 418 469 q 355 536 385 536 m 370 600 q 508 542 463 600 q 553 385 553 484 q 509 197 553 289 q 391 49 464 106 q 241 -8 319 -8 q 102 49 148 -8 q 57 203 57 106 q 102 388 57 296 q 220 540 146 480 q 370 600 293 600 z "},"":{"ha":545,"x_min":57,"x_max":556,"o":"m 283 814 q 374 775 321 814 q 464 736 426 736 q 515 768 483 736 l 548 799 q 556 783 556 799 q 514 710 556 757 q 427 663 472 663 q 336 701 388 663 q 244 739 283 739 q 194 707 227 739 q 159 674 161 674 q 152 692 152 674 q 195 770 152 726 q 283 814 239 814 m 355 536 q 275 478 313 536 q 214 339 236 420 q 193 182 193 258 q 212 90 194 123 q 260 57 229 57 q 342 117 304 57 q 399 258 380 178 q 418 410 419 339 q 401 503 418 469 q 355 536 385 536 m 370 600 q 508 542 463 600 q 553 385 553 484 q 509 197 553 289 q 391 49 464 106 q 241 -8 319 -8 q 102 49 148 -8 q 57 203 57 106 q 102 388 57 296 q 220 540 146 480 q 370 600 293 600 z "},"":{"ha":545,"x_min":57,"x_max":555,"o":"m 483 852 q 528 829 510 852 q 545 779 545 807 q 518 711 545 739 q 453 682 491 682 q 412 704 427 682 q 396 754 396 726 q 420 823 396 793 q 483 852 445 852 m 225 852 q 270 829 252 852 q 288 779 288 807 q 260 711 288 739 q 195 682 233 682 q 154 704 170 682 q 138 754 138 726 q 163 823 138 793 q 225 852 187 852 m 355 536 q 275 478 313 536 q 214 339 236 420 q 193 182 193 258 q 212 90 194 123 q 260 57 229 57 q 342 117 304 57 q 399 258 380 178 q 418 410 419 339 q 401 503 418 469 q 355 536 385 536 m 370 600 q 508 542 463 600 q 553 385 553 484 q 509 197 553 289 q 391 49 464 106 q 241 -8 319 -8 q 102 49 148 -8 q 57 203 57 106 q 102 388 57 296 q 220 540 146 480 q 370 600 293 600 z "},"":{"ha":623,"x_min":4,"x_max":621,"o":"m 370 670 q 412 652 396 670 q 429 608 429 635 q 405 545 429 572 q 347 517 381 517 q 307 536 323 517 q 290 583 290 556 q 314 644 290 617 q 370 670 338 670 m 271 156 q 313 138 297 156 q 330 94 330 121 q 306 31 330 58 q 248 3 282 3 q 208 22 224 3 q 191 69 191 42 q 215 130 191 103 q 271 156 239 156 m 37 382 l 616 382 q 621 363 621 382 q 590 290 621 324 l 9 290 q 4 309 4 290 q 37 382 4 345 z "},"":{"ha":551,"x_min":33,"x_max":530,"o":"m 241 60 q 351 160 302 60 q 399 374 399 260 q 397 415 399 401 l 180 109 q 241 60 201 60 m 326 532 q 214 431 264 532 q 164 220 164 331 q 165 184 164 197 l 381 491 q 326 532 362 532 m 353 600 q 439 574 401 600 l 458 600 q 484 591 464 601 q 505 571 505 581 q 503 563 505 564 l 481 533 q 530 377 530 467 q 435 108 530 224 q 209 -8 339 -8 q 119 20 159 -8 l 98 -8 q 69 -1 88 -8 q 50 16 50 7 q 54 24 50 20 l 80 61 q 33 220 33 127 q 127 484 33 368 q 353 600 222 600 z "},"":{"ha":667,"x_min":52,"x_max":674,"o":"m 444 684 q 323 742 422 684 q 224 833 224 800 q 248 867 224 852 q 296 883 271 883 q 319 876 309 883 q 401 786 342 854 q 461 711 461 718 q 455 693 461 703 q 444 684 449 684 m 248 600 q 290 580 274 600 q 307 526 307 560 q 296 439 307 487 l 256 247 q 245 171 245 189 q 278 114 245 114 q 345 169 301 114 q 428 308 388 224 q 483 467 468 392 l 509 590 q 568 597 532 597 q 631 590 604 597 l 548 159 q 545 126 545 144 q 559 92 545 92 q 594 111 571 92 q 631 144 617 129 q 652 165 646 159 q 665 153 655 165 q 674 134 674 140 q 589 46 659 102 q 471 -9 519 -9 q 429 10 445 -9 q 412 65 412 30 q 422 144 412 87 q 425 157 423 149 q 429 183 426 165 q 435 212 433 201 q 437 224 437 224 q 382 137 419 189 q 294 38 345 85 q 208 -9 243 -9 q 115 109 115 -9 q 136 255 115 159 l 168 420 q 174 464 174 445 q 160 496 174 496 q 115 471 144 496 q 73 429 87 445 q 61 442 71 429 q 52 461 52 456 q 134 546 66 492 q 248 600 202 600 z "},"":{"ha":667,"x_min":52,"x_max":674,"o":"m 319 684 q 309 692 315 684 q 304 705 304 700 q 361 781 304 713 q 453 876 419 848 q 480 882 464 882 q 524 867 505 882 q 543 836 543 853 q 440 743 543 803 q 319 684 338 684 m 248 600 q 290 580 274 600 q 307 526 307 560 q 296 439 307 487 l 256 247 q 245 171 245 189 q 278 114 245 114 q 345 169 301 114 q 428 308 388 224 q 483 467 468 392 l 509 590 q 568 597 532 597 q 631 590 604 597 l 548 159 q 545 126 545 144 q 559 92 545 92 q 594 111 571 92 q 631 144 617 129 q 652 165 646 159 q 665 153 655 165 q 674 134 674 140 q 589 46 659 102 q 471 -9 519 -9 q 429 10 445 -9 q 412 65 412 30 q 422 144 412 87 q 425 157 423 149 q 429 183 426 165 q 435 212 433 201 q 437 224 437 224 q 382 137 419 189 q 294 38 345 85 q 208 -9 243 -9 q 115 109 115 -9 q 136 255 115 159 l 168 420 q 174 464 174 445 q 160 496 174 496 q 115 471 144 496 q 73 429 87 445 q 61 442 71 429 q 52 461 52 456 q 134 546 66 492 q 248 600 202 600 z "},"":{"ha":667,"x_min":52,"x_max":674,"o":"m 496 684 q 446 715 487 684 q 378 773 406 747 q 291 715 345 747 q 228 684 237 684 q 220 694 222 684 q 221 712 218 705 q 237 726 224 715 q 271 756 250 736 q 315 799 292 776 q 382 873 358 842 q 401 887 396 887 q 412 873 406 887 q 448 808 435 829 q 479 761 463 784 q 504 726 495 738 q 514 712 513 715 q 496 684 507 684 m 248 600 q 290 580 274 600 q 307 526 307 560 q 296 439 307 487 l 256 247 q 245 171 245 189 q 278 114 245 114 q 345 169 301 114 q 428 308 388 224 q 483 467 468 392 l 509 590 q 568 597 532 597 q 631 590 604 597 l 548 159 q 545 126 545 144 q 559 92 545 92 q 594 111 571 92 q 631 144 617 129 q 652 165 646 159 q 665 153 655 165 q 674 134 674 140 q 589 46 659 102 q 471 -9 519 -9 q 429 10 445 -9 q 412 65 412 30 q 422 144 412 87 q 425 157 423 149 q 429 183 426 165 q 435 212 433 201 q 437 224 437 224 q 382 137 419 189 q 294 38 345 85 q 208 -9 243 -9 q 115 109 115 -9 q 136 255 115 159 l 168 420 q 174 464 174 445 q 160 496 174 496 q 115 471 144 496 q 73 429 87 445 q 61 442 71 429 q 52 461 52 456 q 134 546 66 492 q 248 600 202 600 z "},"":{"ha":667,"x_min":52,"x_max":674,"o":"m 507 852 q 552 829 534 852 q 570 779 570 807 q 543 711 570 739 q 477 682 515 682 q 436 704 452 682 q 420 754 420 726 q 445 823 420 793 q 507 852 469 852 m 250 852 q 294 829 277 852 q 312 779 312 807 q 285 711 312 739 q 220 682 258 682 q 178 704 194 682 q 163 754 163 726 q 187 823 163 793 q 250 852 212 852 m 248 600 q 290 580 274 600 q 307 526 307 560 q 296 439 307 487 l 256 247 q 245 171 245 189 q 278 114 245 114 q 345 169 301 114 q 428 308 388 224 q 483 467 468 392 l 509 590 q 568 597 532 597 q 631 590 604 597 l 548 159 q 545 126 545 144 q 559 92 545 92 q 594 111 571 92 q 631 144 617 129 q 652 165 646 159 q 665 153 655 165 q 674 134 674 140 q 589 46 659 102 q 471 -9 519 -9 q 429 10 445 -9 q 412 65 412 30 q 422 144 412 87 q 425 157 423 149 q 429 183 426 165 q 435 212 433 201 q 437 224 437 224 q 382 137 419 189 q 294 38 345 85 q 208 -9 243 -9 q 115 109 115 -9 q 136 255 115 159 l 168 420 q 174 464 174 445 q 160 496 174 496 q 115 471 144 496 q 73 429 87 445 q 61 442 71 429 q 52 461 52 456 q 134 546 66 492 q 248 600 202 600 z "},"":{"ha":656,"x_min":-35,"x_max":666,"o":"m 415 684 q 406 692 411 684 q 400 705 400 700 q 458 781 400 713 q 549 876 515 848 q 576 882 560 882 q 620 867 601 882 q 639 836 639 853 q 536 743 639 803 q 415 684 434 684 m 289 600 q 338 564 316 600 q 375 471 361 529 q 399 353 389 414 q 414 225 408 292 q 421 123 419 159 q 423 64 423 87 q 511 208 461 110 q 562 378 562 307 q 519 529 562 458 q 546 579 524 559 q 597 600 568 600 q 648 570 631 600 q 665 509 665 541 q 621 286 665 406 q 505 65 576 167 q 352 -122 434 -37 q 188 -257 270 -208 q 46 -307 106 -307 q -12 -290 11 -307 q -35 -241 -35 -273 q -8 -182 -35 -203 q 90 -198 37 -198 q 266 -103 197 -198 q 296 47 296 -62 q 276 293 296 164 q 218 477 256 422 q 165 465 205 487 q 149 463 159 465 q 131 456 140 460 q 115 448 122 452 q 106 445 107 445 q 138 488 109 452 q 214 562 168 525 q 289 600 259 600 z "},"":{"ha":675,"x_min":-19,"x_max":659,"o":"m 449 503 q 382 490 416 503 q 329 461 349 476 q 308 439 309 446 l 256 176 q 250 127 250 144 q 267 73 250 95 q 312 52 285 52 q 447 161 384 52 q 510 423 510 271 q 492 481 510 460 q 449 503 473 503 m 519 590 q 621 544 583 590 q 659 437 659 498 q 604 224 659 330 q 467 56 549 119 q 302 -8 384 -8 q 240 5 263 -8 q 229 11 232 11 q 221 -5 225 11 l 190 -170 q 187 -209 187 -189 q 224 -252 187 -244 q 267 -255 236 -255 q 275 -270 275 -255 q 270 -296 275 -288 l 210 -296 q -14 -309 114 -296 q -19 -290 -19 -307 q -12 -269 -19 -269 q 39 -252 26 -269 q 65 -170 47 -241 l 172 380 l 103 339 q 91 377 91 358 q 98 389 91 385 q 187 453 161 437 l 243 746 q 255 822 255 799 q 189 852 255 852 q 183 860 183 852 q 189 879 183 868 q 197 890 194 890 q 304 909 232 890 q 400 941 377 929 l 406 941 q 416 920 416 941 q 377 796 392 872 l 323 518 q 397 566 345 541 q 519 590 449 590 z "},"":{"ha":656,"x_min":-35,"x_max":666,"o":"m 590 852 q 635 829 617 852 q 652 779 652 807 q 625 711 652 739 q 560 682 598 682 q 519 704 534 682 q 503 754 503 726 q 528 823 503 793 q 590 852 552 852 m 332 852 q 377 829 359 852 q 395 779 395 807 q 368 711 395 739 q 302 682 340 682 q 261 704 277 682 q 245 754 245 726 q 270 823 245 793 q 332 852 294 852 m 289 600 q 338 564 316 600 q 375 471 361 529 q 399 353 389 414 q 414 225 408 292 q 421 123 419 159 q 423 64 423 87 q 511 208 461 110 q 562 378 562 307 q 519 529 562 458 q 546 579 524 559 q 597 600 568 600 q 648 570 631 600 q 665 509 665 541 q 621 286 665 406 q 505 65 576 167 q 352 -122 434 -37 q 188 -257 270 -208 q 46 -307 106 -307 q -12 -290 11 -307 q -35 -241 -35 -273 q -8 -182 -35 -203 q 90 -198 37 -198 q 266 -103 197 -198 q 296 47 296 -62 q 276 293 296 164 q 218 477 256 422 q 165 465 205 487 q 149 463 159 465 q 131 456 140 460 q 115 448 122 452 q 106 445 107 445 q 138 488 109 452 q 214 562 168 525 q 289 600 259 600 z "},"":{"ha":879,"x_min":-16,"x_max":840,"o":"m 426 1002 q 437 1041 426 1015 q 457 1067 449 1067 l 796 1067 q 802 1057 804 1067 q 793 1028 798 1040 q 782 1006 788 1016 q 774 993 776 996 l 435 993 q 426 1002 426 993 m 438 313 q 311 309 388 313 q 302 304 305 309 q 265 243 296 292 q 225 178 235 194 q 183 81 183 107 q 216 48 183 60 q 264 37 248 37 q 267 30 267 37 q 259 -4 267 12 q 205 1 244 -3 q 134 4 167 4 q 52 1 100 4 q -14 -4 4 -3 q -16 5 -16 1 q -8 37 -16 37 q 43 50 7 37 q 90 79 79 64 q 157 184 109 102 l 533 827 q 604 901 575 901 q 617 895 612 901 l 745 184 q 764 85 749 163 q 795 51 768 65 q 837 37 823 37 q 840 28 840 37 q 834 -4 840 7 q 680 4 684 4 q 510 -4 665 4 q 509 4 509 -3 q 517 37 509 37 q 557 47 530 37 q 591 68 585 57 q 600 109 600 84 q 572 302 600 121 q 566 309 572 309 q 438 313 541 313 m 454 387 q 552 391 494 387 q 557 396 557 391 q 534 536 553 423 q 513 667 515 648 l 357 393 l 357 391 q 454 387 397 387 z "},"":{"ha":610,"x_min":49,"x_max":616,"o":"m 248 696 q 278 761 264 761 l 566 761 q 571 749 575 761 q 551 693 564 723 q 540 682 551 693 l 252 682 q 250 682 251 682 q 248 686 250 682 q 248 696 247 689 m 457 600 q 570 575 524 600 l 490 159 q 486 126 486 146 q 499 92 486 92 q 536 111 513 92 q 573 144 559 129 q 594 165 587 159 q 606 153 597 165 q 616 134 616 140 q 531 46 601 102 q 412 -9 461 -9 q 370 10 387 -9 q 353 62 353 30 q 358 107 353 77 q 363 136 362 129 q 336 93 351 114 q 298 47 320 72 q 248 7 275 22 q 193 -8 220 -8 q 87 46 126 -8 q 49 183 49 100 q 105 374 49 278 q 258 535 161 471 q 457 600 354 600 m 389 525 q 248 408 312 525 q 183 187 183 290 q 239 81 183 81 q 337 179 285 81 q 410 381 389 277 l 435 511 q 389 525 423 525 z "},"":{"ha":879,"x_min":-16,"x_max":840,"o":"m 566 1081 q 579 1071 566 1081 q 627 1061 593 1061 q 694 1081 661 1061 q 746 1131 728 1101 q 754 1134 746 1134 q 768 1122 761 1133 q 773 1107 774 1112 q 772 1102 773 1105 q 770 1097 770 1099 q 700 1019 743 1050 q 613 987 656 987 q 537 1018 568 987 q 498 1097 506 1048 q 497 1102 498 1099 q 496 1107 496 1105 q 509 1122 496 1112 q 529 1134 522 1133 q 533 1131 533 1134 q 566 1081 540 1101 m 438 313 q 311 309 388 313 q 302 304 305 309 q 265 243 296 292 q 225 178 235 194 q 183 81 183 107 q 216 48 183 60 q 264 37 248 37 q 267 30 267 37 q 259 -4 267 12 q 205 1 244 -3 q 134 4 167 4 q 52 1 100 4 q -14 -4 4 -3 q -16 5 -16 1 q -8 37 -16 37 q 43 50 7 37 q 90 79 79 64 q 157 184 109 102 l 533 827 q 604 901 575 901 q 617 895 612 901 l 745 184 q 764 85 749 163 q 795 51 768 65 q 837 37 823 37 q 840 28 840 37 q 834 -4 840 7 q 680 4 684 4 q 510 -4 665 4 q 509 4 509 -3 q 517 37 509 37 q 557 47 530 37 q 591 68 585 57 q 600 109 600 84 q 572 302 600 121 q 566 309 572 309 q 438 313 541 313 m 454 387 q 552 391 494 387 q 557 396 557 391 q 534 536 553 423 q 513 667 515 648 l 357 393 l 357 391 q 454 387 397 387 z "},"":{"ha":610,"x_min":49,"x_max":616,"o":"m 357 777 q 371 765 357 777 q 419 753 384 753 q 488 777 454 753 q 538 841 521 800 q 544 846 538 846 q 561 837 551 846 q 570 822 571 827 q 568 817 570 821 q 566 811 566 812 q 498 718 543 755 q 404 681 453 681 q 321 718 354 681 q 289 812 289 755 l 289 822 q 304 837 290 827 q 324 846 317 846 q 330 841 330 846 q 357 777 331 802 m 457 600 q 570 575 524 600 l 490 159 q 486 126 486 146 q 499 92 486 92 q 536 111 513 92 q 573 144 559 129 q 594 165 587 159 q 606 153 597 165 q 616 134 616 140 q 531 46 601 102 q 412 -9 461 -9 q 370 10 387 -9 q 353 62 353 30 q 358 107 353 77 q 363 136 362 129 q 336 93 351 114 q 298 47 320 72 q 248 7 275 22 q 193 -8 220 -8 q 87 46 126 -8 q 49 183 49 100 q 105 374 49 278 q 258 535 161 471 q 457 600 354 600 m 389 525 q 248 408 312 525 q 183 187 183 290 q 239 81 183 81 q 337 179 285 81 q 410 381 389 277 l 435 511 q 389 525 423 525 z "},"":{"ha":880,"x_min":-12,"x_max":844,"o":"m 464 387 q 560 391 502 387 q 566 396 566 391 q 543 536 562 423 q 522 667 525 648 l 365 393 q 366 391 365 391 q 464 387 407 387 m 530 827 q 566 877 545 853 q 602 901 587 901 q 616 895 610 901 l 743 184 q 761 85 753 127 q 796 51 765 65 q 841 37 827 37 q 844 30 844 37 q 836 -5 844 11 q 701 3 709 3 q 558 -60 631 3 q 486 -176 486 -122 q 525 -213 486 -213 q 578 -202 553 -213 q 618 -180 604 -191 q 633 -170 632 -170 q 635 -190 640 -171 q 625 -213 629 -209 q 471 -302 545 -302 q 418 -281 439 -302 q 397 -227 397 -259 q 566 16 397 -138 q 612 90 612 56 q 582 302 612 103 q 575 309 582 307 q 446 313 560 313 q 321 311 368 313 q 315 307 315 311 q 290 266 313 305 q 242 182 266 227 q 218 126 218 137 q 214 92 212 103 q 225 71 217 81 q 233 60 233 61 q 240 47 233 53 q 254 40 247 42 q 269 35 262 38 q 278 33 277 33 q 277 16 278 22 q 246 7 267 15 q 209 -1 225 0 q 69 0 113 1 l -12 0 q -9 19 -12 16 l 34 52 q 133 142 113 109 q 159 184 136 146 l 530 827 z "},"":{"ha":631,"x_min":23,"x_max":601,"o":"m 391 532 q 290 469 346 532 q 197 319 235 406 q 159 168 159 232 q 205 81 159 81 q 307 176 248 81 q 382 361 366 270 l 406 488 q 407 500 406 491 q 408 513 408 510 q 391 532 408 532 m 422 600 q 500 591 463 600 q 547 575 537 583 l 468 160 q 465 133 465 146 q 494 91 465 91 q 540 136 509 91 l 572 179 q 587 167 576 179 q 601 144 598 155 q 503 16 582 98 q 460 -24 495 8 q 408 -75 425 -57 q 375 -121 392 -92 q 358 -174 358 -149 q 397 -213 358 -213 q 451 -202 426 -213 q 490 -180 476 -191 q 506 -170 505 -170 q 508 -190 513 -171 q 499 -213 503 -209 q 425 -275 468 -248 q 343 -302 382 -302 q 291 -281 312 -302 q 270 -228 270 -259 q 400 -4 270 -140 q 340 79 351 5 q 342 117 339 92 l 343 140 l 340 142 l 338 140 q 148 -11 235 -11 q 52 26 80 -11 q 23 133 23 62 q 89 338 23 227 q 250 524 155 449 q 422 600 345 600 z "},"":{"ha":827,"x_min":34,"x_max":833,"o":"m 498 970 q 486 977 492 970 q 480 990 480 983 q 533 1043 480 998 q 623 1109 586 1088 q 655 1116 636 1116 q 717 1105 690 1116 q 743 1074 743 1095 q 634 1010 743 1050 q 498 970 525 970 m 548 905 q 833 854 663 905 q 823 764 833 846 q 811 670 814 681 q 777 650 807 650 q 760 654 765 650 q 751 703 758 678 q 724 762 745 728 q 656 817 704 796 q 540 838 609 838 q 299 690 404 838 q 194 343 194 543 q 254 137 194 217 q 430 57 315 57 q 614 103 543 57 q 666 151 643 122 q 700 198 689 179 q 712 217 711 217 q 730 209 718 217 q 745 193 743 201 q 730 155 743 190 q 705 92 718 121 q 685 54 693 62 q 575 9 655 26 q 406 -8 495 -8 q 135 98 236 -8 q 34 357 34 205 q 106 618 34 491 q 299 825 179 746 q 548 905 419 905 z "},"":{"ha":472,"x_min":42,"x_max":515,"o":"m 292 684 q 282 692 288 684 q 277 705 277 700 q 334 781 277 713 q 426 876 392 848 q 453 882 437 882 q 496 867 477 882 q 515 836 515 853 q 413 743 515 803 q 292 684 311 684 m 358 600 q 494 545 438 600 q 499 510 499 524 q 484 460 499 480 q 445 439 469 439 q 412 454 426 439 q 393 487 399 469 q 374 519 387 505 q 342 534 361 534 q 269 490 307 534 q 205 373 231 446 q 179 225 179 300 q 266 84 179 84 q 328 103 296 84 q 375 136 361 122 q 399 160 389 151 q 411 147 401 160 q 420 129 420 134 q 338 43 403 94 q 214 -8 274 -8 q 86 49 129 -8 q 43 205 43 106 q 89 389 43 297 q 208 541 134 481 q 358 600 282 600 z "},"":{"ha":827,"x_min":34,"x_max":833,"o":"m 704 987 q 560 1069 678 987 q 457 1016 519 1044 q 382 987 395 987 q 374 1013 366 987 q 414 1041 376 1015 q 488 1096 452 1067 q 563 1160 533 1130 q 582 1172 578 1172 q 600 1160 593 1172 q 617 1133 602 1154 q 643 1097 632 1111 q 682 1055 662 1074 q 712 1025 701 1035 q 724 1013 723 1015 q 704 987 718 987 m 548 905 q 833 854 663 905 q 823 764 833 846 q 811 670 814 681 q 777 650 807 650 q 760 654 765 650 q 751 703 758 678 q 724 762 745 728 q 656 817 704 796 q 540 838 609 838 q 299 690 404 838 q 194 343 194 543 q 254 137 194 217 q 430 57 315 57 q 614 103 543 57 q 666 151 643 122 q 700 198 689 179 q 712 217 711 217 q 730 209 718 217 q 745 193 743 201 q 730 155 743 190 q 705 92 718 121 q 685 54 693 62 q 575 9 655 26 q 406 -8 495 -8 q 135 98 236 -8 q 34 357 34 205 q 106 618 34 491 q 299 825 179 746 q 548 905 419 905 z "},"":{"ha":472,"x_min":42,"x_max":500,"o":"m 465 684 q 415 715 456 684 q 347 773 374 747 q 260 715 313 747 q 197 684 206 684 q 189 694 191 684 q 190 712 187 705 q 205 726 193 715 q 239 756 218 736 q 283 799 260 776 q 351 873 327 842 q 370 887 365 887 q 381 873 374 887 q 416 808 404 829 q 448 761 431 784 q 473 726 464 738 q 483 712 481 715 q 465 684 476 684 m 358 600 q 494 545 438 600 q 499 510 499 524 q 484 460 499 480 q 445 439 469 439 q 412 454 426 439 q 393 487 399 469 q 374 519 387 505 q 342 534 361 534 q 269 490 307 534 q 205 373 231 446 q 179 225 179 300 q 266 84 179 84 q 328 103 296 84 q 375 136 361 122 q 399 160 389 151 q 411 147 401 160 q 420 129 420 134 q 338 43 403 94 q 214 -8 274 -8 q 86 49 129 -8 q 43 205 43 106 q 89 389 43 297 q 208 541 134 481 q 358 600 282 600 z "},"":{"ha":827,"x_min":34,"x_max":833,"o":"m 495 1072 q 529 1131 500 1105 q 590 1156 557 1156 q 641 1131 623 1156 q 652 1072 659 1107 q 618 1013 647 1038 q 557 987 590 987 q 507 1012 525 987 q 495 1072 488 1036 m 548 905 q 833 854 663 905 q 823 764 833 846 q 811 670 814 681 q 777 650 807 650 q 760 654 765 650 q 751 703 758 678 q 724 762 745 728 q 656 817 704 796 q 540 838 609 838 q 299 690 404 838 q 194 343 194 543 q 254 137 194 217 q 430 57 315 57 q 614 103 543 57 q 666 151 643 122 q 700 198 689 179 q 712 217 711 217 q 730 209 718 217 q 745 193 743 201 q 730 155 743 190 q 705 92 718 121 q 685 54 693 62 q 575 9 655 26 q 406 -8 495 -8 q 135 98 236 -8 q 34 357 34 205 q 106 618 34 491 q 299 825 179 746 q 548 905 419 905 z "},"":{"ha":472,"x_min":42,"x_max":500,"o":"m 275 745 q 266 757 275 745 q 263 804 256 769 q 297 865 270 840 q 357 890 324 890 q 408 865 389 890 q 420 804 427 840 q 387 745 415 770 q 326 720 358 720 q 275 745 293 720 m 358 600 q 494 545 438 600 q 499 510 499 524 q 484 460 499 480 q 445 439 469 439 q 412 454 426 439 q 393 487 399 469 q 374 519 387 505 q 342 534 361 534 q 269 490 307 534 q 205 373 231 446 q 179 225 179 300 q 266 84 179 84 q 328 103 296 84 q 375 136 361 122 q 399 160 389 151 q 411 147 401 160 q 420 129 420 134 q 338 43 403 94 q 214 -8 274 -8 q 86 49 129 -8 q 43 205 43 106 q 89 389 43 297 q 208 541 134 481 q 358 600 282 600 z "},"":{"ha":827,"x_min":34,"x_max":833,"o":"m 555 1089 q 712 1172 692 1172 q 719 1145 726 1172 q 617 1061 685 1123 q 552 1000 576 1024 q 534 987 540 987 q 522 1000 529 987 q 481 1062 511 1021 q 436 1118 460 1092 q 412 1145 412 1143 q 430 1172 422 1172 q 485 1142 441 1172 q 555 1089 529 1112 m 548 905 q 833 854 663 905 q 823 764 833 846 q 811 670 814 681 q 777 650 807 650 q 760 654 765 650 q 751 703 758 678 q 724 762 745 728 q 656 817 704 796 q 540 838 609 838 q 299 690 404 838 q 194 343 194 543 q 254 137 194 217 q 430 57 315 57 q 614 103 543 57 q 666 151 643 122 q 700 198 689 179 q 712 217 711 217 q 730 209 718 217 q 745 193 743 201 q 730 155 743 190 q 705 92 718 121 q 685 54 693 62 q 575 9 655 26 q 406 -8 495 -8 q 135 98 236 -8 q 34 357 34 205 q 106 618 34 491 q 299 825 179 746 q 548 905 419 905 z "},"":{"ha":472,"x_min":42,"x_max":507,"o":"m 357 802 q 442 863 391 829 q 503 897 494 897 q 507 865 514 897 q 496 855 506 864 q 476 836 487 846 q 447 807 465 826 q 410 768 429 788 q 377 728 396 753 q 350 694 358 704 q 335 682 340 682 q 323 694 327 682 q 289 769 308 734 q 232 865 273 800 q 250 897 240 897 q 297 863 259 897 q 357 802 335 829 m 358 600 q 494 545 438 600 q 499 510 499 524 q 484 460 499 480 q 445 439 469 439 q 412 454 426 439 q 393 487 399 469 q 374 519 387 505 q 342 534 361 534 q 269 490 307 534 q 205 373 231 446 q 179 225 179 300 q 266 84 179 84 q 328 103 296 84 q 375 136 361 122 q 399 160 389 151 q 411 147 401 160 q 420 129 420 134 q 338 43 403 94 q 214 -8 274 -8 q 86 49 129 -8 q 43 205 43 106 q 89 389 43 297 q 208 541 134 481 q 358 600 282 600 z "},"":{"ha":930,"x_min":-11,"x_max":906,"o":"m 540 1089 q 697 1172 677 1172 q 704 1145 711 1172 q 602 1061 670 1123 q 537 1000 562 1024 q 519 987 525 987 q 507 1000 514 987 q 467 1062 496 1021 q 421 1118 445 1092 q 397 1145 397 1143 q 415 1172 407 1172 q 470 1142 426 1172 q 540 1089 514 1112 m 547 892 q 815 795 724 892 q 906 548 906 697 q 870 360 906 456 q 769 182 834 264 q 600 48 704 100 q 370 -4 495 -4 q 274 -1 346 -4 q 156 3 202 3 l -8 -4 q -11 8 -11 -1 q -1 37 -11 37 q 45 48 12 37 q 84 71 79 60 q 117 187 103 111 l 217 703 q 231 818 233 785 q 200 843 229 829 q 157 857 171 857 q 156 863 156 857 q 164 898 156 890 q 326 892 241 892 l 547 892 m 541 825 q 395 803 412 825 q 361 708 372 777 l 260 187 q 255 87 243 99 q 404 65 273 65 q 632 189 541 65 q 743 511 723 313 q 708 736 758 647 q 541 825 658 825 z "},"":{"ha":629,"x_min":53,"x_max":876,"o":"m 758 854 q 791 921 758 901 q 871 941 825 941 q 876 906 876 930 q 871 850 876 878 q 815 741 861 800 q 731 661 769 682 l 726 661 q 714 669 720 661 q 708 684 708 677 q 725 700 708 685 q 760 739 742 715 q 777 789 777 764 q 768 819 777 799 q 758 854 758 838 m 444 598 q 454 598 454 598 q 456 600 454 598 l 488 762 q 496 825 496 808 q 422 852 496 852 q 418 861 418 852 q 429 890 418 879 q 534 908 471 892 q 628 936 597 924 q 639 909 639 930 q 635 882 639 902 q 625 835 631 861 q 617 798 618 808 l 494 159 q 490 126 490 146 q 503 92 490 92 q 540 111 517 92 q 577 144 563 129 q 598 165 591 159 q 610 153 601 165 q 620 134 620 140 q 534 46 604 102 q 416 -9 465 -9 q 374 10 391 -9 q 357 62 357 30 q 362 109 357 79 q 368 137 363 117 q 341 96 355 117 q 304 50 327 76 q 253 7 281 23 q 198 -8 225 -8 q 91 46 129 -8 q 53 183 53 100 q 106 372 53 277 q 252 531 160 467 q 444 598 345 595 m 431 475 q 425 511 435 496 q 395 525 414 525 q 291 466 340 525 q 214 329 241 407 q 187 186 187 251 q 243 81 187 81 q 340 178 289 81 q 414 382 392 274 l 431 475 z "},"":{"ha":936,"x_min":-5,"x_max":911,"o":"m 547 825 q 400 803 419 825 q 366 708 376 773 l 324 496 l 480 496 q 488 476 488 496 q 477 435 488 458 q 458 404 467 411 l 307 404 l 266 187 q 260 87 248 99 q 410 65 278 65 q 637 189 547 65 q 749 511 728 313 q 712 736 762 647 q 547 825 662 825 m 552 892 q 821 795 730 892 q 911 548 911 697 q 876 360 911 456 q 774 182 840 264 q 605 48 709 100 q 376 -4 500 -4 q 279 -1 351 -4 q 161 3 208 3 l -3 -5 q -5 8 -5 -3 q -1 31 -5 18 q 5 43 3 43 q 53 52 22 43 q 90 71 84 60 q 122 187 109 111 l 164 404 l 72 404 q 64 423 64 404 q 75 465 64 441 q 94 496 85 490 l 182 496 l 222 703 q 236 818 239 785 q 205 840 235 829 q 163 852 176 852 q 161 857 161 852 q 174 898 161 886 q 331 892 247 892 l 552 892 z "},"":{"ha":689,"x_min":24,"x_max":694,"o":"m 24 138 q 81 342 24 235 q 224 524 138 450 q 388 597 311 597 q 445 583 418 597 l 448 582 l 450 581 q 453 586 453 581 q 473 684 473 682 q 469 692 473 692 l 331 692 q 327 693 331 692 q 327 703 326 696 q 345 762 339 751 l 353 768 l 486 768 q 491 776 487 768 q 498 822 498 806 q 431 852 498 852 q 426 860 426 852 q 431 880 426 869 q 439 890 437 890 q 547 909 476 890 q 643 940 617 928 q 648 941 646 941 q 659 920 659 941 q 618 798 632 872 q 614 776 614 779 q 620 768 614 768 l 689 768 q 694 757 696 768 q 681 700 685 712 q 677 694 680 696 q 673 692 674 692 l 671 692 l 605 692 q 597 684 600 692 l 498 171 q 492 137 492 149 q 524 91 492 91 q 570 136 538 91 l 600 179 q 614 168 604 179 q 628 145 625 156 q 561 43 610 98 q 454 -11 511 -11 q 393 15 416 -11 q 370 77 370 41 q 372 114 370 92 l 373 134 q 370 140 373 140 q 366 134 369 140 q 279 42 340 95 q 163 -11 218 -11 q 61 29 98 -11 q 24 138 24 69 m 376 536 q 239 412 309 536 q 168 165 168 289 q 222 81 168 81 q 331 174 271 81 q 410 355 391 267 l 431 453 q 435 480 435 467 q 418 520 435 505 q 376 536 401 536 z "},"":{"ha":738,"x_min":-11,"x_max":730,"o":"m 298 1002 q 310 1041 298 1015 q 330 1067 321 1067 l 669 1067 q 674 1057 677 1067 q 665 1028 670 1040 q 654 1006 661 1016 q 647 993 648 996 l 308 993 q 298 1002 298 993 m 326 892 q 528 896 388 891 q 730 901 669 901 q 727 812 727 871 q 728 760 727 795 q 728 708 728 726 q 701 701 722 701 q 685 711 685 701 q 543 831 669 831 l 481 831 q 388 814 393 831 q 361 716 366 753 l 320 492 q 323 488 320 490 q 335 485 327 486 q 352 484 343 484 q 372 483 361 483 l 456 483 q 532 495 517 483 q 576 572 548 507 q 597 583 581 583 q 620 575 614 583 l 571 317 q 547 312 566 312 q 529 323 530 312 q 510 403 526 387 q 393 415 496 415 q 301 404 304 415 l 262 198 q 250 100 250 140 q 261 72 250 77 q 331 66 273 66 l 378 66 q 534 95 477 66 q 589 142 556 106 q 646 225 621 178 q 665 233 650 233 q 697 225 692 233 q 585 -4 597 31 q 361 -1 513 -4 q 156 3 209 3 l -8 -4 q -11 8 -11 -1 q -1 37 -11 37 q 45 48 12 37 q 84 71 79 60 q 117 187 103 111 l 217 703 q 231 818 233 785 q 200 843 229 829 q 157 857 171 857 q 156 863 156 857 q 164 898 156 890 q 326 892 241 892 z "},"":{"ha":483,"x_min":47,"x_max":509,"o":"m 176 696 q 206 761 193 761 l 494 761 q 499 749 503 761 q 479 693 492 723 q 468 682 479 693 l 180 682 q 178 682 179 682 q 176 686 178 682 q 176 696 175 689 m 363 600 q 469 566 429 600 q 509 486 509 533 q 444 363 509 422 q 307 275 380 305 q 190 245 233 245 q 184 214 184 245 q 271 84 184 84 q 334 103 301 84 q 380 136 366 122 q 404 160 395 151 q 416 147 407 160 q 426 129 426 134 q 344 43 408 94 q 220 -8 279 -8 q 92 48 136 -8 q 49 206 49 104 q 94 389 49 297 q 214 540 140 480 q 363 600 288 600 m 350 534 q 249 452 301 534 q 197 309 197 370 q 202 304 197 304 q 320 366 258 304 q 382 488 382 427 q 374 522 382 509 q 350 534 366 534 z "},"":{"ha":738,"x_min":-11,"x_max":730,"o":"m 422 1081 q 436 1071 422 1081 q 483 1061 449 1061 q 551 1081 517 1061 q 602 1131 585 1101 q 610 1134 602 1134 q 624 1122 617 1133 q 629 1107 631 1112 q 628 1102 629 1105 q 627 1097 627 1099 q 556 1019 600 1050 q 469 987 513 987 q 393 1018 425 987 q 354 1097 362 1048 q 353 1102 354 1099 q 353 1107 353 1105 q 366 1122 353 1112 q 385 1134 378 1133 q 389 1131 389 1134 q 422 1081 396 1101 m 326 892 q 528 896 388 891 q 730 901 669 901 q 727 812 727 871 q 728 760 727 795 q 728 708 728 726 q 701 701 722 701 q 685 711 685 701 q 543 831 669 831 l 481 831 q 388 814 393 831 q 361 716 366 753 l 320 492 q 323 488 320 490 q 335 485 327 486 q 352 484 343 484 q 372 483 361 483 l 456 483 q 532 495 517 483 q 576 572 548 507 q 597 583 581 583 q 620 575 614 583 l 571 317 q 547 312 566 312 q 529 323 530 312 q 510 403 526 387 q 393 415 496 415 q 301 404 304 415 l 262 198 q 250 100 250 140 q 261 72 250 77 q 331 66 273 66 l 378 66 q 534 95 477 66 q 589 142 556 106 q 646 225 621 178 q 665 233 650 233 q 697 225 692 233 q 585 -4 597 31 q 361 -1 513 -4 q 156 3 209 3 l -8 -4 q -11 8 -11 -1 q -1 37 -11 37 q 45 48 12 37 q 84 71 79 60 q 117 187 103 111 l 217 703 q 231 818 233 785 q 200 843 229 829 q 157 857 171 857 q 156 863 156 857 q 164 898 156 890 q 326 892 241 892 z "},"":{"ha":483,"x_min":47,"x_max":509,"o":"m 292 777 q 306 765 292 777 q 354 753 319 753 q 422 777 389 753 q 473 841 456 800 q 479 846 473 846 q 496 837 486 846 q 505 822 506 827 q 503 817 505 821 q 500 811 500 812 q 433 718 477 755 q 339 681 388 681 q 256 718 289 681 q 224 812 224 755 l 224 822 q 239 837 225 827 q 259 846 252 846 q 264 841 264 846 q 292 777 266 802 m 363 600 q 469 566 429 600 q 509 486 509 533 q 444 363 509 422 q 307 275 380 305 q 190 245 233 245 q 184 214 184 245 q 271 84 184 84 q 334 103 301 84 q 380 136 366 122 q 404 160 395 151 q 416 147 407 160 q 426 129 426 134 q 344 43 408 94 q 220 -8 279 -8 q 92 48 136 -8 q 49 206 49 104 q 94 389 49 297 q 214 540 140 480 q 363 600 288 600 m 350 534 q 249 452 301 534 q 197 309 197 370 q 202 304 197 304 q 320 366 258 304 q 382 488 382 427 q 374 522 382 509 q 350 534 366 534 z "},"":{"ha":738,"x_min":-11,"x_max":730,"o":"m 416 1072 q 450 1131 422 1105 q 511 1156 479 1156 q 562 1131 544 1156 q 574 1072 581 1107 q 540 1013 568 1038 q 479 987 511 987 q 428 1012 446 987 q 416 1072 410 1036 m 326 892 q 528 896 388 891 q 730 901 669 901 q 727 812 727 871 q 728 760 727 795 q 728 708 728 726 q 701 701 722 701 q 685 711 685 701 q 543 831 669 831 l 481 831 q 388 814 393 831 q 361 716 366 753 l 320 492 q 323 488 320 490 q 335 485 327 486 q 352 484 343 484 q 372 483 361 483 l 456 483 q 532 495 517 483 q 576 572 548 507 q 597 583 581 583 q 620 575 614 583 l 571 317 q 547 312 566 312 q 529 323 530 312 q 510 403 526 387 q 393 415 496 415 q 301 404 304 415 l 262 198 q 250 100 250 140 q 261 72 250 77 q 331 66 273 66 l 378 66 q 534 95 477 66 q 589 142 556 106 q 646 225 621 178 q 665 233 650 233 q 697 225 692 233 q 585 -4 597 31 q 361 -1 513 -4 q 156 3 209 3 l -8 -4 q -11 8 -11 -1 q -1 37 -11 37 q 45 48 12 37 q 84 71 79 60 q 117 187 103 111 l 217 703 q 231 818 233 785 q 200 843 229 829 q 157 857 171 857 q 156 863 156 857 q 164 898 156 890 q 326 892 241 892 z "},"":{"ha":483,"x_min":47,"x_max":509,"o":"m 283 745 q 274 757 283 745 q 271 804 264 769 q 305 865 278 840 q 365 890 332 890 q 416 865 397 890 q 429 804 435 840 q 395 745 423 770 q 334 720 366 720 q 283 745 301 720 m 363 600 q 469 566 429 600 q 509 486 509 533 q 444 363 509 422 q 307 275 380 305 q 190 245 233 245 q 184 214 184 245 q 271 84 184 84 q 334 103 301 84 q 380 136 366 122 q 404 160 395 151 q 416 147 407 160 q 426 129 426 134 q 344 43 408 94 q 220 -8 279 -8 q 92 48 136 -8 q 49 206 49 104 q 94 389 49 297 q 214 540 140 480 q 363 600 288 600 m 350 534 q 249 452 301 534 q 197 309 197 370 q 202 304 197 304 q 320 366 258 304 q 382 488 382 427 q 374 522 382 509 q 350 534 366 534 z "},"":{"ha":735,"x_min":-12,"x_max":727,"o":"m 582 -4 q 435 -62 500 -4 q 369 -176 369 -121 q 408 -213 369 -213 q 462 -202 437 -213 q 501 -180 487 -191 q 517 -170 515 -170 q 518 -190 524 -171 q 509 -213 513 -209 q 354 -302 429 -302 q 302 -281 323 -302 q 281 -228 281 -260 q 335 -102 281 -175 q 439 -3 389 -28 q 291 0 395 -3 q 145 3 187 3 q 78 1 109 3 q 23 -3 47 0 q -11 -5 -1 -5 q -12 7 -12 -4 q -4 35 -12 35 q 42 47 9 35 q 81 71 75 58 q 115 193 99 106 l 214 703 q 229 818 229 803 q 199 842 228 829 q 156 854 170 854 q 153 861 153 854 q 163 895 153 886 q 324 891 248 891 q 526 896 393 891 q 727 901 659 901 q 726 812 726 886 l 726 708 q 699 701 719 701 q 682 711 682 701 q 540 831 666 831 l 479 831 q 385 814 391 831 q 359 716 366 760 l 317 492 q 321 488 317 490 q 332 485 324 486 q 349 484 340 484 q 369 483 358 483 l 453 483 q 530 495 514 483 q 574 572 545 507 q 595 583 578 583 q 617 575 612 583 l 568 317 q 544 312 563 312 q 526 323 528 312 q 509 401 524 387 q 392 415 491 415 q 300 404 302 415 l 259 198 q 248 100 248 144 q 260 72 248 77 q 330 66 271 66 l 376 66 q 533 95 476 66 q 587 142 555 106 q 643 225 618 178 q 663 233 647 233 q 696 225 690 233 q 657 153 689 212 q 608 59 625 95 q 582 -4 591 23 z "},"":{"ha":499,"x_min":28,"x_max":475,"o":"m 165 -174 q 206 -213 165 -213 q 260 -202 235 -213 q 299 -180 285 -191 q 315 -170 313 -170 q 316 -190 321 -171 q 307 -213 311 -209 q 233 -275 275 -248 q 151 -302 190 -302 q 98 -281 119 -302 q 77 -228 77 -259 q 205 -7 77 -140 q 77 61 126 -3 q 28 218 28 125 q 130 483 28 366 q 350 600 231 600 q 442 563 410 600 q 475 481 475 526 q 413 364 475 422 q 280 276 351 307 q 165 245 209 245 q 161 233 161 245 q 192 113 161 149 q 266 77 222 77 q 320 100 292 77 q 368 145 349 122 q 388 168 387 168 q 401 157 392 168 q 410 136 410 145 q 382 96 407 125 q 327 39 358 66 q 165 -174 165 -99 m 320 536 q 209 431 269 536 q 180 364 193 403 q 168 312 168 326 q 176 305 168 305 q 291 363 232 305 q 350 480 350 422 q 320 536 350 536 z "},"":{"ha":738,"x_min":-11,"x_max":730,"o":"m 513 1089 q 670 1172 650 1172 q 677 1145 684 1172 q 575 1061 643 1123 q 510 1000 534 1024 q 492 987 498 987 q 480 1000 487 987 q 439 1062 469 1021 q 394 1118 418 1092 q 370 1145 370 1143 q 388 1172 380 1172 q 443 1142 399 1172 q 513 1089 487 1112 m 326 892 q 528 896 388 891 q 730 901 669 901 q 727 812 727 871 q 728 760 727 795 q 728 708 728 726 q 701 701 722 701 q 685 711 685 701 q 543 831 669 831 l 481 831 q 388 814 393 831 q 361 716 366 753 l 320 492 q 323 488 320 490 q 335 485 327 486 q 352 484 343 484 q 372 483 361 483 l 456 483 q 532 495 517 483 q 576 572 548 507 q 597 583 581 583 q 620 575 614 583 l 571 317 q 547 312 566 312 q 529 323 530 312 q 510 403 526 387 q 393 415 496 415 q 301 404 304 415 l 262 198 q 250 100 250 140 q 261 72 250 77 q 331 66 273 66 l 378 66 q 534 95 477 66 q 589 142 556 106 q 646 225 621 178 q 665 233 650 233 q 697 225 692 233 q 585 -4 597 31 q 361 -1 513 -4 q 156 3 209 3 l -8 -4 q -11 8 -11 -1 q -1 37 -11 37 q 45 48 12 37 q 84 71 79 60 q 117 187 103 111 l 217 703 q 231 818 233 785 q 200 843 229 829 q 157 857 171 857 q 156 863 156 857 q 164 898 156 890 q 326 892 241 892 z "},"":{"ha":483,"x_min":47,"x_max":509,"o":"m 347 802 q 433 863 381 829 q 494 897 484 897 q 498 865 505 897 q 487 855 496 864 q 467 836 477 846 q 437 807 456 826 q 400 768 419 788 q 368 728 387 753 q 340 694 349 704 q 326 682 331 682 q 313 694 317 682 q 279 769 298 734 q 222 865 263 800 q 240 897 231 897 q 288 863 250 897 q 347 802 326 829 m 363 600 q 469 566 429 600 q 509 486 509 533 q 444 363 509 422 q 307 275 380 305 q 190 245 233 245 q 184 214 184 245 q 271 84 184 84 q 334 103 301 84 q 380 136 366 122 q 404 160 395 151 q 416 147 407 160 q 426 129 426 134 q 344 43 408 94 q 220 -8 279 -8 q 92 48 136 -8 q 49 206 49 104 q 94 389 49 297 q 214 540 140 480 q 363 600 288 600 m 350 534 q 249 452 301 534 q 197 309 197 370 q 202 304 197 304 q 320 366 258 304 q 382 488 382 427 q 374 522 382 509 q 350 534 366 534 z "},"":{"ha":875,"x_min":35,"x_max":859,"o":"m 697 987 q 553 1069 671 987 q 450 1016 513 1044 q 376 987 388 987 q 368 1013 359 987 q 407 1041 369 1015 q 481 1096 445 1067 q 556 1160 526 1130 q 575 1172 571 1172 q 593 1160 586 1172 q 610 1133 595 1154 q 636 1097 625 1111 q 675 1055 655 1074 q 705 1025 694 1035 q 718 1013 716 1015 q 697 987 711 987 m 551 905 q 836 854 666 905 q 827 777 831 825 q 819 695 822 728 q 814 655 815 662 q 787 643 811 643 q 760 651 768 643 q 756 689 760 670 q 739 737 753 708 q 704 787 726 766 q 640 823 682 807 q 543 838 598 838 q 412 800 472 838 q 313 705 351 762 q 246 580 274 648 q 206 453 218 511 q 194 353 194 395 q 254 143 194 229 q 427 57 315 57 q 562 88 519 57 q 575 114 572 96 q 605 275 597 225 q 610 331 610 308 q 572 357 610 347 q 517 368 534 368 q 514 376 514 368 q 524 408 514 399 q 703 401 680 401 q 859 408 730 401 q 849 368 859 368 q 773 345 812 368 q 750 312 754 332 q 731 198 742 266 q 724 138 724 155 l 724 102 q 686 60 724 76 q 606 26 632 35 q 511 3 581 16 q 359 -11 441 -11 q 126 98 217 -11 q 35 361 35 208 q 106 621 35 495 q 298 826 178 747 q 551 905 419 905 z "},"":{"ha":609,"x_min":-8,"x_max":642,"o":"m 479 684 q 429 715 469 684 q 361 773 388 747 q 273 715 327 747 q 210 684 220 684 q 203 694 205 684 q 203 712 201 705 q 219 726 206 715 q 253 756 232 736 q 297 799 274 776 q 365 873 340 842 q 384 887 378 887 q 395 873 388 887 q 430 808 418 829 q 461 761 445 784 q 486 726 477 738 q 496 712 495 715 q 479 684 490 684 m 418 -146 q 227 -35 418 -80 q 189 -52 203 -45 q 153 -71 174 -58 q 122 -102 133 -84 q 111 -141 111 -121 q 266 -244 111 -244 q 378 -216 338 -244 q 418 -146 418 -187 m 358 533 q 294 497 321 533 q 254 412 267 461 q 241 315 241 363 q 259 245 241 271 q 309 218 277 218 q 373 254 346 218 q 412 336 400 290 q 425 423 425 381 q 407 501 425 469 q 358 533 389 533 m 384 600 q 469 582 420 600 q 566 564 518 564 l 631 564 q 640 549 640 564 q 627 502 642 521 l 555 502 q 547 494 547 502 q 548 481 547 492 q 551 455 549 471 q 553 423 553 439 q 540 336 553 376 q 505 268 526 296 q 465 224 483 240 q 427 195 446 209 q 360 163 406 183 q 286 128 315 144 q 258 98 258 113 q 286 79 258 88 q 356 58 315 69 q 438 31 397 47 q 507 -15 479 15 q 536 -85 536 -45 q 452 -240 536 -174 q 212 -307 368 -307 q 55 -268 117 -307 q -7 -170 -7 -229 q 170 -14 -7 -77 q 136 4 156 -11 q 102 58 102 28 q 149 113 102 81 q 248 161 197 144 q 153 217 193 171 q 114 324 114 263 q 195 517 114 435 q 384 600 277 600 z "},"":{"ha":875,"x_min":35,"x_max":859,"o":"m 492 1081 q 505 1071 492 1081 q 552 1061 518 1061 q 620 1081 586 1061 q 671 1131 654 1101 q 680 1134 671 1134 q 693 1122 686 1133 q 699 1107 700 1112 q 697 1102 699 1105 q 696 1097 696 1099 q 625 1019 669 1050 q 538 987 582 987 q 463 1018 494 987 q 423 1097 431 1048 q 422 1102 423 1099 q 422 1107 422 1105 q 435 1122 422 1112 q 454 1134 448 1133 q 458 1131 458 1134 q 492 1081 465 1101 m 551 905 q 836 854 666 905 q 827 777 831 825 q 819 695 822 728 q 814 655 815 662 q 787 643 811 643 q 760 651 768 643 q 756 689 760 670 q 739 737 753 708 q 704 787 726 766 q 640 823 682 807 q 543 838 598 838 q 412 800 472 838 q 313 705 351 762 q 246 580 274 648 q 206 453 218 511 q 194 353 194 395 q 254 143 194 229 q 427 57 315 57 q 562 88 519 57 q 575 114 572 96 q 605 275 597 225 q 610 331 610 308 q 572 357 610 347 q 517 368 534 368 q 514 376 514 368 q 524 408 514 399 q 703 401 680 401 q 859 408 730 401 q 849 368 859 368 q 773 345 812 368 q 750 312 754 332 q 731 198 742 266 q 724 138 724 155 l 724 102 q 686 60 724 76 q 606 26 632 35 q 511 3 581 16 q 359 -11 441 -11 q 126 98 217 -11 q 35 361 35 208 q 106 621 35 495 q 298 826 178 747 q 551 905 419 905 z "},"":{"ha":609,"x_min":-8,"x_max":642,"o":"m 338 779 q 352 766 338 779 q 400 754 365 754 q 469 778 435 754 q 519 842 502 802 q 525 848 519 848 q 542 838 532 848 q 551 823 552 829 q 549 818 551 822 q 547 812 547 814 q 479 720 524 757 q 385 682 434 682 q 302 720 335 682 q 270 814 270 757 l 270 823 q 285 838 271 829 q 305 848 298 848 q 311 842 311 848 q 338 779 312 803 m 418 -146 q 227 -35 418 -80 q 189 -52 203 -45 q 153 -71 174 -58 q 122 -102 133 -84 q 111 -141 111 -121 q 266 -244 111 -244 q 378 -216 338 -244 q 418 -146 418 -187 m 358 533 q 294 497 321 533 q 254 412 267 461 q 241 315 241 363 q 259 245 241 271 q 309 218 277 218 q 373 254 346 218 q 412 336 400 290 q 425 423 425 381 q 407 501 425 469 q 358 533 389 533 m 384 600 q 469 582 420 600 q 566 564 518 564 l 631 564 q 640 549 640 564 q 627 502 642 521 l 555 502 q 547 494 547 502 q 548 481 547 492 q 551 455 549 471 q 553 423 553 439 q 540 336 553 376 q 505 268 526 296 q 465 224 483 240 q 427 195 446 209 q 360 163 406 183 q 286 128 315 144 q 258 98 258 113 q 286 79 258 88 q 356 58 315 69 q 438 31 397 47 q 507 -15 479 15 q 536 -85 536 -45 q 452 -240 536 -174 q 212 -307 368 -307 q 55 -268 117 -307 q -7 -170 -7 -229 q 170 -14 -7 -77 q 136 4 156 -11 q 102 58 102 28 q 149 113 102 81 q 248 161 197 144 q 153 217 193 171 q 114 324 114 263 q 195 517 114 435 q 384 600 277 600 z "},"":{"ha":875,"x_min":35,"x_max":859,"o":"m 460 1072 q 494 1131 465 1105 q 555 1156 522 1156 q 606 1131 587 1156 q 617 1072 624 1107 q 583 1013 612 1038 q 522 987 555 987 q 471 1012 490 987 q 460 1072 453 1036 m 551 905 q 836 854 666 905 q 827 777 831 825 q 819 695 822 728 q 814 655 815 662 q 787 643 811 643 q 760 651 768 643 q 756 689 760 670 q 739 737 753 708 q 704 787 726 766 q 640 823 682 807 q 543 838 598 838 q 412 800 472 838 q 313 705 351 762 q 246 580 274 648 q 206 453 218 511 q 194 353 194 395 q 254 143 194 229 q 427 57 315 57 q 562 88 519 57 q 575 114 572 96 q 605 275 597 225 q 610 331 610 308 q 572 357 610 347 q 517 368 534 368 q 514 376 514 368 q 524 408 514 399 q 703 401 680 401 q 859 408 730 401 q 849 368 859 368 q 773 345 812 368 q 750 312 754 332 q 731 198 742 266 q 724 138 724 155 l 724 102 q 686 60 724 76 q 606 26 632 35 q 511 3 581 16 q 359 -11 441 -11 q 126 98 217 -11 q 35 361 35 208 q 106 621 35 495 q 298 826 178 747 q 551 905 419 905 z "},"":{"ha":609,"x_min":-8,"x_max":642,"o":"m 315 745 q 306 757 315 745 q 304 804 297 769 q 338 865 311 840 q 397 890 365 890 q 449 865 430 890 q 461 804 468 840 q 427 745 456 770 q 366 720 399 720 q 315 745 334 720 m 418 -146 q 227 -35 418 -80 q 189 -52 203 -45 q 153 -71 174 -58 q 122 -102 133 -84 q 111 -141 111 -121 q 266 -244 111 -244 q 378 -216 338 -244 q 418 -146 418 -187 m 358 533 q 294 497 321 533 q 254 412 267 461 q 241 315 241 363 q 259 245 241 271 q 309 218 277 218 q 373 254 346 218 q 412 336 400 290 q 425 423 425 381 q 407 501 425 469 q 358 533 389 533 m 384 600 q 469 582 420 600 q 566 564 518 564 l 631 564 q 640 549 640 564 q 627 502 642 521 l 555 502 q 547 494 547 502 q 548 481 547 492 q 551 455 549 471 q 553 423 553 439 q 540 336 553 376 q 505 268 526 296 q 465 224 483 240 q 427 195 446 209 q 360 163 406 183 q 286 128 315 144 q 258 98 258 113 q 286 79 258 88 q 356 58 315 69 q 438 31 397 47 q 507 -15 479 15 q 536 -85 536 -45 q 452 -240 536 -174 q 212 -307 368 -307 q 55 -268 117 -307 q -7 -170 -7 -229 q 170 -14 -7 -77 q 136 4 156 -11 q 102 58 102 28 q 149 113 102 81 q 248 161 197 144 q 153 217 193 171 q 114 324 114 263 q 195 517 114 435 q 384 600 277 600 z "},"":{"ha":875,"x_min":35,"x_max":859,"o":"m 324 -138 q 363 -90 324 -107 q 449 -72 403 -72 q 465 -133 465 -91 q 420 -236 465 -184 q 326 -308 374 -288 l 323 -308 q 317 -309 319 -309 q 300 -304 309 -309 q 292 -294 292 -298 q 309 -280 292 -293 q 345 -248 327 -267 q 362 -209 362 -228 q 343 -171 362 -186 q 324 -138 324 -156 m 551 905 q 836 854 666 905 q 827 777 831 825 q 819 695 822 728 q 814 655 815 662 q 787 643 811 643 q 760 651 768 643 q 756 689 760 670 q 739 737 753 708 q 704 787 726 766 q 640 823 682 807 q 543 838 598 838 q 412 800 472 838 q 313 705 351 762 q 246 580 274 648 q 206 453 218 511 q 194 353 194 395 q 254 143 194 229 q 427 57 315 57 q 562 88 519 57 q 575 114 572 96 q 605 275 597 225 q 610 331 610 308 q 572 357 610 347 q 517 368 534 368 q 514 376 514 368 q 524 408 514 399 q 703 401 680 401 q 859 408 730 401 q 849 368 859 368 q 773 345 812 368 q 750 312 754 332 q 731 198 742 266 q 724 138 724 155 l 724 102 q 686 60 724 76 q 606 26 632 35 q 511 3 581 16 q 359 -11 441 -11 q 126 98 217 -11 q 35 361 35 208 q 106 621 35 495 q 298 826 178 747 q 551 905 419 905 z "},"":{"ha":609,"x_min":-8,"x_max":642,"o":"m 472 757 q 433 708 472 726 q 347 690 393 690 q 331 751 331 709 q 376 854 331 803 q 471 926 422 906 l 473 928 q 479 928 477 928 q 496 922 487 928 q 505 913 505 917 q 487 899 505 911 q 452 866 469 886 q 434 827 434 846 q 453 791 434 806 q 472 757 472 776 m 418 -146 q 227 -35 418 -80 q 189 -52 203 -45 q 153 -71 174 -58 q 122 -102 133 -84 q 111 -141 111 -121 q 266 -244 111 -244 q 378 -216 338 -244 q 418 -146 418 -187 m 358 533 q 294 497 321 533 q 254 412 267 461 q 241 315 241 363 q 259 245 241 271 q 309 218 277 218 q 373 254 346 218 q 412 336 400 290 q 425 423 425 381 q 407 501 425 469 q 358 533 389 533 m 384 600 q 469 582 420 600 q 566 564 518 564 l 631 564 q 640 549 640 564 q 627 502 642 521 l 555 502 q 547 494 547 502 q 548 481 547 492 q 551 455 549 471 q 553 423 553 439 q 540 336 553 376 q 505 268 526 296 q 465 224 483 240 q 427 195 446 209 q 360 163 406 183 q 286 128 315 144 q 258 98 258 113 q 286 79 258 88 q 356 58 315 69 q 438 31 397 47 q 507 -15 479 15 q 536 -85 536 -45 q 452 -240 536 -174 q 212 -307 368 -307 q 55 -268 117 -307 q -7 -170 -7 -229 q 170 -14 -7 -77 q 136 4 156 -11 q 102 58 102 28 q 149 113 102 81 q 248 161 197 144 q 153 217 193 171 q 114 324 114 263 q 195 517 114 435 q 384 600 277 600 z "},"":{"ha":962,"x_min":-11,"x_max":971,"o":"m 738 987 q 594 1069 712 987 q 491 1016 553 1044 q 416 987 429 987 q 408 1013 400 987 q 448 1041 410 1015 q 522 1096 486 1067 q 597 1160 567 1130 q 616 1172 612 1172 q 633 1160 627 1172 q 651 1133 636 1154 q 677 1097 666 1111 q 715 1055 696 1074 q 746 1025 735 1035 q 758 1013 757 1015 q 738 987 751 987 m 499 499 q 665 507 663 499 l 703 705 q 716 819 716 776 q 690 848 716 838 q 646 857 665 857 q 643 864 643 857 q 654 898 643 887 q 817 891 796 891 q 971 898 842 891 l 971 891 q 963 857 971 857 q 919 846 952 857 q 880 825 886 834 q 846 704 863 785 l 746 189 q 730 73 730 111 q 759 47 730 58 q 800 37 788 37 q 803 30 803 37 q 793 -4 803 12 q 637 4 643 4 q 547 0 604 4 q 477 -4 490 -4 q 475 5 475 -1 q 483 37 475 37 q 529 46 498 37 q 567 68 560 56 q 602 187 589 111 l 646 415 l 647 416 q 479 426 647 426 q 337 424 370 426 q 302 412 304 422 l 259 189 q 244 73 244 106 q 273 47 244 58 q 315 37 302 37 q 317 30 317 37 q 308 -4 317 12 q 152 4 157 4 q 61 0 118 4 q -8 -4 4 -4 q -11 5 -11 -1 q -3 37 -11 37 q 44 45 14 37 q 81 66 75 54 q 117 187 103 109 l 217 705 q 231 817 231 776 q 203 846 231 834 q 160 857 176 857 q 157 863 157 857 q 167 898 157 888 q 323 891 309 891 q 484 898 355 891 l 484 892 q 475 857 484 857 q 431 846 464 857 q 392 825 397 834 q 358 704 370 777 l 321 510 l 321 509 q 499 499 321 499 z "},"":{"ha":631,"x_min":42,"x_max":636,"o":"m 407 987 q 263 1069 381 987 q 160 1016 222 1044 q 85 987 98 987 q 77 1013 69 987 q 117 1041 79 1015 q 191 1096 155 1067 q 266 1160 236 1130 q 285 1172 281 1172 q 302 1160 296 1172 q 320 1133 305 1154 q 346 1097 335 1111 q 385 1055 365 1074 q 415 1025 404 1035 q 427 1013 426 1015 q 407 987 420 987 m 473 600 q 566 480 566 600 q 545 334 566 431 l 510 159 q 506 126 506 146 q 519 92 506 92 q 556 111 533 92 q 593 144 579 129 q 613 165 608 159 q 626 153 617 165 q 635 134 635 140 q 551 46 620 102 q 431 -9 481 -9 q 390 10 407 -9 q 373 65 373 30 q 385 151 373 92 l 423 343 q 435 419 435 406 q 403 476 435 476 q 334 421 378 476 q 248 282 290 366 q 193 125 206 198 l 165 0 q 107 -7 144 -7 q 43 0 71 -7 q 194 788 194 783 q 167 838 198 822 q 163 845 167 842 q 154 850 160 848 q 143 853 148 852 q 132 856 138 854 q 123 857 126 857 q 127 876 122 867 q 187 895 146 882 q 245 917 228 909 q 283 919 260 917 q 315 922 307 921 q 338 921 324 922 q 338 902 339 916 q 333 869 336 888 q 330 848 330 850 q 319 789 330 845 q 297 674 308 734 q 285 608 286 614 q 283 578 294 627 q 259 471 278 548 q 250 430 251 434 q 248 404 263 458 q 237 368 237 366 q 345 514 267 429 q 473 600 422 600 z "},"":{"ha":962,"x_min":-11,"x_max":971,"o":"m 518 633 q 420 633 484 633 q 345 632 355 632 l 316 483 l 316 480 q 488 473 316 473 q 661 480 659 473 l 689 632 q 615 633 680 632 q 518 633 551 633 m 323 887 q 486 895 331 887 l 486 890 q 482 867 486 880 q 475 854 479 854 q 431 844 464 854 q 393 823 399 833 q 358 700 376 788 q 389 699 359 700 q 460 698 419 699 q 529 697 500 697 q 628 699 563 697 q 701 700 693 700 q 716 821 716 780 q 690 846 715 837 q 646 854 665 854 q 642 863 642 854 q 651 895 642 886 q 704 892 671 894 q 764 888 736 890 q 817 887 791 887 l 971 895 l 971 882 q 960 854 971 854 q 917 844 949 854 q 879 823 884 833 q 846 700 865 798 l 913 701 q 916 701 914 701 q 921 699 918 701 q 922 692 924 697 q 897 636 913 652 l 882 631 l 833 632 l 746 187 q 732 71 732 110 q 762 47 732 58 q 803 35 791 35 q 804 24 804 35 q 795 -5 804 7 q 640 3 644 3 q 547 -1 606 3 q 477 -5 488 -5 q 475 3 475 -3 q 483 35 475 35 q 530 45 498 35 q 570 66 563 56 q 602 182 582 91 l 643 392 l 643 396 q 475 401 643 401 q 300 392 302 401 l 260 187 q 247 71 247 110 q 276 47 247 58 q 317 35 305 35 q 319 30 319 35 q 311 -5 319 8 q 152 3 160 3 q 59 -1 118 3 q -11 -5 0 -5 l -11 9 q -3 35 -11 35 q 43 45 12 35 q 81 65 75 54 q 115 182 96 94 l 203 632 l 136 631 q 133 631 134 631 q 129 633 132 631 q 127 640 126 635 q 152 694 137 680 l 167 701 q 214 700 209 700 q 231 818 231 787 q 201 844 229 834 q 157 854 174 854 l 157 865 q 165 895 157 887 q 233 891 176 895 q 323 887 289 887 z "},"":{"ha":640,"x_min":20,"x_max":614,"o":"m 446 600 q 514 566 492 600 q 536 481 536 533 q 517 350 536 438 l 481 159 q 480 136 480 155 q 509 90 480 90 q 556 134 524 90 l 587 179 q 602 167 591 179 q 614 144 612 155 q 548 44 597 99 q 441 -11 499 -11 q 377 18 401 -11 q 353 104 353 46 q 379 262 353 141 q 406 416 406 382 q 373 476 406 476 q 263 356 334 476 q 164 103 193 236 l 142 0 q 85 -7 119 -7 q 20 0 41 -7 q 152 684 152 682 q 146 690 152 690 l 79 690 l 76 689 q 73 692 75 689 q 72 703 71 696 q 88 760 84 749 l 96 766 l 163 766 q 170 774 167 766 q 173 793 171 783 q 176 812 175 804 q 178 822 178 819 q 111 852 178 852 q 104 860 104 852 q 109 880 104 869 q 118 890 114 890 q 225 909 155 890 q 321 941 296 929 l 328 941 q 338 920 338 941 q 298 800 312 865 q 297 787 298 798 q 294 774 296 777 q 298 766 294 766 l 434 766 q 441 761 441 766 q 441 757 441 760 q 439 743 439 754 q 435 720 438 732 q 427 697 433 707 q 423 692 426 693 q 418 690 420 690 l 416 690 l 282 690 q 275 684 277 690 q 216 374 216 376 l 217 373 l 218 374 q 249 425 229 395 q 301 498 269 456 q 373 570 334 541 q 446 600 412 600 z "},"":{"ha":475,"x_min":-11,"x_max":576,"o":"m 113 1001 q 109 1027 102 1001 q 141 1086 115 1055 q 258 1149 199 1149 q 365 1107 302 1149 q 472 1066 427 1066 q 532 1101 495 1066 q 572 1135 570 1135 q 576 1108 582 1135 q 543 1048 574 1085 q 429 987 490 987 q 321 1029 382 987 q 214 1070 260 1070 q 155 1036 193 1070 q 113 1001 117 1001 m 358 704 l 259 189 q 244 73 244 106 q 273 47 244 58 q 315 37 302 37 q 317 30 317 37 q 308 -4 317 12 q 152 4 157 4 q 61 0 118 4 q -8 -4 4 -4 q -11 5 -11 -1 q -3 37 -11 37 q 44 45 14 37 q 81 66 75 54 q 117 187 103 109 l 217 705 q 231 817 231 776 q 203 846 231 834 q 160 857 176 857 q 157 863 157 857 q 167 898 157 888 q 323 891 309 891 q 484 898 355 891 l 484 892 q 475 857 484 857 q 431 846 464 857 q 392 825 397 834 q 358 704 378 795 z "},"":{"ha":378,"x_min":22,"x_max":427,"o":"m 155 814 q 245 775 193 814 q 335 736 297 736 q 387 768 354 736 l 419 799 q 427 783 427 799 q 385 710 427 757 q 298 663 343 663 q 207 701 259 663 q 115 739 155 739 q 65 707 98 739 q 30 674 33 674 q 23 692 23 674 q 66 770 23 726 q 155 814 110 814 m 195 600 q 260 572 235 600 q 285 486 285 544 q 227 159 285 450 q 225 136 225 153 q 252 90 225 90 q 298 134 267 90 l 331 179 q 346 167 335 179 q 359 144 357 155 q 293 44 342 99 q 186 -11 244 -11 q 121 19 144 -11 q 98 104 98 49 q 104 171 98 137 l 153 420 q 157 450 157 441 q 125 499 157 499 q 80 454 111 499 l 49 410 q 35 422 45 410 q 22 445 24 434 q 88 545 39 490 q 195 600 137 600 z "},"":{"ha":475,"x_min":-11,"x_max":532,"o":"m 156 1002 q 168 1041 156 1015 q 187 1067 179 1067 l 526 1067 q 532 1057 534 1067 q 523 1028 528 1040 q 512 1006 518 1016 q 505 993 506 996 l 165 993 q 156 1002 156 993 m 358 704 l 259 189 q 244 73 244 106 q 273 47 244 58 q 315 37 302 37 q 317 30 317 37 q 308 -4 317 12 q 152 4 157 4 q 61 0 118 4 q -8 -4 4 -4 q -11 5 -11 -1 q -3 37 -11 37 q 44 45 14 37 q 81 66 75 54 q 117 187 103 109 l 217 705 q 231 817 231 776 q 203 846 231 834 q 160 857 176 857 q 157 863 157 857 q 167 898 157 888 q 323 891 309 891 q 484 898 355 891 l 484 892 q 475 857 484 857 q 431 846 464 857 q 392 825 397 834 q 358 704 378 795 z "},"":{"ha":378,"x_min":22,"x_max":385,"o":"m 62 696 q 92 761 79 761 l 380 761 q 385 749 389 761 q 365 693 378 723 q 354 682 365 693 l 66 682 q 64 682 65 682 q 62 686 64 682 q 62 696 61 689 m 195 600 q 260 572 235 600 q 285 486 285 544 q 227 159 285 450 q 225 136 225 153 q 252 90 225 90 q 298 134 267 90 l 331 179 q 346 167 335 179 q 359 144 357 155 q 293 44 342 99 q 186 -11 244 -11 q 121 19 144 -11 q 98 104 98 49 q 104 171 98 137 l 153 420 q 157 450 157 441 q 125 499 157 499 q 80 454 111 499 l 49 410 q 35 422 45 410 q 22 445 24 434 q 88 545 39 490 q 195 600 137 600 z "},"":{"ha":475,"x_min":-11,"x_max":488,"o":"m 281 1081 q 295 1071 281 1081 q 342 1061 308 1061 q 410 1081 376 1061 q 461 1131 444 1101 q 469 1134 461 1134 q 483 1122 476 1133 q 488 1107 490 1112 q 487 1102 488 1105 q 486 1097 486 1099 q 415 1019 458 1050 q 328 987 372 987 q 252 1018 283 987 q 213 1097 221 1048 q 212 1102 213 1099 q 212 1107 212 1105 q 224 1122 212 1112 q 244 1134 237 1133 q 248 1131 248 1134 q 281 1081 255 1101 m 358 704 l 259 189 q 244 73 244 106 q 273 47 244 58 q 315 37 302 37 q 317 30 317 37 q 308 -4 317 12 q 152 4 157 4 q 61 0 118 4 q -8 -4 4 -4 q -11 5 -11 -1 q -3 37 -11 37 q 44 45 14 37 q 81 66 75 54 q 117 187 103 109 l 217 705 q 231 817 231 776 q 203 846 231 834 q 160 857 176 857 q 157 863 157 857 q 167 898 157 888 q 323 891 309 891 q 484 898 355 891 l 484 892 q 475 857 484 857 q 431 846 464 857 q 392 825 397 834 q 358 704 378 795 z "},"":{"ha":378,"x_min":22,"x_max":376,"o":"m 163 777 q 177 765 163 777 q 225 753 190 753 q 294 777 260 753 q 345 841 327 800 q 350 846 345 846 q 367 837 357 846 q 376 822 377 827 q 374 817 376 821 q 372 811 372 812 q 304 718 349 755 q 210 681 259 681 q 127 718 160 681 q 95 812 95 755 l 95 822 q 110 837 96 827 q 130 846 123 846 q 136 841 136 846 q 163 777 137 802 m 195 600 q 260 572 235 600 q 285 486 285 544 q 227 159 285 450 q 225 136 225 153 q 252 90 225 90 q 298 134 267 90 l 331 179 q 346 167 335 179 q 359 144 357 155 q 293 44 342 99 q 186 -11 244 -11 q 121 19 144 -11 q 98 104 98 49 q 104 171 98 137 l 153 420 q 157 450 157 441 q 125 499 157 499 q 80 454 111 499 l 49 410 q 35 422 45 410 q 22 445 24 434 q 88 545 39 490 q 195 600 137 600 z "},"":{"ha":483,"x_min":-12,"x_max":492,"o":"m 365 701 l 267 189 q 254 73 254 114 q 283 47 254 58 q 323 35 312 35 q 326 30 326 35 q 316 -5 326 11 q 254 -8 275 -5 q 134 -75 193 -19 q 76 -176 76 -132 q 115 -213 76 -213 q 169 -202 144 -213 q 208 -180 194 -191 q 224 -170 222 -170 q 226 -190 231 -171 q 217 -213 221 -209 q 143 -275 186 -248 q 61 -302 100 -302 q 9 -281 30 -302 q -12 -228 -12 -260 q 45 -94 -12 -171 q 155 3 103 -18 q 103 1 129 3 q 48 -2 77 0 q 0 -5 19 -4 q -1 5 -1 -4 q 7 35 -1 35 q 53 45 22 35 q 91 66 84 54 q 125 187 110 104 l 224 703 q 237 814 237 773 q 210 843 237 831 q 167 854 183 854 q 164 860 164 854 q 175 895 164 884 q 241 891 187 895 q 330 887 296 887 q 492 895 338 887 l 492 890 q 489 867 492 880 q 481 854 486 854 q 438 843 471 854 q 400 822 406 831 q 365 701 384 785 z "},"":{"ha":388,"x_min":20,"x_max":358,"o":"m 136 -174 q 176 -213 136 -213 q 230 -202 205 -213 q 269 -180 255 -191 q 285 -170 283 -170 q 286 -190 292 -171 q 277 -213 281 -209 q 203 -275 245 -248 q 121 -302 160 -302 q 68 -281 90 -302 q 47 -228 47 -259 q 83 -119 47 -182 q 164 -7 119 -57 q 96 104 96 7 q 104 171 96 130 l 152 420 q 156 450 156 441 q 123 499 156 499 q 79 454 110 499 l 49 410 q 34 422 45 410 q 20 445 23 434 q 87 545 38 490 q 194 600 136 600 q 258 572 233 600 q 283 486 283 544 q 271 393 283 463 q 243 248 259 323 q 227 160 228 172 q 224 136 224 144 q 252 91 224 91 q 298 136 267 91 l 331 179 q 345 167 335 179 q 358 144 355 155 q 326 87 351 123 q 270 24 300 52 q 171 -81 206 -34 q 136 -174 136 -127 m 278 888 q 323 869 307 888 q 340 819 340 849 q 314 750 340 780 q 251 720 288 720 q 206 741 224 720 q 189 792 189 762 q 215 859 189 830 q 278 888 241 888 z "},"":{"ha":475,"x_min":-11,"x_max":484,"o":"m 269 1072 q 302 1131 274 1105 q 363 1156 331 1156 q 414 1131 396 1156 q 426 1072 433 1107 q 392 1013 420 1038 q 331 987 363 987 q 280 1012 298 987 q 269 1072 262 1036 m 358 704 l 259 189 q 244 73 244 106 q 273 47 244 58 q 315 37 302 37 q 317 30 317 37 q 308 -4 317 12 q 152 4 157 4 q 61 0 118 4 q -8 -4 4 -4 q -11 5 -11 -1 q -3 37 -11 37 q 44 45 14 37 q 81 66 75 54 q 117 187 103 109 l 217 705 q 231 817 231 776 q 203 846 231 834 q 160 857 176 857 q 157 863 157 857 q 167 898 157 888 q 323 891 309 891 q 484 898 355 891 l 484 892 q 475 857 484 857 q 431 846 464 857 q 392 825 397 834 q 358 704 378 795 z "},"":{"ha":378,"x_min":22,"x_max":359,"o":"m 195 600 q 260 572 235 600 q 285 486 285 544 q 227 159 285 450 q 225 136 225 153 q 252 90 225 90 q 298 134 267 90 l 331 179 q 346 167 335 179 q 359 144 357 155 q 293 44 342 99 q 186 -11 244 -11 q 121 19 144 -11 q 98 104 98 49 q 104 171 98 137 l 153 420 q 157 450 157 441 q 125 499 157 499 q 80 454 111 499 l 49 410 q 35 422 45 410 q 22 445 24 434 q 88 545 39 490 q 195 600 137 600 z "},"":{"ha":865,"x_min":-12,"x_max":873,"o":"m 494 127 l 605 705 q 618 817 618 776 q 591 846 618 834 q 548 857 564 857 q 545 863 545 857 q 556 898 545 887 q 711 891 699 891 q 873 898 745 891 l 873 892 q 870 870 873 883 q 863 857 867 857 q 819 846 852 857 q 781 825 787 834 q 746 704 765 788 l 640 152 q 587 -12 624 64 q 510 -134 549 -87 q 422 -221 471 -182 q 341 -277 373 -260 q 281 -307 309 -294 q 263 -279 263 -300 q 266 -258 263 -263 q 494 127 446 -119 m 357 704 l 258 189 q 243 73 243 106 q 272 47 243 58 q 313 37 301 37 q 316 30 316 37 q 307 -4 316 12 q 151 4 156 4 q 60 0 117 4 q -9 -4 3 -4 q -12 5 -12 -1 q -4 37 -12 37 q 43 45 12 37 q 80 66 73 54 q 115 187 102 109 l 216 705 q 229 817 229 776 q 202 846 229 834 q 159 857 175 857 q 156 863 156 857 q 165 898 156 888 q 321 891 308 891 q 483 898 354 891 l 483 892 q 473 857 483 857 q 429 846 463 857 q 391 825 396 834 q 357 704 377 795 z "},"":{"ha":723,"x_min":61,"x_max":727,"o":"m 613 600 q 655 580 639 600 q 671 526 671 560 q 661 439 671 494 l 597 111 q 494 -153 564 -58 q 393 -249 456 -205 q 289 -307 330 -293 q 279 -291 285 -305 q 274 -269 274 -277 q 397 -130 354 -209 q 467 83 441 -50 l 534 420 q 538 464 538 450 q 525 496 538 496 q 480 471 509 496 q 438 429 452 445 q 426 442 435 429 q 416 461 416 456 q 499 546 431 492 q 613 600 567 600 m 662 906 q 709 885 690 906 q 727 836 727 864 q 700 767 727 796 q 637 738 673 738 q 592 758 609 738 q 575 808 575 779 q 601 877 575 848 q 662 906 627 906 m 258 600 q 299 580 282 600 q 316 526 316 560 q 305 439 316 492 l 250 159 q 247 126 247 146 q 260 92 247 92 q 297 111 274 92 q 334 144 320 129 q 355 165 349 159 q 368 153 358 165 q 377 134 377 140 q 292 46 361 102 q 174 -9 222 -9 q 131 10 148 -9 q 114 65 114 30 q 125 151 114 95 l 178 420 q 183 464 183 449 q 170 496 183 496 q 125 471 153 496 q 83 429 96 445 q 71 442 80 429 q 61 461 61 456 q 143 546 76 492 q 258 600 210 600 m 298 903 q 344 884 326 903 q 362 836 362 864 q 336 766 362 796 q 273 736 309 736 q 228 758 245 736 q 210 808 210 779 q 236 875 210 846 q 298 903 262 903 z "},"":{"ha":585,"x_min":-16,"x_max":612,"o":"m 591 987 q 448 1069 566 987 q 345 1016 407 1044 q 270 987 282 987 q 262 1013 254 987 q 301 1041 263 1015 q 376 1096 339 1067 q 450 1160 420 1130 q 469 1172 465 1172 q 487 1160 480 1172 q 505 1133 490 1154 q 530 1097 519 1111 q 569 1055 549 1074 q 600 1025 589 1035 q 612 1013 610 1015 q 591 987 605 987 m 214 127 l 326 705 q 339 817 339 776 q 312 846 339 834 q 269 857 285 857 q 266 863 266 857 q 277 898 266 887 q 431 891 419 891 q 594 898 465 891 l 594 892 q 591 870 594 883 q 583 857 587 857 q 540 846 572 857 q 502 825 507 834 q 467 704 486 788 l 361 152 q 307 -12 345 64 q 231 -134 270 -87 q 142 -221 191 -182 q 62 -277 94 -260 q 1 -307 30 -294 q -16 -279 -16 -300 q -14 -258 -16 -263 q 214 127 167 -119 z "},"":{"ha":410,"x_min":-15,"x_max":438,"o":"m 420 684 q 370 715 411 684 q 302 773 330 747 q 215 715 269 747 q 152 684 161 684 q 144 694 146 684 q 145 712 142 705 q 161 726 148 715 q 195 756 174 736 q 239 799 216 776 q 307 873 282 842 q 326 887 320 887 q 336 873 330 887 q 372 808 359 829 q 403 761 387 784 q 428 726 419 738 q 438 712 437 715 q 420 684 431 684 m 288 600 q 352 572 327 600 q 377 486 377 544 q 309 111 377 450 q 206 -153 275 -58 q 104 -249 168 -205 q 1 -307 41 -293 q -15 -277 -15 -294 q -7 -263 -15 -271 q 114 -123 76 -195 q 179 83 152 -52 l 245 420 q 250 450 250 441 q 217 499 250 499 q 172 454 203 499 l 141 410 q 127 422 137 410 q 114 445 117 434 q 180 545 132 490 q 288 600 229 600 z "},"":{"ha":937,"x_min":-11,"x_max":947,"o":"m 296 -138 q 335 -90 296 -107 q 420 -72 374 -72 q 437 -133 437 -91 q 391 -236 437 -184 q 297 -308 346 -288 l 294 -308 q 289 -309 290 -309 q 272 -304 281 -309 q 263 -294 263 -298 q 281 -280 263 -293 q 316 -248 298 -267 q 334 -209 334 -228 q 315 -171 334 -186 q 296 -138 296 -156 m 358 704 l 259 189 q 244 73 244 106 q 273 47 244 58 q 315 37 302 37 q 317 30 317 37 q 308 -4 317 12 q 153 4 157 4 q 62 0 119 4 q -8 -4 4 -4 q -11 5 -11 -1 q -3 37 -11 37 q 44 45 14 37 q 81 66 75 54 q 117 187 103 109 l 217 705 q 231 817 231 776 q 203 846 231 834 q 160 857 176 857 q 157 863 157 857 q 167 898 157 888 q 323 891 309 891 q 484 898 355 891 l 484 892 q 475 857 484 857 q 431 846 464 857 q 392 825 397 834 q 358 704 378 795 m 309 448 q 681 792 418 517 q 709 836 709 821 q 643 857 709 857 q 636 872 636 857 q 643 898 636 887 q 796 892 735 892 q 947 898 844 892 q 936 857 947 857 q 789 800 834 846 l 477 481 q 468 460 468 472 q 475 442 468 453 l 718 125 q 793 60 750 80 q 868 39 837 39 q 871 30 871 39 q 863 0 871 16 q 772 -4 838 -4 q 570 81 627 -4 l 309 448 z "},"":{"ha":644,"x_min":56,"x_max":642,"o":"m 184 -138 q 224 -90 184 -107 q 309 -72 263 -72 q 326 -133 326 -91 q 280 -236 326 -184 q 186 -308 235 -288 l 183 -308 q 178 -309 179 -309 q 161 -304 170 -309 q 152 -294 152 -298 q 170 -280 152 -293 q 205 -248 187 -267 q 222 -209 222 -228 q 203 -171 222 -186 q 184 -138 184 -156 m 477 600 q 569 569 529 600 q 609 491 609 538 q 532 347 609 406 q 358 274 456 288 q 455 130 415 178 q 522 83 495 83 q 574 106 547 83 q 613 148 602 130 q 629 136 617 148 q 642 119 642 123 q 579 41 631 88 q 475 -5 528 -5 q 440 0 457 -5 q 406 18 423 5 q 375 44 389 31 q 345 79 361 57 q 317 115 328 100 q 292 155 307 129 q 269 193 277 180 q 248 231 262 205 q 231 263 233 256 l 179 0 q 119 -8 156 -8 q 57 0 92 -8 l 201 749 q 214 825 214 808 q 138 852 214 852 q 136 861 136 852 q 146 890 136 879 q 250 908 189 892 q 345 936 312 924 q 354 909 354 930 q 334 798 354 905 l 269 453 q 291 486 277 467 q 332 533 305 505 q 398 581 359 562 q 477 600 437 600 m 423 518 q 348 477 391 518 q 277 391 305 437 q 250 328 250 346 q 274 320 250 320 q 302 323 281 320 q 356 335 323 327 q 416 363 389 343 q 450 412 444 384 q 456 476 465 434 q 423 518 448 518 z "},"":{"ha":658,"x_min":33,"x_max":617,"o":"m 248 449 q 255 460 248 449 q 448 600 342 600 q 545 567 503 600 q 586 483 586 534 q 515 344 586 396 q 343 277 444 292 q 444 129 406 175 q 511 83 481 83 q 536 92 524 83 q 555 109 548 100 q 570 132 562 118 q 581 148 579 146 q 590 149 582 149 q 606 144 598 149 q 617 132 614 138 q 564 43 604 90 q 464 -3 525 -3 q 313 88 391 -3 q 266 158 292 114 q 225 233 240 202 l 210 263 l 209 264 q 208 262 208 264 l 157 0 q 98 -8 133 -8 q 33 0 65 -8 l 111 407 q 123 480 123 468 q 58 510 123 510 q 53 518 53 510 q 58 537 53 526 q 65 548 62 548 q 174 568 100 548 q 270 600 247 587 l 275 600 q 285 578 285 600 q 245 456 260 530 q 248 449 245 449 m 400 518 q 289 439 351 518 q 227 328 227 359 q 251 319 227 319 q 317 330 269 319 q 399 362 366 342 q 453 452 453 399 q 439 498 453 477 q 400 518 425 518 z "},"":{"ha":716,"x_min":-11,"x_max":697,"o":"m 248 970 q 237 977 243 970 q 231 990 231 983 q 283 1043 231 998 q 373 1109 336 1088 q 406 1116 387 1116 q 467 1105 441 1116 q 494 1074 494 1095 q 385 1010 494 1050 q 248 970 275 970 m 326 892 q 486 898 382 892 q 486 892 486 898 q 482 870 486 883 q 475 857 479 857 q 431 846 464 857 q 393 825 399 834 q 358 704 369 772 l 259 189 q 248 100 248 138 q 260 72 248 77 q 331 66 273 66 l 378 66 q 534 95 477 66 q 589 142 556 106 q 646 225 621 178 q 665 233 650 233 q 697 225 692 233 q 585 -4 597 31 q 361 -1 513 -4 q 156 3 209 3 l -8 -4 q -11 8 -11 -1 q -1 37 -11 37 q 45 48 12 37 q 84 71 79 60 q 117 187 103 111 l 217 703 q 231 818 233 785 q 200 843 229 829 q 157 857 171 857 q 156 863 156 857 q 164 898 156 890 q 326 892 263 892 z "},"":{"ha":323,"x_min":61,"x_max":439,"o":"m 194 970 q 182 977 189 970 q 176 990 176 983 q 229 1043 176 998 q 319 1109 282 1088 q 351 1116 332 1116 q 413 1105 387 1116 q 439 1074 439 1095 q 330 1010 439 1050 q 194 970 221 970 m 73 151 l 193 765 q 201 825 201 807 q 126 852 201 852 q 122 861 122 852 q 133 890 122 879 q 237 908 175 892 q 332 936 300 924 q 343 909 343 930 q 323 798 343 898 l 198 159 q 195 126 195 144 q 209 92 195 92 q 244 111 221 92 q 281 144 267 129 q 302 165 296 159 q 315 153 305 165 q 324 134 324 140 q 239 46 309 102 q 121 -9 170 -9 q 79 10 95 -9 q 62 65 62 30 q 73 151 62 95 z "},"":{"ha":716,"x_min":-11,"x_max":697,"o":"m 259 -138 q 298 -90 259 -107 q 384 -72 338 -72 q 400 -133 400 -91 q 355 -236 400 -184 q 260 -308 309 -288 l 258 -308 q 252 -309 254 -309 q 235 -304 244 -309 q 227 -294 227 -298 q 244 -280 227 -293 q 279 -248 262 -267 q 297 -209 297 -228 q 278 -171 297 -186 q 259 -138 259 -156 m 326 892 q 486 898 382 892 q 486 892 486 898 q 482 870 486 883 q 475 857 479 857 q 431 846 464 857 q 393 825 399 834 q 358 704 369 772 l 259 189 q 248 100 248 138 q 260 72 248 77 q 331 66 273 66 l 378 66 q 534 95 477 66 q 589 142 556 106 q 646 225 621 178 q 665 233 650 233 q 697 225 692 233 q 585 -4 597 31 q 361 -1 513 -4 q 156 3 209 3 l -8 -4 q -11 8 -11 -1 q -1 37 -11 37 q 45 48 12 37 q 84 71 79 60 q 117 187 103 111 l 217 703 q 231 818 233 785 q 200 843 229 829 q 157 857 171 857 q 156 863 156 857 q 164 898 156 890 q 326 892 263 892 z "},"":{"ha":323,"x_min":-4,"x_max":343,"o":"m 28 -138 q 68 -90 28 -107 q 153 -72 107 -72 q 170 -133 170 -91 q 124 -236 170 -184 q 30 -308 79 -288 l 27 -308 q 22 -309 23 -309 q 5 -304 14 -309 q -4 -294 -4 -298 q 14 -280 -4 -293 q 49 -248 31 -267 q 66 -209 66 -228 q 47 -171 66 -186 q 28 -138 28 -156 m 73 151 l 193 765 q 201 825 201 807 q 126 852 201 852 q 122 861 122 852 q 133 890 122 879 q 237 908 175 892 q 332 936 300 924 q 343 909 343 930 q 323 798 343 898 l 198 159 q 195 126 195 144 q 209 92 195 92 q 244 111 221 92 q 281 144 267 129 q 302 165 296 159 q 315 153 305 165 q 324 134 324 140 q 239 46 309 102 q 121 -9 170 -9 q 79 10 95 -9 q 62 65 62 30 q 73 151 62 95 z "},"":{"ha":716,"x_min":-11,"x_max":841,"o":"m 723 854 q 756 921 723 901 q 836 941 789 941 q 841 906 841 930 q 836 850 841 878 q 780 741 826 800 q 696 661 734 682 l 690 661 q 679 669 685 661 q 673 684 673 677 q 690 700 673 685 q 724 739 707 715 q 742 789 742 764 q 732 819 742 799 q 723 854 723 838 m 326 892 q 486 898 382 892 q 486 892 486 898 q 482 870 486 883 q 475 857 479 857 q 431 846 464 857 q 393 825 399 834 q 358 704 369 772 l 259 189 q 248 100 248 138 q 260 72 248 77 q 331 66 273 66 l 378 66 q 534 95 477 66 q 589 142 556 106 q 646 225 621 178 q 665 233 650 233 q 697 225 692 233 q 585 -4 597 31 q 361 -1 513 -4 q 156 3 209 3 l -8 -4 q -11 8 -11 -1 q -1 37 -11 37 q 45 48 12 37 q 84 71 79 60 q 117 187 103 111 l 217 703 q 231 818 233 785 q 200 843 229 829 q 157 857 171 857 q 156 863 156 857 q 164 898 156 890 q 326 892 263 892 z "},"":{"ha":323,"x_min":61,"x_max":530,"o":"m 412 854 q 446 921 412 901 q 525 941 479 941 q 530 906 530 930 q 525 850 530 878 q 469 741 515 800 q 385 661 423 682 l 380 661 q 368 669 374 661 q 362 684 362 677 q 379 700 362 685 q 414 739 396 715 q 431 789 431 764 q 422 819 431 799 q 412 854 412 838 m 73 151 l 193 765 q 201 825 201 807 q 126 852 201 852 q 122 861 122 852 q 133 890 122 879 q 237 908 175 892 q 332 936 300 924 q 343 909 343 930 q 323 798 343 898 l 198 159 q 195 126 195 144 q 209 92 195 92 q 244 111 221 92 q 281 144 267 129 q 302 165 296 159 q 315 153 305 165 q 324 134 324 140 q 239 46 309 102 q 121 -9 170 -9 q 79 10 95 -9 q 62 65 62 30 q 73 151 62 95 z "},"":{"ha":716,"x_min":-11,"x_max":697,"o":"m 513 391 q 504 403 513 391 q 502 450 495 415 q 536 511 509 486 q 595 536 563 536 q 647 511 628 536 q 659 450 666 486 q 625 391 654 416 q 564 366 597 366 q 513 391 532 366 m 326 892 q 486 898 382 892 q 486 892 486 898 q 482 870 486 883 q 475 857 479 857 q 431 846 464 857 q 393 825 399 834 q 358 704 369 772 l 259 189 q 248 100 248 138 q 260 72 248 77 q 331 66 273 66 l 378 66 q 534 95 477 66 q 589 142 556 106 q 646 225 621 178 q 665 233 650 233 q 697 225 692 233 q 585 -4 597 31 q 361 -1 513 -4 q 156 3 209 3 l -8 -4 q -11 8 -11 -1 q -1 37 -11 37 q 45 48 12 37 q 84 71 79 60 q 117 187 103 111 l 217 703 q 231 818 233 785 q 200 843 229 829 q 157 857 171 857 q 156 863 156 857 q 164 898 156 890 q 326 892 263 892 z "},"":{"ha":513,"x_min":56,"x_max":494,"o":"m 348 354 q 339 366 348 354 q 336 414 330 378 q 370 474 343 449 q 430 499 397 499 q 481 474 463 499 q 494 414 500 449 q 460 355 488 380 q 399 330 431 330 q 348 354 366 330 m 68 151 l 187 765 q 195 825 195 807 q 121 852 195 852 q 117 861 117 852 q 127 890 117 879 q 232 908 170 892 q 327 936 294 924 q 338 909 338 930 q 317 798 338 898 l 193 159 q 190 126 190 144 q 203 92 190 92 q 239 111 216 92 q 276 144 262 129 q 297 165 290 159 q 309 153 300 165 q 319 134 319 140 q 234 46 304 102 q 115 -9 164 -9 q 73 10 90 -9 q 57 65 57 30 q 68 151 57 95 z "},"":{"ha":720,"x_min":-9,"x_max":703,"o":"m 332 887 q 496 895 342 887 q 494 873 496 887 q 486 854 491 854 q 439 843 475 854 q 399 822 403 831 q 363 704 374 768 l 320 469 l 551 621 q 564 608 557 621 q 575 568 575 582 q 567 553 575 559 l 302 384 l 266 193 q 255 84 252 123 q 338 66 256 66 l 384 66 q 540 95 483 66 q 595 142 563 106 q 651 225 628 179 q 670 233 655 233 q 703 225 697 233 q 590 -4 602 31 q 376 -1 522 -4 q 160 3 229 3 l -8 -5 q -9 14 -12 -1 q -3 37 -9 37 q 47 47 12 37 q 90 71 83 58 q 122 194 103 96 l 138 279 l 66 232 q 56 243 62 232 q 47 263 49 254 l 46 271 q 44 284 43 278 q 49 293 45 290 l 156 362 l 222 708 q 235 821 237 798 q 203 843 232 831 q 160 854 174 854 q 157 872 155 854 q 167 895 160 888 q 220 892 187 894 q 279 888 252 890 q 332 887 307 887 z "},"":{"ha":372,"x_min":14,"x_max":351,"o":"m 312 798 l 260 533 q 277 545 260 533 q 310 568 293 556 q 330 582 327 581 q 345 557 334 578 q 349 528 349 548 q 343 521 349 526 l 244 450 l 189 159 q 186 136 186 148 q 214 90 186 90 q 260 134 229 90 l 293 179 q 307 167 297 179 q 320 144 317 155 q 254 44 302 99 q 146 -11 205 -11 q 81 19 104 -11 q 58 104 58 49 q 66 171 58 138 l 103 357 l 34 309 q 24 321 31 309 q 16 342 18 332 l 15 350 q 14 362 14 357 q 19 370 15 368 l 119 439 q 179 749 179 734 q 184 781 182 764 q 189 809 187 799 q 191 822 191 819 q 125 852 191 852 q 119 860 119 852 q 124 879 119 868 q 132 890 129 890 q 240 909 167 890 q 336 941 313 929 l 342 941 q 351 920 351 941 q 312 798 327 872 z "},"":{"ha":1035,"x_min":-9,"x_max":1044,"o":"m 465 970 q 454 977 460 970 q 448 990 448 983 q 500 1043 448 998 q 590 1109 553 1088 q 623 1116 604 1116 q 684 1105 658 1116 q 711 1074 711 1095 q 602 1010 711 1050 q 465 970 492 970 m 330 892 q 456 898 401 892 q 468 858 460 880 q 489 805 476 836 q 513 748 502 774 q 545 680 525 722 q 578 612 566 639 q 616 535 591 585 q 654 461 642 486 q 694 382 666 437 q 731 308 722 328 q 745 363 738 326 l 810 703 q 823 803 823 781 q 782 841 823 825 q 720 857 741 857 q 718 865 718 857 q 727 898 718 891 q 886 892 841 892 q 1044 898 941 892 q 1035 857 1044 857 q 979 844 1020 857 q 921 814 937 831 q 886 703 901 783 l 784 187 q 764 72 774 142 q 753 -3 754 1 q 728 -8 747 -8 q 694 22 713 -8 q 340 749 406 600 l 229 191 q 216 94 216 123 q 256 52 216 66 q 316 37 297 37 q 319 30 319 37 q 311 -4 319 12 q 153 3 184 3 q -7 -4 138 3 q -9 7 -9 1 q -7 20 -9 14 q -3 32 -5 27 q 0 37 -1 37 q 63 49 20 37 q 119 81 106 61 q 153 195 134 107 l 256 713 q 267 815 267 768 q 230 846 267 834 q 172 857 193 857 q 168 865 168 857 q 178 898 168 891 q 330 892 286 892 z "},"":{"ha":681,"x_min":58,"x_max":688,"o":"m 332 684 q 323 692 328 684 q 317 705 317 700 q 375 781 317 713 q 467 876 433 848 q 494 882 477 882 q 537 867 518 882 q 556 836 556 853 q 454 743 556 803 q 332 684 351 684 m 255 600 q 298 580 281 600 q 315 526 315 560 q 305 446 315 500 q 302 433 304 441 q 298 407 301 425 q 292 378 294 389 q 290 366 290 366 q 397 513 320 427 q 525 600 473 600 q 617 480 617 600 q 597 334 617 431 l 562 159 q 557 126 557 146 q 571 92 557 92 q 608 111 585 92 q 645 144 631 129 q 665 165 659 159 q 677 153 669 165 q 686 134 686 140 q 602 46 671 102 q 483 -9 533 -9 q 441 10 458 -9 q 425 65 425 30 q 437 151 425 92 l 476 343 q 487 419 487 399 q 454 476 487 476 q 386 421 430 476 q 300 282 342 366 q 244 125 258 198 l 217 0 q 159 -7 195 -7 q 95 0 122 -7 l 176 420 q 182 464 182 450 q 168 496 182 496 q 123 471 152 496 q 81 429 94 445 q 68 442 77 429 q 60 461 60 456 q 142 546 75 492 q 255 600 209 600 z "},"":{"ha":1035,"x_min":-9,"x_max":1044,"o":"m 382 -138 q 422 -90 382 -107 q 507 -72 461 -72 q 524 -133 524 -91 q 478 -236 524 -184 q 384 -308 433 -288 l 381 -308 q 376 -309 377 -309 q 359 -304 368 -309 q 350 -294 350 -298 q 368 -280 350 -293 q 403 -248 385 -267 q 420 -209 420 -228 q 401 -171 420 -186 q 382 -138 382 -156 m 330 892 q 456 898 401 892 q 468 858 460 880 q 489 805 476 836 q 513 748 502 774 q 545 680 525 722 q 578 612 566 639 q 616 535 591 585 q 654 461 642 486 q 694 382 666 437 q 731 308 722 328 q 745 363 738 326 l 810 703 q 823 803 823 781 q 782 841 823 825 q 720 857 741 857 q 718 865 718 857 q 727 898 718 891 q 886 892 841 892 q 1044 898 941 892 q 1035 857 1044 857 q 979 844 1020 857 q 921 814 937 831 q 886 703 901 783 l 784 187 q 764 72 774 142 q 753 -3 754 1 q 728 -8 747 -8 q 694 22 713 -8 q 340 749 406 600 l 229 191 q 216 94 216 123 q 256 52 216 66 q 316 37 297 37 q 319 30 319 37 q 311 -4 319 12 q 153 3 184 3 q -7 -4 138 3 q -9 7 -9 1 q -7 20 -9 14 q -3 32 -5 27 q 0 37 -1 37 q 63 49 20 37 q 119 81 106 61 q 153 195 134 107 l 256 713 q 267 815 267 768 q 230 846 267 834 q 172 857 193 857 q 168 865 168 857 q 178 898 168 891 q 330 892 286 892 z "},"":{"ha":681,"x_min":58,"x_max":688,"o":"m 262 -138 q 301 -90 262 -107 q 387 -72 340 -72 q 403 -133 403 -91 q 357 -236 403 -184 q 263 -308 312 -288 l 260 -308 q 255 -309 256 -309 q 238 -304 247 -309 q 229 -294 229 -298 q 247 -280 229 -293 q 282 -248 264 -267 q 300 -209 300 -228 q 281 -171 300 -186 q 262 -138 262 -156 m 255 600 q 298 580 281 600 q 315 526 315 560 q 305 446 315 500 q 302 433 304 441 q 298 407 301 425 q 292 378 294 389 q 290 366 290 366 q 397 513 320 427 q 525 600 473 600 q 617 480 617 600 q 597 334 617 431 l 562 159 q 557 126 557 146 q 571 92 557 92 q 608 111 585 92 q 645 144 631 129 q 665 165 659 159 q 677 153 669 165 q 686 134 686 140 q 602 46 671 102 q 483 -9 533 -9 q 441 10 458 -9 q 425 65 425 30 q 437 151 425 92 l 476 343 q 487 419 487 399 q 454 476 487 476 q 386 421 430 476 q 300 282 342 366 q 244 125 258 198 l 217 0 q 159 -7 195 -7 q 95 0 122 -7 l 176 420 q 182 464 182 450 q 168 496 182 496 q 123 471 152 496 q 81 429 94 445 q 68 442 77 429 q 60 461 60 456 q 142 546 75 492 q 255 600 209 600 z "},"":{"ha":1035,"x_min":-9,"x_max":1044,"o":"m 623 1089 q 780 1172 760 1172 q 787 1145 793 1172 q 685 1061 753 1123 q 620 1000 644 1024 q 602 987 608 987 q 590 1000 597 987 q 549 1062 579 1021 q 504 1118 528 1092 q 480 1145 480 1143 q 498 1172 490 1172 q 553 1142 509 1172 q 623 1089 597 1112 m 330 892 q 456 898 401 892 q 468 858 460 880 q 489 805 476 836 q 513 748 502 774 q 545 680 525 722 q 578 612 566 639 q 616 535 591 585 q 654 461 642 486 q 694 382 666 437 q 731 308 722 328 q 745 363 738 326 l 810 703 q 823 803 823 781 q 782 841 823 825 q 720 857 741 857 q 718 865 718 857 q 727 898 718 891 q 886 892 841 892 q 1044 898 941 892 q 1035 857 1044 857 q 979 844 1020 857 q 921 814 937 831 q 886 703 901 783 l 784 187 q 764 72 774 142 q 753 -3 754 1 q 728 -8 747 -8 q 694 22 713 -8 q 340 749 406 600 l 229 191 q 216 94 216 123 q 256 52 216 66 q 316 37 297 37 q 319 30 319 37 q 311 -4 319 12 q 153 3 184 3 q -7 -4 138 3 q -9 7 -9 1 q -7 20 -9 14 q -3 32 -5 27 q 0 37 -1 37 q 63 49 20 37 q 119 81 106 61 q 153 195 134 107 l 256 713 q 267 815 267 768 q 230 846 267 834 q 172 857 193 857 q 168 865 168 857 q 178 898 168 891 q 330 892 286 892 z "}}}
